SeanSans-NormalRegular.ufo
<glyph name="exclam" format="1">
  <advance width="251"/>
  <unicode hex="0021"/>
  <outline>
    <contour>
      <point x="159" y="229" type="line"/>
      <point x="168" y="722" type="line"/>
      <point x="82" y="722" type="line"/>
      <point x="90" y="229" type="line"/>
    </contour>
    <contour>
      <point x="172" y="34" type="curve"/>
      <point x="172" y="61"/>
      <point x="153" y="75"/>
      <point x="125" y="75" type="curve"/>
      <point x="98" y="75"/>
      <point x="80" y="60"/>
      <point x="80" y="34" type="curve"/>
      <point x="165" y="34"/>
      <point x="87" y="34"/>
      <point x="172" y="34" type="curve"/>
      <point x="172" y="6"/>
      <point x="153" y="-7"/>
      <point x="125" y="-7" type="curve"/>
      <point x="97" y="-7"/>
      <point x="80" y="7"/>
      <point x="80" y="34" type="curve"/>
      <point x="165" y="34"/>
      <point x="87" y="34"/>
    </contour>
  </outline>
</glyph>
<glyph name="quotedbl" format="1">
  <advance width="405"/>
  <unicode hex="0022"/>
  <outline>
    <contour>
      <point x="141" y="614" type="line"/>
      <point x="147" y="819" type="line"/>
      <point x="61" y="819" type="line"/>
      <point x="67" y="614" type="line"/>
    </contour>
    <contour>
      <point x="338" y="614" type="line"/>
      <point x="344" y="819" type="line"/>
      <point x="259" y="819" type="line"/>
      <point x="264" y="614" type="line"/>
    </contour>
  </outline>
</glyph>
<glyph name="numbersign" format="1">
  <advance width="701"/>
  <unicode hex="0023"/>
  <outline>
    <contour>
      <point x="40" y="234" type="curve"/>
      <point x="568" y="234" type="curve"/>
      <point x="588" y="294" type="curve"/>
      <point x="61" y="294" type="curve"/>
    </contour>
    <contour>
      <point x="112" y="465" type="curve"/>
      <point x="643" y="465" type="curve"/>
      <point x="662" y="525" type="curve"/>
      <point x="132" y="525" type="curve"/>
    </contour>
    <contour>
      <point x="425" y="39" type="curve"/>
      <point x="651" y="722" type="curve"/>
      <point x="573" y="722" type="curve"/>
      <point x="346" y="39" type="curve"/>
    </contour>
    <contour>
      <point x="142" y="46" type="curve"/>
      <point x="365" y="722" type="curve"/>
      <point x="287" y="722" type="curve"/>
      <point x="67" y="46" type="curve"/>
    </contour>
  </outline>
</glyph>
<glyph name="dollar" format="1">
  <advance width="574"/>
  <unicode hex="0024"/>
  <outline>
    <contour>
      <point x="305" y="-42" type="curve"/>
      <point x="305" y="-10"/>
      <point x="305" y="43"/>
      <point x="305" y="76" type="curve"/>
      <point x="226" y="76"/>
      <point x="305" y="76"/>
      <point x="226" y="76" type="curve"/>
      <point x="226" y="43"/>
      <point x="226" y="-10"/>
      <point x="226" y="-42" type="curve"/>
      <point x="305" y="-42"/>
      <point x="226" y="-42"/>
    </contour>
    <contour>
      <point x="317" y="654" type="curve"/>
      <point x="317" y="686"/>
      <point x="317" y="741"/>
      <point x="317" y="773" type="curve"/>
      <point x="239" y="773"/>
      <point x="317" y="773"/>
      <point x="239" y="773" type="curve"/>
      <point x="239" y="741"/>
      <point x="239" y="686"/>
      <point x="239" y="654" type="curve"/>
      <point x="317" y="654"/>
      <point x="239" y="654"/>
    </contour>
    <contour>
      <point x="47" y="96" type="curve"/>
      <point x="107" y="68"/>
      <point x="179" y="45"/>
      <point x="262" y="45" type="curve"/>
      <point x="408" y="45"/>
      <point x="529" y="91"/>
      <point x="529" y="208" type="curve"/>
      <point x="529" y="316"/>
      <point x="419" y="356"/>
      <point x="303" y="402" type="curve"/>
      <point x="216" y="436"/>
      <point x="138" y="460"/>
      <point x="138" y="533" type="curve"/>
      <point x="138" y="597"/>
      <point x="201" y="625"/>
      <point x="282" y="625" type="curve"/>
      <point x="351" y="625"/>
      <point x="399" y="611"/>
      <point x="462" y="582" type="curve"/>
      <point x="498" y="633"/>
      <point x="462" y="582"/>
      <point x="498" y="633" type="curve"/>
      <point x="426" y="667"/>
      <point x="368" y="685"/>
      <point x="285" y="685" type="curve"/>
      <point x="158" y="685"/>
      <point x="60" y="638"/>
      <point x="60" y="533" type="curve"/>
      <point x="60" y="430"/>
      <point x="148" y="390"/>
      <point x="258" y="347" type="curve"/>
      <point x="352" y="311"/>
      <point x="451" y="285"/>
      <point x="451" y="205" type="curve"/>
      <point x="451" y="133"/>
      <point x="368" y="105"/>
      <point x="269" y="105" type="curve"/>
      <point x="200" y="105"/>
      <point x="140" y="128"/>
      <point x="85" y="150" type="curve"/>
      <point x="47" y="95"/>
      <point x="85" y="150"/>
    </contour>
  </outline>
</glyph>
<glyph name="percent" format="1">
  <advance width="1111"/>
  <unicode hex="0025"/>
  <outline>
    <contour>
      <point x="382" y="-68" type="line"/>
      <point x="826" y="735" type="line"/>
      <point x="752" y="735" type="line"/>
      <point x="308" y="-68" type="line"/>
    </contour>
    <contour>
      <point x="106" y="526" type="curve"/>
      <point x="106" y="617"/>
      <point x="146" y="681"/>
      <point x="233" y="681" type="curve"/>
      <point x="320" y="682"/>
      <point x="360" y="618"/>
      <point x="360" y="525" type="curve"/>
      <point x="360" y="434"/>
      <point x="324" y="368"/>
      <point x="237" y="368" type="curve"/>
      <point x="148" y="368"/>
      <point x="106" y="432"/>
      <point x="106" y="526" type="curve"/>
      <point x="80" y="526"/>
      <point x="62" y="526"/>
      <point x="35" y="526" type="curve"/>
      <point x="35" y="395"/>
      <point x="106" y="310"/>
      <point x="234" y="310" type="curve"/>
      <point x="363" y="310"/>
      <point x="435" y="396"/>
      <point x="435" y="528" type="curve"/>
      <point x="435" y="657"/>
      <point x="363" y="739"/>
      <point x="236" y="739" type="curve"/>
      <point x="108" y="739"/>
      <point x="35" y="656"/>
      <point x="35" y="526" type="curve"/>
      <point x="62" y="526"/>
      <point x="80" y="526"/>
    </contour>
    <contour>
      <point x="748" y="143" type="curve"/>
      <point x="748" y="234"/>
      <point x="788" y="298"/>
      <point x="874" y="298" type="curve"/>
      <point x="961" y="299"/>
      <point x="1002" y="234"/>
      <point x="1002" y="142" type="curve"/>
      <point x="1002" y="51"/>
      <point x="965" y="-16"/>
      <point x="879" y="-16" type="curve"/>
      <point x="790" y="-16"/>
      <point x="748" y="49"/>
      <point x="748" y="143" type="curve"/>
      <point x="721" y="143"/>
      <point x="703" y="143"/>
      <point x="677" y="143" type="curve"/>
      <point x="677" y="12"/>
      <point x="747" y="-73"/>
      <point x="875" y="-73" type="curve"/>
      <point x="1004" y="-73"/>
      <point x="1076" y="13"/>
      <point x="1076" y="145" type="curve"/>
      <point x="1076" y="274"/>
      <point x="1005" y="356"/>
      <point x="878" y="356" type="curve"/>
      <point x="749" y="356"/>
      <point x="677" y="273"/>
      <point x="677" y="143" type="curve"/>
      <point x="703" y="143"/>
      <point x="721" y="143"/>
    </contour>
  </outline>
</glyph>
<glyph name="ampersand" format="1">
  <advance width="713"/>
  <unicode hex="0026"/>
  <outline>
    <contour>
      <point x="693" y="33" type="line"/>
      <point x="581" y="138"/>
      <point x="464" y="254"/>
      <point x="350" y="362" type="curve"/>
      <point x="287" y="426"/>
      <point x="206" y="472"/>
      <point x="206" y="565" type="curve"/>
      <point x="206" y="625"/>
      <point x="244" y="666"/>
      <point x="303" y="666" type="curve"/>
      <point x="368" y="666"/>
      <point x="412" y="630"/>
      <point x="412" y="567" type="curve"/>
      <point x="412" y="479"/>
      <point x="341" y="444"/>
      <point x="261" y="402" type="curve"/>
      <point x="157" y="346"/>
      <point x="59" y="303"/>
      <point x="59" y="187" type="curve"/>
      <point x="59" y="61"/>
      <point x="162" y="-5"/>
      <point x="296" y="-5" type="curve"/>
      <point x="491" y="-5"/>
      <point x="600" y="127"/>
      <point x="666" y="315" type="curve"/>
      <point x="599" y="330"/>
      <point x="666" y="315"/>
      <point x="599" y="330" type="curve"/>
      <point x="543" y="172"/>
      <point x="459" y="56"/>
      <point x="300" y="56" type="curve"/>
      <point x="207" y="56"/>
      <point x="137" y="99"/>
      <point x="137" y="187" type="curve"/>
      <point x="137" y="278"/>
      <point x="213" y="309"/>
      <point x="294" y="353" type="curve"/>
      <point x="396" y="408"/>
      <point x="489" y="454"/>
      <point x="490" y="567" type="curve"/>
      <point x="490" y="670"/>
      <point x="412" y="727"/>
      <point x="306" y="727" type="curve"/>
      <point x="202" y="727"/>
      <point x="131" y="666"/>
      <point x="131" y="565" type="curve"/>
      <point x="131" y="456"/>
      <point x="219" y="399"/>
      <point x="296" y="325" type="curve"/>
      <point x="407" y="219"/>
      <point x="536" y="94"/>
      <point x="646" y="-11" type="curve"/>
    </contour>
  </outline>
</glyph>
<glyph name="parenleft" format="1">
  <advance width="366"/>
  <unicode hex="0028"/>
  <outline>
    <contour>
      <point x="364" y="-222" type="curve"/>
      <point x="199" y="-62"/>
      <point x="127" y="94"/>
      <point x="127" y="326" type="curve"/>
      <point x="127" y="558"/>
      <point x="200" y="713"/>
      <point x="363" y="876" type="curve"/>
      <point x="316" y="915"/>
      <point x="363" y="876"/>
      <point x="316" y="915" type="curve"/>
      <point x="137" y="742"/>
      <point x="49" y="578"/>
      <point x="49" y="326" type="curve"/>
      <point x="49" y="74"/>
      <point x="138" y="-90"/>
      <point x="317" y="-264" type="curve"/>
      <point x="364" y="-222"/>
      <point x="317" y="-264"/>
    </contour>
  </outline>
</glyph>
<glyph name="parenright" format="1">
  <advance width="379"/>
  <unicode hex="0029"/>
  <outline>
    <contour>
      <point x="47" y="-279" type="curve"/>
      <point x="230" y="-97"/>
      <point x="329" y="67"/>
      <point x="329" y="328" type="curve"/>
      <point x="329" y="582"/>
      <point x="237" y="745"/>
      <point x="51" y="916" type="curve"/>
      <point x="5" y="874"/>
      <point x="51" y="916"/>
      <point x="5" y="874" type="curve"/>
      <point x="173" y="713"/>
      <point x="252" y="559"/>
      <point x="252" y="325" type="curve"/>
      <point x="252" y="86"/>
      <point x="164" y="-68"/>
      <point x="0" y="-240" type="curve"/>
      <point x="47" y="-279"/>
      <point x="0" y="-240"/>
    </contour>
  </outline>
</glyph>
<glyph name="asterisk" format="1">
  <advance width="618"/>
  <unicode hex="002A"/>
  <outline>
    <contour>
      <point x="334" y="594" type="line"/>
      <point x="339" y="798" type="line"/>
      <point x="274" y="798" type="line"/>
      <point x="279" y="594" type="line"/>
    </contour>
    <contour>
      <point x="361" y="539" type="line"/>
      <point x="556" y="601" type="line"/>
      <point x="534" y="662" type="line"/>
      <point x="342" y="592" type="line"/>
    </contour>
    <contour>
      <point x="317" y="496" type="line"/>
      <point x="439" y="332" type="line"/>
      <point x="489" y="373" type="line"/>
      <point x="360" y="531" type="line"/>
    </contour>
    <contour>
      <point x="263" y="529" type="line"/>
      <point x="134" y="370" type="line"/>
      <point x="185" y="329" type="line"/>
      <point x="307" y="493" type="line"/>
    </contour>
    <contour>
      <point x="275" y="586" type="line"/>
      <point x="83" y="657" type="line"/>
      <point x="61" y="596" type="line"/>
      <point x="256" y="534" type="line"/>
    </contour>
  </outline>
</glyph>
<glyph name="plus" format="1">
  <advance width="644"/>
  <unicode hex="002B"/>
  <outline>
    <contour>
      <point x="41" y="278" type="curve"/>
      <point x="603" y="278" type="line"/>
      <point x="603" y="344"/>
      <point x="603" y="278"/>
      <point x="603" y="344" type="curve"/>
      <point x="41" y="344" type="line"/>
      <point x="41" y="278"/>
      <point x="41" y="344"/>
    </contour>
    <contour>
      <point x="358" y="26" type="curve"/>
      <point x="358" y="586" type="line"/>
      <point x="280" y="586"/>
      <point x="362" y="586"/>
      <point x="285" y="586" type="curve"/>
      <point x="285" y="26" type="line"/>
      <point x="362" y="26"/>
      <point x="280" y="26"/>
    </contour>
  </outline>
</glyph>
<glyph name="comma" format="1">
  <advance width="176"/>
  <unicode hex="002C"/>
  <outline>
    <contour>
      <point x="23" y="-116" type="line"/>
      <point x="86" y="-102"/>
      <point x="132" y="-53"/>
      <point x="132" y="22" type="curve"/>
      <point x="132" y="70"/>
      <point x="114" y="104"/>
      <point x="79" y="104" type="curve"/>
      <point x="50" y="104"/>
      <point x="32" y="89"/>
      <point x="32" y="62" type="curve"/>
      <point x="32" y="37"/>
      <point x="48" y="22"/>
      <point x="75" y="19" type="curve"/>
      <point x="74" y="-11"/>
      <point x="63" y="-53"/>
      <point x="14" y="-72" type="curve"/>
    </contour>
  </outline>
</glyph>
<glyph name="hyphen" format="1">
  <advance width="450"/>
  <unicode hex="002D"/>
  <outline>
    <contour>
      <point x="73" y="244" type="curve"/>
      <point x="174" y="244"/>
      <point x="276" y="244"/>
      <point x="377" y="244" type="curve"/>
      <point x="377" y="310"/>
      <point x="377" y="244"/>
      <point x="377" y="310" type="curve"/>
      <point x="276" y="310"/>
      <point x="174" y="310"/>
      <point x="73" y="310" type="curve"/>
      <point x="73" y="244"/>
      <point x="73" y="310"/>
    </contour>
  </outline>
</glyph>
<glyph name="period" format="1">
  <advance width="216"/>
  <unicode hex="002E"/>
  <outline>
    <contour>
      <point x="154" y="34" type="curve"/>
      <point x="154" y="61"/>
      <point x="135" y="75"/>
      <point x="107" y="75" type="curve"/>
      <point x="80" y="75"/>
      <point x="62" y="60"/>
      <point x="62" y="34" type="curve"/>
      <point x="147" y="34"/>
      <point x="69" y="34"/>
      <point x="154" y="34" type="curve"/>
      <point x="154" y="6"/>
      <point x="135" y="-7"/>
      <point x="107" y="-7" type="curve"/>
      <point x="79" y="-7"/>
      <point x="62" y="7"/>
      <point x="62" y="34" type="curve"/>
      <point x="147" y="34"/>
      <point x="69" y="34"/>
    </contour>
  </outline>
</glyph>
<glyph name="slash" format="1">
  <advance width="572"/>
  <unicode hex="002F"/>
  <outline>
    <contour>
      <point x="103" y="-43" type="curve"/>
      <point x="251" y="243"/>
      <point x="400" y="530"/>
      <point x="548" y="816" type="curve"/>
      <point x="470" y="816"/>
      <point x="548" y="816"/>
      <point x="470" y="816" type="curve"/>
      <point x="322" y="530"/>
      <point x="173" y="243"/>
      <point x="25" y="-43" type="curve"/>
      <point x="103" y="-43"/>
      <point x="25" y="-43"/>
    </contour>
  </outline>
</glyph>
<glyph name="zero" format="1">
  <advance width="743"/>
  <unicode hex="0030"/>
  <outline>
    <contour>
      <point x="139" y="360" type="curve"/>
      <point x="139" y="539"/>
      <point x="209" y="663"/>
      <point x="370" y="663" type="curve"/>
      <point x="532" y="663"/>
      <point x="605" y="541"/>
      <point x="605" y="363" type="curve"/>
      <point x="605" y="184"/>
      <point x="535" y="59"/>
      <point x="377" y="59" type="curve"/>
      <point x="215" y="59"/>
      <point x="139" y="181"/>
      <point x="139" y="360" type="curve"/>
      <point x="61" y="360"/>
      <point x="137" y="360"/>
      <point x="60" y="360" type="curve"/>
      <point x="60" y="140"/>
      <point x="164" y="-5"/>
      <point x="374" y="-5" type="curve"/>
      <point x="582" y="-5"/>
      <point x="684" y="141"/>
      <point x="684" y="363" type="curve"/>
      <point x="684" y="582"/>
      <point x="583" y="727"/>
      <point x="377" y="727" type="curve"/>
      <point x="166" y="727"/>
      <point x="60" y="582"/>
      <point x="60" y="360" type="curve"/>
      <point x="137" y="360"/>
      <point x="61" y="360"/>
    </contour>
  </outline>
</glyph>
<glyph name="one" format="1">
  <advance width="384"/>
  <unicode hex="0031"/>
  <outline>
    <contour>
      <point x="59" y="506" type="curve"/>
      <point x="283" y="682"/>
      <point x="59" y="506"/>
      <point x="283" y="682" type="curve"/>
      <point x="224" y="722"/>
      <point x="283" y="682"/>
      <point x="224" y="722" type="curve"/>
      <point x="18" y="559"/>
      <point x="224" y="722"/>
      <point x="18" y="559" type="curve"/>
      <point x="59" y="506"/>
      <point x="18" y="559"/>
    </contour>
    <contour>
      <point x="301" y="0" type="curve"/>
      <point x="301" y="241"/>
      <point x="301" y="481"/>
      <point x="301" y="722" type="curve"/>
      <point x="224" y="722"/>
      <point x="301" y="722"/>
      <point x="224" y="722" type="curve"/>
      <point x="224" y="481"/>
      <point x="224" y="241"/>
      <point x="224" y="0" type="curve"/>
      <point x="301" y="0"/>
      <point x="224" y="0"/>
    </contour>
  </outline>
</glyph>
<glyph name="two" format="1">
  <advance width="591"/>
  <unicode hex="0032"/>
  <outline>
    <contour>
      <point x="41" y="0" type="curve"/>
      <point x="229" y="0"/>
      <point x="387" y="0"/>
      <point x="541" y="0" type="curve"/>
      <point x="541" y="61"/>
      <point x="541" y="0"/>
      <point x="541" y="61" type="curve"/>
      <point x="374" y="61"/>
      <point x="208" y="61"/>
      <point x="41" y="61" type="curve"/>
      <point x="41" y="0"/>
      <point x="41" y="61"/>
    </contour>
    <contour>
      <point x="109" y="541" type="curve"/>
      <point x="160" y="615"/>
      <point x="207" y="663"/>
      <point x="291" y="663" type="curve"/>
      <point x="385" y="663"/>
      <point x="441" y="612"/>
      <point x="441" y="516" type="curve"/>
      <point x="441" y="401"/>
      <point x="359" y="325"/>
      <point x="275" y="258" type="curve"/>
      <point x="197" y="192"/>
      <point x="120" y="127"/>
      <point x="41" y="61" type="curve"/>
      <point x="48" y="0"/>
      <point x="41" y="61"/>
      <point x="48" y="0" type="curve"/>
      <point x="162" y="68"/>
      <point x="242" y="141"/>
      <point x="325" y="212" type="curve"/>
      <point x="426" y="291"/>
      <point x="515" y="375"/>
      <point x="515" y="519" type="curve"/>
      <point x="515" y="655"/>
      <point x="432" y="727"/>
      <point x="295" y="727" type="curve"/>
      <point x="183" y="727"/>
      <point x="107" y="671"/>
      <point x="55" y="575" type="curve"/>
      <point x="109" y="541"/>
      <point x="55" y="575"/>
    </contour>
  </outline>
</glyph>
<glyph name="three" format="1">
  <advance width="565"/>
  <unicode hex="0033"/>
  <outline>
    <contour>
      <point x="47" y="56" type="curve"/>
      <point x="107" y="19"/>
      <point x="167" y="-5"/>
      <point x="248" y="-5" type="curve"/>
      <point x="402" y="-5"/>
      <point x="508" y="54"/>
      <point x="508" y="205" type="curve"/>
      <point x="508" y="342"/>
      <point x="361" y="400"/>
      <point x="159" y="400" type="curve"/>
      <point x="159" y="352"/>
      <point x="159" y="397"/>
      <point x="159" y="349" type="curve"/>
      <point x="301" y="349"/>
      <point x="433" y="306"/>
      <point x="433" y="202" type="curve"/>
      <point x="433" y="96"/>
      <point x="347" y="60"/>
      <point x="250" y="60" type="curve"/>
      <point x="192" y="60"/>
      <point x="143" y="76"/>
      <point x="84" y="106" type="curve"/>
      <point x="47" y="56"/>
      <point x="84" y="106"/>
    </contour>
    <contour>
      <point x="95" y="597" type="curve"/>
      <point x="129" y="630"/>
      <point x="183" y="663"/>
      <point x="244" y="663" type="curve"/>
      <point x="336" y="663"/>
      <point x="398" y="628"/>
      <point x="398" y="541" type="curve"/>
      <point x="398" y="449"/>
      <point x="286" y="409"/>
      <point x="159" y="409" type="curve"/>
      <point x="159" y="361"/>
      <point x="159" y="406"/>
      <point x="159" y="358" type="curve"/>
      <point x="334" y="358"/>
      <point x="473" y="412"/>
      <point x="473" y="543" type="curve"/>
      <point x="473" y="669"/>
      <point x="382" y="727"/>
      <point x="251" y="727" type="curve"/>
      <point x="165" y="727"/>
      <point x="91" y="686"/>
      <point x="51" y="640" type="curve"/>
      <point x="95" y="597"/>
      <point x="51" y="640"/>
    </contour>
  </outline>
</glyph>
<glyph name="four" format="1">
  <advance width="630"/>
  <unicode hex="0034"/>
  <outline>
    <contour>
      <point x="54" y="258" type="line"/>
      <point x="411" y="693" type="line"/>
      <point x="349" y="711" type="line"/>
      <point x="20" y="314" type="line"/>
    </contour>
    <contour>
      <point x="592" y="314" type="line"/>
      <point x="20" y="314" type="line"/>
      <point x="20" y="248" type="line"/>
      <point x="592" y="248" type="line"/>
    </contour>
    <contour>
      <point x="426" y="0" type="line"/>
      <point x="426" y="711" type="line"/>
      <point x="349" y="711" type="line"/>
      <point x="349" y="0" type="line"/>
    </contour>
  </outline>
</glyph>
<glyph name="five" format="1">
  <advance width="555"/>
  <unicode hex="0035"/>
  <outline>
    <contour>
      <point x="90" y="722" type="curve"/>
      <point x="90" y="622"/>
      <point x="90" y="513"/>
      <point x="90" y="391" type="curve"/>
      <point x="164" y="370"/>
      <point x="90" y="391"/>
      <point x="164" y="370" type="curve"/>
      <point x="164" y="466"/>
      <point x="164" y="567"/>
      <point x="164" y="661" type="curve"/>
      <point x="90" y="722"/>
      <point x="164" y="661"/>
    </contour>
    <contour>
      <point x="164" y="370" type="curve"/>
      <point x="186" y="384"/>
      <point x="231" y="395"/>
      <point x="265" y="395" type="curve"/>
      <point x="367" y="395"/>
      <point x="427" y="332"/>
      <point x="427" y="231" type="curve"/>
      <point x="427" y="129"/>
      <point x="353" y="59"/>
      <point x="249" y="59" type="curve"/>
      <point x="188" y="59"/>
      <point x="143" y="72"/>
      <point x="86" y="99" type="curve"/>
      <point x="49" y="44"/>
      <point x="86" y="99"/>
      <point x="49" y="44" type="curve"/>
      <point x="111" y="12"/>
      <point x="174" y="-5"/>
      <point x="248" y="-5" type="curve"/>
      <point x="395" y="-5"/>
      <point x="504" y="86"/>
      <point x="504" y="232" type="curve"/>
      <point x="504" y="370"/>
      <point x="413" y="460"/>
      <point x="271" y="460" type="curve"/>
      <point x="212" y="460"/>
      <point x="142" y="440"/>
      <point x="97" y="394" type="curve"/>
      <point x="165" y="372"/>
      <point x="96" y="392"/>
    </contour>
    <contour>
      <point x="477" y="722" type="curve"/>
      <point x="344" y="722"/>
      <point x="217" y="722"/>
      <point x="90" y="722" type="curve"/>
      <point x="164" y="661"/>
      <point x="90" y="722"/>
      <point x="164" y="661" type="curve"/>
      <point x="266" y="661"/>
      <point x="369" y="661"/>
      <point x="477" y="661" type="curve"/>
      <point x="477" y="722"/>
      <point x="477" y="661"/>
    </contour>
  </outline>
</glyph>
<glyph name="six" format="1">
  <advance width="615"/>
  <unicode hex="0036"/>
  <outline>
    <contour>
      <point x="120" y="224" type="curve"/>
      <point x="158" y="311"/>
      <point x="225" y="363"/>
      <point x="321" y="363" type="curve"/>
      <point x="421" y="363"/>
      <point x="482" y="311"/>
      <point x="482" y="212" type="curve"/>
      <point x="482" y="119"/>
      <point x="421" y="63"/>
      <point x="324" y="63" type="curve"/>
      <point x="204" y="63"/>
      <point x="132" y="132"/>
      <point x="132" y="250" type="curve"/>
      <point x="132" y="493"/>
      <point x="310" y="605"/>
      <point x="552" y="674" type="curve"/>
      <point x="533" y="732"/>
      <point x="552" y="674"/>
      <point x="533" y="732" type="curve"/>
      <point x="264" y="661"/>
      <point x="56" y="528"/>
      <point x="56" y="247" type="curve"/>
      <point x="56" y="85"/>
      <point x="158" y="-8"/>
      <point x="321" y="-8" type="curve"/>
      <point x="468" y="-8"/>
      <point x="561" y="71"/>
      <point x="561" y="213" type="curve"/>
      <point x="561" y="353"/>
      <point x="469" y="427"/>
      <point x="330" y="427" type="curve"/>
      <point x="201" y="427"/>
      <point x="115" y="348"/>
      <point x="72" y="249" type="curve"/>
      <point x="120" y="224"/>
      <point x="73" y="249"/>
    </contour>
  </outline>
</glyph>
<glyph name="eight" format="1">
  <advance width="599"/>
  <unicode hex="0038"/>
  <outline>
    <contour>
      <point x="80" y="551" type="curve"/>
      <point x="80" y="436"/>
      <point x="169" y="405"/>
      <point x="277" y="356" type="curve"/>
      <point x="377" y="310"/>
      <point x="461" y="281"/>
      <point x="461" y="180" type="curve"/>
      <point x="461" y="93"/>
      <point x="396" y="58"/>
      <point x="299" y="58" type="curve"/>
      <point x="202" y="58"/>
      <point x="137" y="93"/>
      <point x="137" y="180" type="curve"/>
      <point x="137" y="284"/>
      <point x="224" y="309"/>
      <point x="325" y="356" type="curve"/>
      <point x="430" y="407"/>
      <point x="519" y="436"/>
      <point x="519" y="550" type="curve"/>
      <point x="519" y="675"/>
      <point x="433" y="727"/>
      <point x="299" y="727" type="curve"/>
      <point x="168" y="727"/>
      <point x="80" y="673"/>
      <point x="80" y="551" type="curve"/>
      <point x="157" y="551"/>
      <point x="80" y="551"/>
      <point x="157" y="551" type="curve"/>
      <point x="157" y="628"/>
      <point x="212" y="664"/>
      <point x="296" y="664" type="curve"/>
      <point x="385" y="664"/>
      <point x="442" y="631"/>
      <point x="442" y="550" type="curve"/>
      <point x="442" y="461"/>
      <point x="364" y="439"/>
      <point x="276" y="400" type="curve"/>
      <point x="157" y="344"/>
      <point x="60" y="308"/>
      <point x="60" y="180" type="curve"/>
      <point x="60" y="50"/>
      <point x="154" y="-5"/>
      <point x="295" y="-5" type="curve"/>
      <point x="439" y="-5"/>
      <point x="539" y="47"/>
      <point x="539" y="180" type="curve"/>
      <point x="539" y="307"/>
      <point x="443" y="345"/>
      <point x="325" y="400" type="curve"/>
      <point x="236" y="442"/>
      <point x="157" y="461"/>
      <point x="157" y="551" type="curve"/>
      <point x="80" y="551"/>
      <point x="157" y="551"/>
    </contour>
  </outline>
</glyph>
<glyph name="nine" format="1">
  <advance width="614"/>
  <unicode hex="0039"/>
  <outline>
    <contour>
      <point x="496" y="489" type="curve"/>
      <point x="455" y="405"/>
      <point x="396" y="358"/>
      <point x="298" y="358" type="curve"/>
      <point x="195" y="358"/>
      <point x="131" y="412"/>
      <point x="131" y="512" type="curve"/>
      <point x="131" y="607"/>
      <point x="193" y="659"/>
      <point x="289" y="659" type="curve"/>
      <point x="410" y="659"/>
      <point x="482" y="591"/>
      <point x="482" y="472" type="curve"/>
      <point x="482" y="230"/>
      <point x="313" y="112"/>
      <point x="65" y="50" type="curve"/>
      <point x="88" y="-13"/>
      <point x="65" y="50"/>
      <point x="88" y="-13" type="curve"/>
      <point x="362" y="50"/>
      <point x="557" y="194"/>
      <point x="557" y="475" type="curve"/>
      <point x="557" y="637"/>
      <point x="457" y="730"/>
      <point x="292" y="730" type="curve"/>
      <point x="146" y="730"/>
      <point x="54" y="651"/>
      <point x="54" y="509" type="curve"/>
      <point x="54" y="369"/>
      <point x="147" y="295"/>
      <point x="291" y="295" type="curve"/>
      <point x="416" y="295"/>
      <point x="492" y="363"/>
      <point x="535" y="471" type="curve"/>
      <point x="496" y="489"/>
      <point x="535" y="471"/>
    </contour>
  </outline>
</glyph>
<glyph name="colon" format="1">
  <advance width="234"/>
  <unicode hex="003A"/>
  <outline>
    <contour>
      <point x="161" y="402" type="curve"/>
      <point x="161" y="430"/>
      <point x="141" y="444"/>
      <point x="113" y="444" type="curve"/>
      <point x="86" y="444"/>
      <point x="68" y="428"/>
      <point x="68" y="402" type="curve"/>
      <point x="153" y="402"/>
      <point x="75" y="402"/>
      <point x="161" y="402" type="curve"/>
      <point x="161" y="375"/>
      <point x="141" y="361"/>
      <point x="113" y="361" type="curve"/>
      <point x="86" y="361"/>
      <point x="68" y="376"/>
      <point x="68" y="402" type="curve"/>
      <point x="153" y="402"/>
      <point x="75" y="402"/>
    </contour>
    <contour>
      <point x="160" y="35" type="curve"/>
      <point x="160" y="62"/>
      <point x="141" y="76"/>
      <point x="113" y="76" type="curve"/>
      <point x="86" y="76"/>
      <point x="68" y="61"/>
      <point x="68" y="35" type="curve"/>
      <point x="153" y="35"/>
      <point x="75" y="35"/>
      <point x="160" y="35" type="curve"/>
      <point x="160" y="7"/>
      <point x="141" y="-6"/>
      <point x="113" y="-6" type="curve"/>
      <point x="85" y="-6"/>
      <point x="68" y="8"/>
      <point x="68" y="35" type="curve"/>
      <point x="153" y="35"/>
      <point x="75" y="35"/>
    </contour>
  </outline>
</glyph>
<glyph name="semicolon" format="1">
  <advance width="209"/>
  <unicode hex="003B"/>
  <outline>
    <contour>
      <point x="39" y="-131" type="line"/>
      <point x="104" y="-116"/>
      <point x="151" y="-67"/>
      <point x="151" y="8" type="curve"/>
      <point x="151" y="55"/>
      <point x="132" y="89"/>
      <point x="96" y="89" type="curve"/>
      <point x="67" y="89"/>
      <point x="48" y="75"/>
      <point x="48" y="48" type="curve"/>
      <point x="48" y="23"/>
      <point x="64" y="8"/>
      <point x="92" y="5" type="curve"/>
      <point x="91" y="-25"/>
      <point x="80" y="-67"/>
      <point x="30" y="-86" type="curve"/>
    </contour>
    <contour>
      <point x="142" y="406" type="curve"/>
      <point x="142" y="433"/>
      <point x="122" y="447"/>
      <point x="95" y="447" type="curve"/>
      <point x="67" y="447"/>
      <point x="49" y="432"/>
      <point x="49" y="406" type="curve"/>
      <point x="135" y="406"/>
      <point x="57" y="406"/>
      <point x="142" y="406" type="curve"/>
      <point x="142" y="378"/>
      <point x="122" y="365"/>
      <point x="95" y="365" type="curve"/>
      <point x="67" y="365"/>
      <point x="49" y="379"/>
      <point x="49" y="406" type="curve"/>
      <point x="135" y="406"/>
      <point x="57" y="406"/>
    </contour>
  </outline>
</glyph>
<glyph name="less" format="1">
  <advance width="732"/>
  <unicode hex="003C"/>
  <outline>
    <contour>
      <point x="669" y="603" type="curve"/>
      <point x="458" y="513"/>
      <point x="246" y="423"/>
      <point x="34" y="333" type="curve"/>
      <point x="34" y="267"/>
      <point x="34" y="333"/>
      <point x="34" y="267" type="curve"/>
      <point x="246" y="357"/>
      <point x="458" y="447"/>
      <point x="669" y="537" type="curve"/>
      <point x="669" y="603"/>
      <point x="669" y="537"/>
    </contour>
    <contour>
      <point x="680" y="69" type="curve"/>
      <point x="465" y="157"/>
      <point x="250" y="245"/>
      <point x="34" y="333" type="curve"/>
      <point x="34" y="267"/>
      <point x="34" y="333"/>
      <point x="34" y="267" type="curve"/>
      <point x="250" y="179"/>
      <point x="465" y="91"/>
      <point x="680" y="3" type="curve"/>
      <point x="680" y="69"/>
      <point x="680" y="3"/>
    </contour>
  </outline>
</glyph>
<glyph name="equal" format="1">
  <advance width="762"/>
  <unicode hex="003D"/>
  <outline>
    <contour>
      <point x="61" y="186" type="curve"/>
      <point x="279" y="186"/>
      <point x="498" y="186"/>
      <point x="717" y="186" type="curve"/>
      <point x="717" y="249"/>
      <point x="717" y="186"/>
      <point x="717" y="249" type="curve"/>
      <point x="498" y="249"/>
      <point x="279" y="249"/>
      <point x="61" y="249" type="curve"/>
      <point x="61" y="186"/>
      <point x="61" y="249"/>
    </contour>
    <contour>
      <point x="61" y="408" type="curve"/>
      <point x="279" y="408"/>
      <point x="498" y="408"/>
      <point x="717" y="408" type="curve"/>
      <point x="717" y="471"/>
      <point x="717" y="408"/>
      <point x="717" y="471" type="curve"/>
      <point x="498" y="471"/>
      <point x="279" y="471"/>
      <point x="61" y="471" type="curve"/>
      <point x="61" y="408"/>
      <point x="61" y="471"/>
    </contour>
  </outline>
</glyph>
<glyph name="greater" format="1">
  <advance width="732"/>
  <unicode hex="003E"/>
  <outline>
    <contour>
      <point x="62" y="3" type="curve"/>
      <point x="273" y="93"/>
      <point x="486" y="183"/>
      <point x="697" y="273" type="curve"/>
      <point x="697" y="339"/>
      <point x="697" y="273"/>
      <point x="697" y="339" type="curve"/>
      <point x="486" y="249"/>
      <point x="273" y="159"/>
      <point x="62" y="69" type="curve"/>
      <point x="62" y="3"/>
      <point x="62" y="69"/>
    </contour>
    <contour>
      <point x="51" y="537" type="curve"/>
      <point x="266" y="449"/>
      <point x="482" y="361"/>
      <point x="697" y="273" type="curve"/>
      <point x="697" y="339"/>
      <point x="697" y="273"/>
      <point x="697" y="339" type="curve"/>
      <point x="482" y="427"/>
      <point x="266" y="515"/>
      <point x="51" y="603" type="curve"/>
      <point x="51" y="537"/>
      <point x="51" y="603"/>
    </contour>
  </outline>
</glyph>
<glyph name="question" format="1">
  <advance width="521"/>
  <unicode hex="003F"/>
  <outline>
    <contour>
      <point x="195" y="354" type="curve"/>
      <point x="195" y="317"/>
      <point x="195" y="258"/>
      <point x="195" y="221" type="curve"/>
      <point x="271" y="221"/>
      <point x="195" y="221"/>
      <point x="271" y="221" type="curve"/>
      <point x="271" y="258"/>
      <point x="271" y="317"/>
      <point x="271" y="354" type="curve"/>
      <point x="195" y="354"/>
      <point x="271" y="354"/>
    </contour>
    <contour>
      <point x="91" y="602" type="line"/>
      <point x="126" y="637"/>
      <point x="175" y="665"/>
      <point x="237" y="665" type="curve"/>
      <point x="332" y="665"/>
      <point x="397" y="613"/>
      <point x="397" y="519" type="curve"/>
      <point x="397" y="414"/>
      <point x="318" y="354"/>
      <point x="203" y="354" type="curve"/>
      <point x="203" y="328"/>
      <point x="203" y="320"/>
      <point x="203" y="294" type="curve"/>
      <point x="361" y="294"/>
      <point x="472" y="375"/>
      <point x="472" y="519" type="curve"/>
      <point x="472" y="652"/>
      <point x="376" y="729"/>
      <point x="241" y="729" type="curve"/>
      <point x="159" y="729"/>
      <point x="97" y="698"/>
      <point x="49" y="649" type="curve"/>
    </contour>
    <contour>
      <point x="278" y="23" type="curve"/>
      <point x="278" y="50"/>
      <point x="259" y="63"/>
      <point x="233" y="63" type="curve"/>
      <point x="206" y="63"/>
      <point x="189" y="48"/>
      <point x="189" y="23" type="curve"/>
      <point x="278" y="23"/>
      <point x="189" y="23"/>
      <point x="278" y="23" type="curve"/>
      <point x="278" y="-4"/>
      <point x="260" y="-16"/>
      <point x="233" y="-16" type="curve"/>
      <point x="206" y="-16"/>
      <point x="189" y="-3"/>
      <point x="189" y="23" type="curve"/>
      <point x="278" y="23"/>
      <point x="189" y="23"/>
    </contour>
  </outline>
</glyph>
<glyph name="at" format="1">
  <advance width="872"/>
  <unicode hex="0040"/>
  <outline>
    <contour>
      <point x="605" y="-50" type="curve"/>
      <point x="550" y="-77"/>
      <point x="510" y="-84"/>
      <point x="450" y="-84" type="curve"/>
      <point x="251" y="-84"/>
      <point x="127" y="16"/>
      <point x="127" y="209" type="curve"/>
      <point x="127" y="397"/>
      <point x="251" y="495"/>
      <point x="445" y="495" type="curve"/>
      <point x="628" y="495"/>
      <point x="742" y="394"/>
      <point x="742" y="215" type="curve"/>
      <point x="742" y="146"/>
      <point x="730" y="89"/>
      <point x="679" y="89" type="curve"/>
      <point x="625" y="89"/>
      <point x="610" y="144"/>
      <point x="610" y="214" type="curve"/>
      <point x="610" y="327"/>
      <point x="545" y="396"/>
      <point x="433" y="396" type="curve"/>
      <point x="312" y="396"/>
      <point x="244" y="330"/>
      <point x="244" y="212" type="curve"/>
      <point x="244" y="92"/>
      <point x="307" y="20"/>
      <point x="425" y="20" type="curve"/>
      <point x="530" y="20"/>
      <point x="580" y="90"/>
      <point x="598" y="199" type="curve"/>
      <point x="549" y="211"/>
      <point x="598" y="199"/>
      <point x="549" y="211" type="curve"/>
      <point x="530" y="137"/>
      <point x="505" y="80"/>
      <point x="435" y="80" type="curve"/>
      <point x="355" y="80"/>
      <point x="316" y="133"/>
      <point x="316" y="216" type="curve"/>
      <point x="316" y="291"/>
      <point x="355" y="335"/>
      <point x="427" y="335" type="curve"/>
      <point x="503" y="335"/>
      <point x="539" y="288"/>
      <point x="539" y="211" type="curve"/>
      <point x="539" y="107"/>
      <point x="576" y="32"/>
      <point x="673" y="32" type="curve"/>
      <point x="774" y="32"/>
      <point x="813" y="109"/>
      <point x="813" y="218" type="curve"/>
      <point x="813" y="438"/>
      <point x="674" y="558"/>
      <point x="448" y="558" type="curve"/>
      <point x="207" y="558"/>
      <point x="54" y="439"/>
      <point x="54" y="206" type="curve"/>
      <point x="54" y="-25"/>
      <point x="207" y="-145"/>
      <point x="446" y="-145" type="curve"/>
      <point x="521" y="-145"/>
      <point x="573" y="-133"/>
      <point x="634" y="-102" type="curve"/>
      <point x="605" y="-50"/>
      <point x="634" y="-102"/>
    </contour>
  </outline>
</glyph>
<glyph name="B" format="1">
  <advance width="650"/>
  <unicode hex="0042"/>
  <outline>
    <contour>
      <point x="132" y="661" type="curve"/>
      <point x="204" y="661"/>
      <point x="269" y="661"/>
      <point x="342" y="661" type="curve"/>
      <point x="420" y="661"/>
      <point x="471" y="621"/>
      <point x="471" y="545" type="curve"/>
      <point x="471" y="469"/>
      <point x="403" y="438"/>
      <point x="322" y="438" type="curve"/>
      <point x="256" y="438"/>
      <point x="197" y="438"/>
      <point x="132" y="438" type="curve"/>
      <point x="132" y="394"/>
      <point x="132" y="420"/>
      <point x="132" y="377" type="curve"/>
      <point x="186" y="377"/>
      <point x="234" y="377"/>
      <point x="289" y="377" type="curve"/>
      <point x="412" y="377"/>
      <point x="549" y="417"/>
      <point x="549" y="544" type="curve"/>
      <point x="549" y="662"/>
      <point x="467" y="722"/>
      <point x="344" y="722" type="curve"/>
      <point x="271" y="722"/>
      <point x="205" y="722"/>
      <point x="132" y="722" type="curve"/>
      <point x="132" y="679"/>
      <point x="132" y="705"/>
    </contour>
    <contour>
      <point x="183" y="0" type="curve"/>
      <point x="183" y="241"/>
      <point x="183" y="481"/>
      <point x="183" y="722" type="curve"/>
      <point x="101" y="722"/>
      <point x="183" y="722"/>
      <point x="101" y="722" type="curve"/>
      <point x="101" y="481"/>
      <point x="101" y="241"/>
      <point x="101" y="0" type="curve"/>
      <point x="183" y="0"/>
      <point x="101" y="0"/>
    </contour>
    <contour>
      <point x="132" y="377" type="curve"/>
      <point x="197" y="377"/>
      <point x="256" y="377"/>
      <point x="322" y="377" type="curve"/>
      <point x="438" y="377"/>
      <point x="520" y="326"/>
      <point x="520" y="214" type="curve"/>
      <point x="520" y="111"/>
      <point x="450" y="61"/>
      <point x="342" y="61" type="curve"/>
      <point x="269" y="61"/>
      <point x="204" y="61"/>
      <point x="132" y="61" type="curve"/>
      <point x="132" y="17"/>
      <point x="132" y="43"/>
      <point x="132" y="0" type="curve"/>
      <point x="205" y="0"/>
      <point x="270" y="0"/>
      <point x="344" y="0" type="curve"/>
      <point x="497" y="0"/>
      <point x="598" y="69"/>
      <point x="598" y="213" type="curve"/>
      <point x="598" y="377"/>
      <point x="448" y="438"/>
      <point x="289" y="438" type="curve"/>
      <point x="235" y="438"/>
      <point x="186" y="438"/>
      <point x="132" y="438" type="curve"/>
      <point x="132" y="394"/>
      <point x="132" y="420"/>
    </contour>
  </outline>
</glyph>
<glyph name="D" format="1">
  <advance width="764"/>
  <unicode hex="0044"/>
  <outline>
    <contour>
      <point x="101" y="722" type="curve"/>
      <point x="101" y="481"/>
      <point x="101" y="241"/>
      <point x="101" y="0" type="curve"/>
      <point x="179" y="0"/>
      <point x="101" y="0"/>
      <point x="179" y="0" type="curve"/>
      <point x="179" y="241"/>
      <point x="179" y="481"/>
      <point x="179" y="722" type="curve"/>
      <point x="101" y="722"/>
      <point x="179" y="722"/>
    </contour>
    <contour>
      <point x="142" y="0" type="curve"/>
      <point x="210" y="0"/>
      <point x="274" y="0"/>
      <point x="342" y="0" type="curve"/>
      <point x="577" y="0"/>
      <point x="706" y="121"/>
      <point x="706" y="353" type="curve"/>
      <point x="706" y="595"/>
      <point x="575" y="722"/>
      <point x="333" y="722" type="curve"/>
      <point x="268" y="722"/>
      <point x="207" y="722"/>
      <point x="142" y="722" type="curve"/>
      <point x="142" y="665"/>
      <point x="142" y="718"/>
      <point x="142" y="661" type="curve"/>
      <point x="206" y="661"/>
      <point x="265" y="661"/>
      <point x="329" y="661" type="curve"/>
      <point x="528" y="661"/>
      <point x="629" y="551"/>
      <point x="629" y="352" type="curve"/>
      <point x="629" y="165"/>
      <point x="535" y="61"/>
      <point x="349" y="61" type="curve"/>
      <point x="279" y="61"/>
      <point x="213" y="61"/>
      <point x="142" y="61" type="curve"/>
      <point x="142" y="4"/>
      <point x="142" y="57"/>
    </contour>
    <contour>
      <point x="316" y="806" type="move" name="top"/>
    </contour>
  </outline>
</glyph>
<glyph name="F" format="1">
  <advance width="579"/>
  <unicode hex="0046"/>
  <outline>
    <contour>
      <point x="145" y="343" type="curve"/>
      <point x="257" y="343"/>
      <point x="369" y="343"/>
      <point x="481" y="343" type="curve"/>
      <point x="481" y="404"/>
      <point x="481" y="343"/>
      <point x="481" y="404" type="curve"/>
      <point x="369" y="404"/>
      <point x="257" y="404"/>
      <point x="145" y="404" type="curve"/>
      <point x="145" y="343"/>
      <point x="145" y="404"/>
    </contour>
    <contour>
      <point x="180" y="0" type="curve"/>
      <point x="180" y="722" type="line"/>
      <point x="102" y="722"/>
      <point x="180" y="722"/>
      <point x="102" y="722" type="curve"/>
      <point x="102" y="481"/>
      <point x="102" y="241"/>
      <point x="102" y="0" type="curve"/>
      <point x="180" y="0"/>
      <point x="102" y="0"/>
    </contour>
    <contour>
      <point x="129" y="661" type="curve"/>
      <point x="272" y="661"/>
      <point x="414" y="661"/>
      <point x="557" y="661" type="curve"/>
      <point x="557" y="722"/>
      <point x="557" y="661"/>
      <point x="557" y="722" type="curve"/>
      <point x="414" y="722"/>
      <point x="272" y="722"/>
      <point x="129" y="722" type="curve"/>
      <point x="129" y="661"/>
      <point x="129" y="722"/>
    </contour>
  </outline>
</glyph>
<glyph name="G" format="1">
  <advance width="807"/>
  <unicode hex="0047"/>
  <outline>
    <contour>
      <point x="724" y="341" type="curve"/>
      <point x="647" y="341"/>
      <point x="570" y="341"/>
      <point x="494" y="341" type="curve"/>
      <point x="494" y="281"/>
      <point x="494" y="341"/>
      <point x="494" y="281" type="curve"/>
      <point x="570" y="281"/>
      <point x="647" y="281"/>
      <point x="724" y="281" type="curve"/>
      <point x="724" y="341"/>
      <point x="724" y="281"/>
    </contour>
    <contour>
      <point x="746" y="78" type="curve"/>
      <point x="746" y="166"/>
      <point x="746" y="253"/>
      <point x="746" y="341" type="curve"/>
      <point x="675" y="341"/>
      <point x="746" y="341"/>
      <point x="675" y="341" type="curve"/>
      <point x="675" y="253"/>
      <point x="675" y="166"/>
      <point x="675" y="78" type="curve"/>
      <point x="746" y="78"/>
      <point x="675" y="78"/>
    </contour>
    <contour>
      <point x="728" y="643" type="curve"/>
      <point x="630" y="701"/>
      <point x="541" y="727"/>
      <point x="426" y="727" type="curve"/>
      <point x="193" y="727"/>
      <point x="56" y="596"/>
      <point x="56" y="363" type="curve"/>
      <point x="56" y="125"/>
      <point x="199" y="-5"/>
      <point x="438" y="-5" type="curve"/>
      <point x="560" y="-5"/>
      <point x="638" y="22"/>
      <point x="746" y="78" type="curve"/>
      <point x="706" y="124"/>
      <point x="746" y="78"/>
      <point x="706" y="124" type="curve"/>
      <point x="618" y="79"/>
      <point x="542" y="59"/>
      <point x="438" y="59" type="curve"/>
      <point x="243" y="59"/>
      <point x="135" y="172"/>
      <point x="135" y="369" type="curve"/>
      <point x="135" y="555"/>
      <point x="241" y="664"/>
      <point x="426" y="664" type="curve"/>
      <point x="526" y="664"/>
      <point x="603" y="642"/>
      <point x="693" y="591" type="curve"/>
      <point x="728" y="643"/>
      <point x="693" y="591"/>
    </contour>
    <contour>
      <point x="425" y="806" type="move" name="top"/>
    </contour>
    <contour>
      <point x="460" y="-17" type="move" name="bottom"/>
    </contour>
  </outline>
</glyph>
<glyph name="H" format="1">
  <advance width="805"/>
  <unicode hex="0048"/>
  <outline>
    <contour>
      <point x="179" y="0" type="curve"/>
      <point x="179" y="722" type="line"/>
      <point x="101" y="722"/>
      <point x="179" y="722"/>
      <point x="101" y="722" type="curve"/>
      <point x="101" y="481"/>
      <point x="101" y="241"/>
      <point x="101" y="0" type="curve"/>
      <point x="179" y="0"/>
      <point x="101" y="0"/>
    </contour>
    <contour>
      <point x="663" y="393" type="curve"/>
      <point x="488" y="393"/>
      <point x="314" y="393"/>
      <point x="140" y="393" type="curve"/>
      <point x="140" y="332"/>
      <point x="140" y="393"/>
      <point x="140" y="332" type="curve"/>
      <point x="314" y="332"/>
      <point x="488" y="332"/>
      <point x="663" y="332" type="curve"/>
      <point x="663" y="393"/>
      <point x="663" y="332"/>
    </contour>
    <contour>
      <point x="704" y="1" type="curve"/>
      <point x="704" y="227"/>
      <point x="704" y="495"/>
      <point x="704" y="721" type="curve"/>
      <point x="626" y="721"/>
      <point x="704" y="721"/>
      <point x="626" y="721" type="curve"/>
      <point x="626" y="1" type="line"/>
      <point x="704" y="1"/>
      <point x="626" y="1"/>
    </contour>
  </outline>
</glyph>
<glyph name="I" format="1">
  <advance width="280"/>
  <unicode hex="0049"/>
  <outline>
    <contour>
      <point x="179" y="0" type="curve"/>
      <point x="179" y="241"/>
      <point x="179" y="481"/>
      <point x="179" y="722" type="curve"/>
      <point x="101" y="722"/>
      <point x="179" y="722"/>
      <point x="101" y="722" type="curve"/>
      <point x="101" y="481"/>
      <point x="101" y="241"/>
      <point x="101" y="0" type="curve"/>
      <point x="179" y="0"/>
      <point x="101" y="0"/>
    </contour>
    <contour>
      <point x="141" y="806" type="move" name="top"/>
    </contour>
    <contour>
      <point x="177" y="1" type="move" name="bottom"/>
    </contour>
  </outline>
</glyph>
<glyph name="J" format="1">
  <advance width="457"/>
  <unicode hex="004A"/>
  <outline>
    <contour>
      <point x="8" y="42" type="curve"/>
      <point x="42" y="20"/>
      <point x="88" y="-3"/>
      <point x="145" y="-3" type="curve"/>
      <point x="288" y="-3"/>
      <point x="363" y="78"/>
      <point x="363" y="229" type="curve"/>
      <point x="363" y="399"/>
      <point x="363" y="552"/>
      <point x="363" y="722" type="curve"/>
      <point x="289" y="722"/>
      <point x="359" y="722"/>
      <point x="285" y="722" type="curve"/>
      <point x="285" y="552"/>
      <point x="285" y="399"/>
      <point x="285" y="229" type="curve"/>
      <point x="285" y="126"/>
      <point x="243" y="58"/>
      <point x="145" y="58" type="curve"/>
      <point x="104" y="58"/>
      <point x="77" y="73"/>
      <point x="44" y="90" type="curve"/>
      <point x="11" y="45"/>
      <point x="42" y="87"/>
    </contour>
  </outline>
</glyph>
<glyph name="K" format="1">
  <advance width="631"/>
  <unicode hex="004B"/>
  <outline>
    <contour>
      <point x="498" y="722" type="curve"/>
      <point x="155" y="380" type="line"/>
      <point x="252" y="380"/>
      <point x="157" y="380"/>
      <point x="254" y="380" type="curve"/>
      <point x="599" y="722" type="line"/>
      <point x="504" y="722"/>
      <point x="592" y="722"/>
    </contour>
    <contour>
      <point x="179" y="0" type="curve"/>
      <point x="179" y="722" type="line"/>
      <point x="101" y="722"/>
      <point x="179" y="722"/>
      <point x="101" y="722" type="curve"/>
      <point x="101" y="481"/>
      <point x="101" y="241"/>
      <point x="101" y="0" type="curve"/>
      <point x="179" y="0"/>
      <point x="101" y="0"/>
    </contour>
    <contour>
      <point x="625" y="0" type="curve"/>
      <point x="254" y="380" type="line"/>
      <point x="157" y="380"/>
      <point x="252" y="380"/>
      <point x="155" y="380" type="curve"/>
      <point x="521" y="0" type="line"/>
      <point x="621" y="0"/>
      <point x="525" y="0"/>
    </contour>
    <contour>
      <point x="381" y="-20" type="move" name="bottom"/>
    </contour>
  </outline>
</glyph>
<glyph name="L" format="1">
  <advance width="590"/>
  <unicode hex="004C"/>
  <outline>
    <contour>
      <point x="179" y="0" type="curve"/>
      <point x="179" y="241"/>
      <point x="179" y="481"/>
      <point x="179" y="722" type="curve"/>
      <point x="101" y="722"/>
      <point x="179" y="722"/>
      <point x="101" y="722" type="curve"/>
      <point x="101" y="481"/>
      <point x="101" y="241"/>
      <point x="101" y="0" type="curve"/>
      <point x="179" y="0"/>
      <point x="101" y="0"/>
    </contour>
    <contour>
      <point x="139" y="0" type="curve"/>
      <point x="286" y="0"/>
      <point x="433" y="0"/>
      <point x="579" y="0" type="curve"/>
      <point x="579" y="61"/>
      <point x="579" y="0"/>
      <point x="579" y="61" type="curve"/>
      <point x="433" y="61"/>
      <point x="286" y="61"/>
      <point x="139" y="61" type="curve"/>
      <point x="139" y="0"/>
      <point x="139" y="61"/>
    </contour>
    <contour>
      <point x="141" y="806" type="move" name="top"/>
    </contour>
    <contour>
      <point x="326" y="-18" type="move" name="bottom"/>
    </contour>
  </outline>
</glyph>
<glyph name="M" format="1">
  <advance width="937"/>
  <unicode hex="004D"/>
  <outline>
    <contour>
      <point x="868" y="0" type="curve"/>
      <point x="846" y="241"/>
      <point x="822" y="481"/>
      <point x="801" y="722" type="curve"/>
      <point x="730" y="722"/>
      <point x="801" y="722"/>
      <point x="730" y="722" type="curve"/>
      <point x="751" y="481"/>
      <point x="769" y="241"/>
      <point x="790" y="0" type="curve"/>
      <point x="868" y="0"/>
      <point x="790" y="0"/>
    </contour>
    <contour>
      <point x="145" y="0" type="curve"/>
      <point x="165" y="241"/>
      <point x="185" y="481"/>
      <point x="204" y="722" type="curve"/>
      <point x="133" y="722"/>
      <point x="204" y="722"/>
      <point x="133" y="722" type="curve"/>
      <point x="112" y="481"/>
      <point x="92" y="241"/>
      <point x="71" y="0" type="curve"/>
      <point x="145" y="0"/>
      <point x="71" y="0"/>
    </contour>
    <contour>
      <point x="501" y="0" type="curve"/>
      <point x="404" y="241"/>
      <point x="306" y="481"/>
      <point x="208" y="722" type="curve"/>
      <point x="135" y="722"/>
      <point x="207" y="722"/>
      <point x="135" y="722" type="curve"/>
      <point x="233" y="481"/>
      <point x="330" y="241"/>
      <point x="427" y="0" type="curve"/>
      <point x="501" y="0"/>
      <point x="428" y="0"/>
    </contour>
    <contour>
      <point x="510" y="0" type="curve"/>
      <point x="606" y="241"/>
      <point x="702" y="481"/>
      <point x="797" y="722" type="curve"/>
      <point x="725" y="722"/>
      <point x="797" y="722"/>
      <point x="725" y="722" type="curve"/>
      <point x="628" y="481"/>
      <point x="531" y="241"/>
      <point x="435" y="0" type="curve"/>
      <point x="510" y="0"/>
      <point x="436" y="0"/>
    </contour>
  </outline>
</glyph>
<glyph name="O" format="1">
  <advance width="791"/>
  <unicode hex="004F"/>
  <outline>
    <contour>
      <point x="135" y="360" type="curve" name="FullCurve"/>
      <point x="135" y="538"/>
      <point x="219" y="664"/>
      <point x="392" y="664" type="curve" name="FullCurve"/>
      <point x="565" y="664"/>
      <point x="655" y="541"/>
      <point x="655" y="363" type="curve" name="FullCurve"/>
      <point x="655" y="186"/>
      <point x="570" y="59"/>
      <point x="398" y="59" type="curve" name="FullCurve"/>
      <point x="223" y="59"/>
      <point x="135" y="181"/>
      <point x="135" y="360" type="curve" name="FullCurve"/>
      <point x="57" y="360"/>
      <point x="135" y="360"/>
      <point x="57" y="360" type="curve" name="FullCurve"/>
      <point x="57" y="140"/>
      <point x="178" y="-5"/>
      <point x="394" y="-5" type="curve" name="FullCurve"/>
      <point x="612" y="-5"/>
      <point x="734" y="141"/>
      <point x="734" y="363" type="curve" name="FullCurve"/>
      <point x="734" y="582"/>
      <point x="613" y="727"/>
      <point x="397" y="727" type="curve" name="FullCurve"/>
      <point x="179" y="727"/>
      <point x="57" y="581"/>
      <point x="57" y="360" type="curve" name="FullCurve"/>
      <point x="135" y="360"/>
      <point x="57" y="360"/>
    </contour>
    <contour>
      <point x="396" y="806" type="move" name="top"/>
    </contour>
  </outline>
</glyph>
<glyph name="P" format="1">
  <advance width="601"/>
  <unicode hex="0050"/>
  <outline>
    <contour>
      <point x="131" y="312" type="curve"/>
      <point x="187" y="285"/>
      <point x="249" y="266"/>
      <point x="313" y="266" type="curve"/>
      <point x="460" y="269"/>
      <point x="558" y="342"/>
      <point x="558" y="488" type="curve"/>
      <point x="558" y="640"/>
      <point x="442" y="722"/>
      <point x="282" y="722" type="curve"/>
      <point x="236" y="722"/>
      <point x="190" y="722"/>
      <point x="144" y="722" type="curve"/>
      <point x="144" y="661"/>
      <point x="144" y="722"/>
      <point x="144" y="661" type="curve"/>
      <point x="186" y="661"/>
      <point x="229" y="661"/>
      <point x="271" y="661" type="curve"/>
      <point x="393" y="661"/>
      <point x="480" y="602"/>
      <point x="480" y="489" type="curve"/>
      <point x="480" y="385"/>
      <point x="410" y="326"/>
      <point x="307" y="326" type="curve"/>
      <point x="249" y="326"/>
      <point x="208" y="340"/>
      <point x="155" y="365" type="curve"/>
      <point x="131" y="312"/>
      <point x="155" y="364"/>
    </contour>
    <contour>
      <point x="179" y="0" type="curve"/>
      <point x="179" y="241"/>
      <point x="179" y="481"/>
      <point x="179" y="722" type="curve"/>
      <point x="101" y="722"/>
      <point x="179" y="722"/>
      <point x="101" y="722" type="curve"/>
      <point x="101" y="481"/>
      <point x="101" y="241"/>
      <point x="101" y="0" type="curve"/>
      <point x="179" y="0"/>
      <point x="101" y="0"/>
    </contour>
  </outline>
</glyph>
<glyph name="Q" format="1">
  <advance width="866"/>
  <unicode hex="0051"/>
  <outline>
    <contour>
      <point x="372" y="14" type="curve"/>
      <point x="485" y="-168"/>
      <point x="613" y="-227"/>
      <point x="817" y="-227" type="curve"/>
      <point x="817" y="-164"/>
      <point x="817" y="-227"/>
      <point x="817" y="-164" type="curve"/>
      <point x="644" y="-164"/>
      <point x="537" y="-112"/>
      <point x="439" y="44" type="curve"/>
      <point x="372" y="14"/>
      <point x="439" y="44"/>
    </contour>
    <contour>
      <point x="135" y="360" type="curve"/>
      <point x="135" y="538"/>
      <point x="224" y="661"/>
      <point x="395" y="661" type="curve"/>
      <point x="567" y="661"/>
      <point x="658" y="540"/>
      <point x="658" y="362" type="curve"/>
      <point x="658" y="184"/>
      <point x="571" y="59"/>
      <point x="400" y="59" type="curve"/>
      <point x="226" y="59"/>
      <point x="135" y="181"/>
      <point x="135" y="360" type="curve"/>
      <point x="57" y="360"/>
      <point x="135" y="360"/>
      <point x="57" y="360" type="curve"/>
      <point x="57" y="140"/>
      <point x="181" y="-5"/>
      <point x="396" y="-5" type="curve"/>
      <point x="613" y="-5"/>
      <point x="736" y="143"/>
      <point x="736" y="365" type="curve"/>
      <point x="736" y="584"/>
      <point x="614" y="729"/>
      <point x="400" y="729" type="curve"/>
      <point x="183" y="729"/>
      <point x="57" y="582"/>
      <point x="57" y="360" type="curve"/>
      <point x="135" y="360"/>
      <point x="57" y="360"/>
    </contour>
  </outline>
</glyph>
<glyph name="S" format="1">
  <advance width="579"/>
  <unicode hex="0053"/>
  <outline>
    <contour>
      <point x="43" y="56" type="curve"/>
      <point x="111" y="17"/>
      <point x="186" y="-5"/>
      <point x="272" y="-5" type="curve"/>
      <point x="420" y="-5"/>
      <point x="534" y="45"/>
      <point x="534" y="180" type="curve"/>
      <point x="534" y="303"/>
      <point x="434" y="347"/>
      <point x="318" y="400" type="curve"/>
      <point x="225" y="440"/>
      <point x="135" y="473"/>
      <point x="135" y="554" type="curve"/>
      <point x="134" y="629"/>
      <point x="198" y="667"/>
      <point x="282" y="667" type="curve"/>
      <point x="351" y="667"/>
      <point x="410" y="641"/>
      <point x="462" y="614" type="curve"/>
      <point x="494" y="659"/>
      <point x="464" y="617"/>
      <point x="496" y="662" type="curve"/>
      <point x="430" y="700"/>
      <point x="367" y="725"/>
      <point x="285" y="725" type="curve"/>
      <point x="154" y="725"/>
      <point x="56" y="668"/>
      <point x="56" y="550" type="curve"/>
      <point x="56" y="433"/>
      <point x="155" y="393"/>
      <point x="266" y="344" type="curve"/>
      <point x="363" y="301"/>
      <point x="456" y="265"/>
      <point x="456" y="179" type="curve"/>
      <point x="456" y="96"/>
      <point x="376" y="58"/>
      <point x="276" y="58" type="curve"/>
      <point x="204" y="58"/>
      <point x="138" y="82"/>
      <point x="81" y="113" type="curve"/>
      <point x="45" y="59"/>
      <point x="79" y="110"/>
    </contour>
    <contour>
      <point x="285" y="806" type="move" name="top"/>
    </contour>
    <contour>
      <point x="300" y="-18" type="move" name="bottom"/>
    </contour>
  </outline>
</glyph>
<glyph name="T" format="1">
  <advance width="668"/>
  <unicode hex="0054"/>
  <outline>
    <contour>
      <point x="373" y="0" type="curve"/>
      <point x="373" y="237"/>
      <point x="373" y="473"/>
      <point x="373" y="710" type="curve"/>
      <point x="296" y="710"/>
      <point x="373" y="710"/>
      <point x="296" y="710" type="curve"/>
      <point x="295" y="473"/>
      <point x="296" y="237"/>
      <point x="296" y="0" type="curve"/>
      <point x="373" y="0"/>
      <point x="296" y="0"/>
    </contour>
    <contour>
      <point x="11" y="657" type="curve"/>
      <point x="226" y="657"/>
      <point x="442" y="657"/>
      <point x="658" y="657" type="curve"/>
      <point x="658" y="724"/>
      <point x="658" y="655"/>
      <point x="658" y="722" type="curve"/>
      <point x="442" y="722"/>
      <point x="226" y="722"/>
      <point x="11" y="722" type="curve"/>
      <point x="11" y="655"/>
      <point x="11" y="724"/>
    </contour>
    <contour>
      <point x="332" y="806" type="move" name="top"/>
    </contour>
    <contour>
      <point x="360" y="-20" type="move" name="bottom"/>
    </contour>
  </outline>
</glyph>
<glyph name="U" format="1">
  <advance width="781"/>
  <unicode hex="0055"/>
  <outline>
    <contour>
      <point x="93" y="721" type="curve"/>
      <point x="93" y="569"/>
      <point x="93" y="427"/>
      <point x="93" y="274" type="curve"/>
      <point x="93" y="83"/>
      <point x="194" y="-5"/>
      <point x="390" y="-5" type="curve"/>
      <point x="586" y="-5"/>
      <point x="689" y="84"/>
      <point x="689" y="275" type="curve"/>
      <point x="689" y="427"/>
      <point x="689" y="569"/>
      <point x="689" y="721" type="curve"/>
      <point x="622" y="721"/>
      <point x="684" y="721"/>
      <point x="617" y="721" type="curve"/>
      <point x="617" y="565"/>
      <point x="617" y="423"/>
      <point x="617" y="267" type="curve"/>
      <point x="617" y="129"/>
      <point x="539" y="62"/>
      <point x="397" y="62" type="curve"/>
      <point x="242" y="62"/>
      <point x="164" y="133"/>
      <point x="164" y="285" type="curve"/>
      <point x="164" y="434"/>
      <point x="164" y="573"/>
      <point x="164" y="721" type="curve"/>
      <point x="97" y="721"/>
      <point x="160" y="721"/>
    </contour>
    <contour>
      <point x="395" y="806" type="move" name="top"/>
    </contour>
    <contour>
      <point x="420" y="-17" type="move" name="bottom"/>
    </contour>
  </outline>
</glyph>
<glyph name="V" format="1">
  <advance width="694"/>
  <unicode hex="0056"/>
  <outline>
    <contour>
      <point x="601" y="722" type="curve"/>
      <point x="505" y="481"/>
      <point x="409" y="241"/>
      <point x="314" y="0" type="curve"/>
      <point x="395" y="0"/>
      <point x="311" y="0"/>
      <point x="391" y="0" type="curve"/>
      <point x="488" y="241"/>
      <point x="584" y="481"/>
      <point x="681" y="722" type="curve"/>
      <point x="601" y="722"/>
      <point x="681" y="722"/>
    </contour>
    <contour>
      <point x="10" y="722" type="curve"/>
      <point x="108" y="481"/>
      <point x="206" y="241"/>
      <point x="304" y="0" type="curve"/>
      <point x="385" y="0"/>
      <point x="302" y="0"/>
      <point x="383" y="0" type="curve"/>
      <point x="286" y="241"/>
      <point x="189" y="481"/>
      <point x="92" y="722" type="curve"/>
      <point x="10" y="722"/>
      <point x="92" y="722"/>
    </contour>
  </outline>
</glyph>
<glyph name="W" format="1">
  <advance width="921"/>
  <unicode hex="0057"/>
  <outline>
    <contour>
      <point x="292" y="0" type="curve"/>
      <point x="362" y="241"/>
      <point x="431" y="481"/>
      <point x="500" y="722" type="curve"/>
      <point x="427" y="722"/>
      <point x="502" y="722"/>
      <point x="429" y="722" type="curve"/>
      <point x="362" y="481"/>
      <point x="295" y="241"/>
      <point x="228" y="0" type="curve"/>
      <point x="295" y="0"/>
      <point x="224" y="0"/>
    </contour>
    <contour>
      <point x="438" y="722" type="curve"/>
      <point x="501" y="481"/>
      <point x="562" y="241"/>
      <point x="625" y="0" type="curve"/>
      <point x="693" y="0"/>
      <point x="620" y="0"/>
      <point x="688" y="0" type="curve"/>
      <point x="629" y="242"/>
      <point x="570" y="481"/>
      <point x="508" y="722" type="curve"/>
      <point x="436" y="722"/>
      <point x="511" y="722"/>
    </contour>
    <contour>
      <point x="28" y="722" type="curve"/>
      <point x="91" y="481"/>
      <point x="155" y="241"/>
      <point x="218" y="0" type="curve"/>
      <point x="286" y="0"/>
      <point x="218" y="0"/>
      <point x="286" y="0" type="curve"/>
      <point x="225" y="241"/>
      <point x="164" y="481"/>
      <point x="103" y="722" type="curve"/>
      <point x="28" y="722"/>
      <point x="103" y="722"/>
    </contour>
    <contour>
      <point x="822" y="722" type="curve"/>
      <point x="758" y="481"/>
      <point x="696" y="241"/>
      <point x="633" y="0" type="curve"/>
      <point x="701" y="0"/>
      <point x="631" y="0"/>
      <point x="699" y="0" type="curve"/>
      <point x="765" y="241"/>
      <point x="831" y="481"/>
      <point x="897" y="722" type="curve"/>
      <point x="822" y="722"/>
      <point x="897" y="722"/>
    </contour>
  </outline>
</glyph>
<glyph name="X" format="1">
  <advance width="645"/>
  <unicode hex="0058"/>
  <outline>
    <contour>
      <point x="529" y="722" type="curve"/>
      <point x="358" y="485"/>
      <point x="176" y="237"/>
      <point x="5" y="0" type="curve"/>
      <point x="87" y="0"/>
      <point x="16" y="0"/>
      <point x="98" y="0" type="curve"/>
      <point x="267" y="237"/>
      <point x="446" y="484"/>
      <point x="616" y="722" type="curve"/>
      <point x="539" y="722"/>
      <point x="605" y="722"/>
    </contour>
    <contour>
      <point x="37" y="722" type="curve"/>
      <point x="206" y="485"/>
      <point x="381" y="237"/>
      <point x="549" y="0" type="curve"/>
      <point x="631" y="0"/>
      <point x="556" y="0"/>
      <point x="638" y="0" type="curve"/>
      <point x="468" y="239"/>
      <point x="291" y="483"/>
      <point x="122" y="722" type="curve"/>
      <point x="46" y="722"/>
      <point x="113" y="722"/>
    </contour>
  </outline>
</glyph>
<glyph name="Z" format="1">
  <advance width="661"/>
  <unicode hex="005A"/>
  <outline>
    <contour>
      <point x="61" y="661" type="curve"/>
      <point x="229" y="661"/>
      <point x="420" y="661"/>
      <point x="589" y="661" type="curve"/>
      <point x="582" y="668"/>
      <point x="572" y="667"/>
      <point x="566" y="674" type="curve"/>
      <point x="561" y="679"/>
      <point x="559" y="687"/>
      <point x="555" y="693" type="curve"/>
      <point x="549" y="687"/>
      <point x="541" y="689"/>
      <point x="536" y="682" type="curve"/>
      <point x="22" y="61" type="line"/>
      <point x="22" y="29"/>
      <point x="22" y="61"/>
      <point x="22" y="29" type="curve"/>
      <point x="22" y="0"/>
      <point x="22" y="29"/>
      <point x="22" y="0" type="curve"/>
      <point x="48" y="0"/>
      <point x="22" y="0"/>
      <point x="48" y="0" type="curve"/>
      <point x="650" y="0"/>
      <point x="449" y="0"/>
      <point x="650" y="0" type="curve"/>
      <point x="650" y="61"/>
      <point x="650" y="0"/>
      <point x="650" y="61" type="curve"/>
      <point x="449" y="61"/>
      <point x="249" y="61"/>
      <point x="48" y="61" type="curve"/>
      <point x="54" y="56"/>
      <point x="62" y="55"/>
      <point x="68" y="50" type="curve"/>
      <point x="74" y="44"/>
      <point x="76" y="35"/>
      <point x="82" y="29" type="curve"/>
      <point x="88" y="36"/>
      <point x="99" y="33"/>
      <point x="106" y="40" type="curve"/>
      <point x="621" y="661" type="line"/>
      <point x="621" y="693"/>
      <point x="621" y="661"/>
      <point x="621" y="693" type="curve"/>
      <point x="621" y="722"/>
      <point x="621" y="693"/>
      <point x="621" y="722" type="curve"/>
      <point x="584" y="722"/>
      <point x="621" y="722"/>
      <point x="584" y="722" type="curve"/>
      <point x="417" y="722"/>
      <point x="228" y="722"/>
      <point x="61" y="722" type="curve"/>
      <point x="61" y="661"/>
      <point x="61" y="722"/>
    </contour>
    <contour>
      <point x="341" y="806" type="move" name="top"/>
    </contour>
  </outline>
</glyph>
<glyph name="bracketleft" format="1">
  <advance width="303"/>
  <unicode hex="005B"/>
  <outline>
    <contour>
      <point x="270" y="770" type="curve"/>
      <point x="217" y="770"/>
      <point x="164" y="770"/>
      <point x="111" y="770" type="curve"/>
      <point x="102" y="770"/>
      <point x="87" y="770"/>
      <point x="79" y="770" type="curve"/>
      <point x="79" y="762"/>
      <point x="79" y="751"/>
      <point x="79" y="743" type="curve"/>
      <point x="79" y="464"/>
      <point x="79" y="185"/>
      <point x="79" y="-93" type="curve"/>
      <point x="79" y="-101"/>
      <point x="79" y="-110"/>
      <point x="79" y="-119" type="curve"/>
      <point x="87" y="-119"/>
      <point x="101" y="-119"/>
      <point x="110" y="-119" type="curve"/>
      <point x="163" y="-119"/>
      <point x="216" y="-119"/>
      <point x="270" y="-119" type="curve"/>
      <point x="270" y="-52"/>
      <point x="270" y="-119"/>
      <point x="270" y="-52" type="curve"/>
      <point x="216" y="-52"/>
      <point x="163" y="-52"/>
      <point x="110" y="-52" type="curve"/>
      <point x="157" y="-52"/>
      <point x="110" y="-52"/>
      <point x="157" y="-52" type="curve"/>
      <point x="157" y="-93"/>
      <point x="157" y="-52"/>
      <point x="157" y="-93" type="curve"/>
      <point x="157" y="185"/>
      <point x="157" y="464"/>
      <point x="157" y="743" type="curve"/>
      <point x="157" y="704"/>
      <point x="157" y="743"/>
      <point x="157" y="704" type="curve"/>
      <point x="111" y="704"/>
      <point x="157" y="704"/>
      <point x="111" y="704" type="curve"/>
      <point x="164" y="704"/>
      <point x="217" y="704"/>
      <point x="270" y="704" type="curve"/>
      <point x="270" y="770"/>
      <point x="270" y="704"/>
    </contour>
  </outline>
</glyph>
<glyph name="backslash" format="1">
  <advance width="545"/>
  <unicode hex="005C"/>
  <outline>
    <contour>
      <point x="518" y="-68" type="curve"/>
      <point x="381" y="236"/>
      <point x="245" y="540"/>
      <point x="109" y="844" type="curve"/>
      <point x="27" y="844"/>
      <point x="109" y="844"/>
      <point x="27" y="844" type="curve"/>
      <point x="163" y="540"/>
      <point x="300" y="236"/>
      <point x="436" y="-68" type="curve"/>
      <point x="518" y="-68"/>
      <point x="436" y="-68"/>
    </contour>
  </outline>
</glyph>
<glyph name="bracketright" format="1">
  <advance width="302"/>
  <unicode hex="005D"/>
  <outline>
    <contour>
      <point x="33" y="704" type="curve"/>
      <point x="86" y="704"/>
      <point x="139" y="704"/>
      <point x="192" y="704" type="curve"/>
      <point x="184" y="710"/>
      <point x="174" y="713"/>
      <point x="167" y="720" type="curve"/>
      <point x="159" y="727"/>
      <point x="153" y="736"/>
      <point x="146" y="743" type="curve"/>
      <point x="146" y="464"/>
      <point x="146" y="185"/>
      <point x="146" y="-93" type="curve"/>
      <point x="154" y="-86"/>
      <point x="161" y="-78"/>
      <point x="169" y="-70" type="curve"/>
      <point x="176" y="-64"/>
      <point x="186" y="-59"/>
      <point x="193" y="-52" type="curve"/>
      <point x="140" y="-52"/>
      <point x="86" y="-52"/>
      <point x="33" y="-52" type="curve"/>
      <point x="32" y="-119"/>
      <point x="33" y="-52"/>
      <point x="32" y="-119" type="curve"/>
      <point x="86" y="-119"/>
      <point x="140" y="-119"/>
      <point x="193" y="-119" type="curve"/>
      <point x="224" y="-119"/>
      <point x="193" y="-119"/>
      <point x="224" y="-119" type="curve"/>
      <point x="224" y="-93"/>
      <point x="224" y="-119"/>
      <point x="224" y="-93" type="curve"/>
      <point x="224" y="185"/>
      <point x="224" y="464"/>
      <point x="224" y="743" type="curve"/>
      <point x="224" y="770"/>
      <point x="224" y="743"/>
      <point x="224" y="770" type="curve"/>
      <point x="192" y="770"/>
      <point x="224" y="770"/>
      <point x="192" y="770" type="curve"/>
      <point x="139" y="770"/>
      <point x="86" y="770"/>
      <point x="33" y="770" type="curve"/>
      <point x="33" y="704"/>
      <point x="33" y="770"/>
    </contour>
  </outline>
</glyph>
<glyph name="asciicircum" format="1">
  <advance width="539"/>
  <unicode hex="005E"/>
  <outline>
    <contour>
      <point x="126" y="460" type="curve"/>
      <point x="186" y="569"/>
      <point x="247" y="677"/>
      <point x="307" y="785" type="curve"/>
      <point x="230" y="785"/>
      <point x="307" y="785"/>
      <point x="229" y="785" type="curve"/>
      <point x="169" y="677"/>
      <point x="108" y="569"/>
      <point x="48" y="460" type="curve"/>
      <point x="125" y="460"/>
      <point x="48" y="460"/>
    </contour>
    <contour>
      <point x="492" y="460" type="curve"/>
      <point x="432" y="566"/>
      <point x="368" y="679"/>
      <point x="308" y="785" type="curve"/>
      <point x="231" y="785"/>
      <point x="307" y="785"/>
      <point x="230" y="785" type="curve"/>
      <point x="289" y="679"/>
      <point x="354" y="566"/>
      <point x="413" y="460" type="curve"/>
      <point x="491" y="460"/>
      <point x="414" y="460"/>
    </contour>
  </outline>
</glyph>
<glyph name="underscore" format="1">
  <advance width="711"/>
  <unicode hex="005F"/>
  <outline>
    <contour>
      <point x="0" y="-198" type="curve"/>
      <point x="237" y="-198"/>
      <point x="474" y="-198"/>
      <point x="711" y="-198" type="curve"/>
      <point x="711" y="-138"/>
      <point x="711" y="-198"/>
      <point x="711" y="-138" type="curve"/>
      <point x="474" y="-138"/>
      <point x="237" y="-138"/>
      <point x="0" y="-138" type="curve"/>
      <point x="0" y="-198"/>
      <point x="0" y="-138"/>
    </contour>
  </outline>
</glyph>
<glyph name="grave" format="1">
  <advance width="360"/>
  <unicode hex="0060"/>
  <outline>
    <contour>
      <point x="308" y="577" type="line"/>
      <point x="183" y="743" type="line"/>
      <point x="81" y="743" type="line"/>
      <point x="229" y="577" type="line"/>
    </contour>
    <contour>
      <point x="264" y="577" type="move" name="_top"/>
    </contour>
  </outline>
</glyph>
<glyph name="a" format="1">
  <advance width="566"/>
  <unicode hex="0061"/>
  <outline>
    <contour>
      <point x="485" y="0" type="curve"/>
      <point x="485" y="127"/>
      <point x="485" y="253"/>
      <point x="485" y="380" type="curve"/>
      <point x="485" y="500"/>
      <point x="403" y="538"/>
      <point x="281" y="538" type="curve"/>
      <point x="187" y="538"/>
      <point x="119" y="505"/>
      <point x="65" y="463" type="curve"/>
      <point x="96" y="412"/>
      <point x="66" y="462"/>
      <point x="97" y="411" type="curve"/>
      <point x="139" y="443"/>
      <point x="194" y="476"/>
      <point x="270" y="476" type="curve"/>
      <point x="354" y="476"/>
      <point x="407" y="451"/>
      <point x="407" y="366" type="curve"/>
      <point x="407" y="244"/>
      <point x="407" y="122"/>
      <point x="407" y="0" type="curve"/>
      <point x="485" y="0"/>
      <point x="407" y="0"/>
    </contour>
    <contour>
      <point x="443" y="331" type="curve"/>
      <point x="362" y="321"/>
      <point x="315" y="317"/>
      <point x="234" y="307" type="curve"/>
      <point x="125" y="292"/>
      <point x="46" y="258"/>
      <point x="46" y="150" type="curve"/>
      <point x="46" y="47"/>
      <point x="111" y="-5"/>
      <point x="221" y="-5" type="curve"/>
      <point x="338" y="-5"/>
      <point x="400" y="64"/>
      <point x="465" y="151" type="curve"/>
      <point x="425" y="185"/>
      <point x="465" y="152"/>
      <point x="426" y="185" type="curve"/>
      <point x="381" y="115"/>
      <point x="324" y="55"/>
      <point x="236" y="55" type="curve"/>
      <point x="163" y="55"/>
      <point x="123" y="88"/>
      <point x="123" y="152" type="curve"/>
      <point x="123" y="218"/>
      <point x="170" y="243"/>
      <point x="233" y="252" type="curve"/>
      <point x="317" y="262"/>
      <point x="363" y="268"/>
      <point x="447" y="279" type="curve"/>
      <point x="443" y="331"/>
      <point x="447" y="279"/>
    </contour>
    <contour>
      <point x="282" y="645" type="move" name="top"/>
    </contour>
    <contour>
      <point x="474" y="4" type="move" name="bottom"/>
    </contour>
  </outline>
</glyph>
<glyph name="b" format="1">
  <advance width="653"/>
  <unicode hex="0062"/>
  <outline>
    <contour>
      <point x="143" y="372" type="curve"/>
      <point x="184" y="423"/>
      <point x="253" y="475"/>
      <point x="343" y="475" type="curve"/>
      <point x="459" y="475"/>
      <point x="522" y="388"/>
      <point x="522" y="264" type="curve"/>
      <point x="523" y="145"/>
      <point x="456" y="57"/>
      <point x="343" y="58" type="curve"/>
      <point x="262" y="58"/>
      <point x="200" y="93"/>
      <point x="149" y="150" type="curve"/>
      <point x="117" y="128"/>
      <point x="137" y="140"/>
      <point x="105" y="117" type="curve"/>
      <point x="172" y="42"/>
      <point x="245" y="-5"/>
      <point x="353" y="-5" type="curve"/>
      <point x="508" y="-5"/>
      <point x="601" y="103"/>
      <point x="601" y="266" type="curve"/>
      <point x="601" y="429"/>
      <point x="509" y="538"/>
      <point x="353" y="538" type="curve"/>
      <point x="242" y="538"/>
      <point x="162" y="479"/>
      <point x="108" y="413" type="curve"/>
      <point x="134" y="387"/>
      <point x="117" y="398"/>
    </contour>
    <contour>
      <point x="163" y="0" type="curve"/>
      <point x="163" y="276"/>
      <point x="163" y="524"/>
      <point x="163" y="800" type="curve"/>
      <point x="108" y="800"/>
      <point x="141" y="800"/>
      <point x="85" y="800" type="curve"/>
      <point x="85" y="524"/>
      <point x="85" y="276"/>
      <point x="85" y="0" type="curve"/>
      <point x="141" y="0"/>
      <point x="108" y="0"/>
    </contour>
  </outline>
</glyph>
<glyph name="c" format="1">
  <advance width="549"/>
  <unicode hex="0063"/>
  <outline>
    <contour>
      <point x="509" y="471" type="curve"/>
      <point x="457" y="509"/>
      <point x="391" y="538"/>
      <point x="324" y="538" type="curve"/>
      <point x="151" y="538"/>
      <point x="52" y="443"/>
      <point x="52" y="267" type="curve"/>
      <point x="52" y="92"/>
      <point x="148" y="-5"/>
      <point x="321" y="-5" type="curve"/>
      <point x="397" y="-5"/>
      <point x="470" y="26"/>
      <point x="517" y="83" type="curve"/>
      <point x="469" y="126"/>
      <point x="517" y="83"/>
      <point x="469" y="126" type="curve"/>
      <point x="431" y="87"/>
      <point x="380" y="58"/>
      <point x="324" y="58" type="curve"/>
      <point x="198" y="58"/>
      <point x="130" y="134"/>
      <point x="130" y="267" type="curve"/>
      <point x="130" y="399"/>
      <point x="197" y="475"/>
      <point x="322" y="475" type="curve"/>
      <point x="373" y="475"/>
      <point x="422" y="457"/>
      <point x="467" y="428" type="curve"/>
      <point x="509" y="471"/>
      <point x="467" y="428"/>
    </contour>
    <contour>
      <point x="314" y="645" type="move" name="top"/>
    </contour>
    <contour>
      <point x="330" y="2" type="move" name="bottom"/>
    </contour>
  </outline>
</glyph>
<glyph name="f" format="1">
  <advance width="470"/>
  <unicode hex="0066"/>
  <outline>
    <contour>
      <point x="22" y="472" type="curve"/>
      <point x="444" y="472" type="line"/>
      <point x="444" y="533"/>
      <point x="444" y="472"/>
      <point x="444" y="533" type="curve"/>
      <point x="22" y="533" type="line"/>
      <point x="22" y="472"/>
      <point x="22" y="533"/>
    </contour>
    <contour>
      <point x="250" y="0" type="curve"/>
      <point x="250" y="624" type="line"/>
      <point x="250" y="697"/>
      <point x="286" y="746"/>
      <point x="356" y="746" type="curve"/>
      <point x="388" y="746"/>
      <point x="418" y="736"/>
      <point x="447" y="723" type="curve"/>
      <point x="478" y="771"/>
      <point x="447" y="723"/>
      <point x="478" y="771" type="curve"/>
      <point x="440" y="789"/>
      <point x="398" y="804"/>
      <point x="356" y="804" type="curve"/>
      <point x="243" y="804"/>
      <point x="171" y="736"/>
      <point x="172" y="624" type="curve"/>
      <point x="172" y="0" type="line"/>
      <point x="250" y="0"/>
      <point x="172" y="0"/>
    </contour>
  </outline>
</glyph>
<glyph name="g" format="1">
  <advance width="558"/>
  <unicode hex="0067"/>
  <outline>
    <contour>
      <point x="381" y="471" type="curve"/>
      <point x="542" y="545" type="line"/>
      <point x="539" y="550"/>
      <point x="514" y="598"/>
      <point x="510" y="603" type="curve"/>
      <point x="341" y="517" type="line"/>
      <point x="381" y="471"/>
      <point x="341" y="517"/>
    </contour>
    <contour>
      <point x="132" y="349" type="curve"/>
      <point x="132" y="429"/>
      <point x="192" y="478"/>
      <point x="276" y="478" type="curve"/>
      <point x="360" y="478"/>
      <point x="416" y="430"/>
      <point x="416" y="350" type="curve"/>
      <point x="416" y="273"/>
      <point x="359" y="228"/>
      <point x="276" y="228" type="curve"/>
      <point x="194" y="228"/>
      <point x="132" y="270"/>
      <point x="132" y="349" type="curve"/>
      <point x="54" y="346"/>
      <point x="132" y="349"/>
      <point x="54" y="346" type="curve"/>
      <point x="54" y="230"/>
      <point x="147" y="168"/>
      <point x="270" y="168" type="curve"/>
      <point x="398" y="168"/>
      <point x="494" y="232"/>
      <point x="494" y="352" type="curve"/>
      <point x="494" y="472"/>
      <point x="402" y="538"/>
      <point x="276" y="538" type="curve"/>
      <point x="147" y="538"/>
      <point x="54" y="468"/>
      <point x="54" y="346" type="curve"/>
      <point x="132" y="349"/>
      <point x="54" y="346"/>
    </contour>
    <contour>
      <point x="152" y="236" type="curve"/>
      <point x="98" y="208"/>
      <point x="58" y="172"/>
      <point x="58" y="111" type="curve"/>
      <point x="58" y="12"/>
      <point x="155" y="-13"/>
      <point x="264" y="-22" type="curve"/>
      <point x="371" y="-30"/>
      <point x="475" y="-40"/>
      <point x="475" y="-133" type="curve"/>
      <point x="475" y="-219"/>
      <point x="380" y="-244"/>
      <point x="275" y="-244" type="curve"/>
      <point x="175" y="-244"/>
      <point x="90" y="-209"/>
      <point x="90" y="-120" type="curve"/>
      <point x="90" y="-55"/>
      <point x="129" y="-16"/>
      <point x="187" y="7" type="curve"/>
      <point x="148" y="44"/>
      <point x="187" y="7"/>
      <point x="148" y="44" type="curve"/>
      <point x="69" y="14"/>
      <point x="12" y="-36"/>
      <point x="12" y="-123" type="curve"/>
      <point x="12" y="-254"/>
      <point x="129" y="-304"/>
      <point x="271" y="-304" type="curve"/>
      <point x="419" y="-304"/>
      <point x="549" y="-263"/>
      <point x="546" y="-127" type="curve"/>
      <point x="546" y="3"/>
      <point x="418" y="25"/>
      <point x="278" y="36" type="curve"/>
      <point x="204" y="40"/>
      <point x="136" y="54"/>
      <point x="136" y="117" type="curve"/>
      <point x="136" y="155"/>
      <point x="157" y="179"/>
      <point x="190" y="198" type="curve"/>
      <point x="152" y="236"/>
      <point x="190" y="198"/>
    </contour>
    <contour>
      <point x="273" y="645" type="move" name="top"/>
    </contour>
  </outline>
</glyph>
<glyph name="h" format="1">
  <advance width="631"/>
  <unicode hex="0068"/>
  <outline>
    <contour>
      <point x="146" y="324" type="curve"/>
      <point x="177" y="410"/>
      <point x="252" y="476"/>
      <point x="339" y="476" type="curve"/>
      <point x="431" y="476"/>
      <point x="474" y="417"/>
      <point x="474" y="323" type="curve"/>
      <point x="474" y="215"/>
      <point x="474" y="109"/>
      <point x="474" y="0" type="curve"/>
      <point x="552" y="0"/>
      <point x="474" y="0"/>
      <point x="552" y="0" type="curve"/>
      <point x="552" y="111"/>
      <point x="552" y="222"/>
      <point x="552" y="333" type="curve"/>
      <point x="552" y="464"/>
      <point x="486" y="537"/>
      <point x="355" y="537" type="curve"/>
      <point x="245" y="537"/>
      <point x="150" y="464"/>
      <point x="114" y="355" type="curve"/>
      <point x="147" y="323"/>
      <point x="112" y="355"/>
    </contour>
    <contour>
      <point x="163" y="0" type="curve"/>
      <point x="163" y="267"/>
      <point x="163" y="533"/>
      <point x="163" y="800" type="curve"/>
      <point x="85" y="800"/>
      <point x="163" y="800"/>
      <point x="85" y="800" type="curve"/>
      <point x="85" y="533"/>
      <point x="85" y="267"/>
      <point x="85" y="0" type="curve"/>
      <point x="163" y="0"/>
      <point x="85" y="0"/>
    </contour>
  </outline>
</glyph>
<glyph name="i" format="1">
  <advance width="257"/>
  <unicode hex="0069"/>
  <outline>
    <contour>
      <point x="169" y="0" type="curve"/>
      <point x="169" y="178"/>
      <point x="169" y="355"/>
      <point x="169" y="533" type="curve"/>
      <point x="87" y="533"/>
      <point x="169" y="533"/>
      <point x="87" y="533" type="curve"/>
      <point x="87" y="355"/>
      <point x="87" y="178"/>
      <point x="87" y="0" type="curve"/>
      <point x="169" y="0"/>
      <point x="87" y="0"/>
    </contour>
    <contour>
      <point x="174" y="685" type="curve"/>
      <point x="174" y="713"/>
      <point x="154" y="727"/>
      <point x="126" y="727" type="curve"/>
      <point x="98" y="727"/>
      <point x="80" y="711"/>
      <point x="80" y="685" type="curve"/>
      <point x="166" y="685"/>
      <point x="88" y="685"/>
      <point x="174" y="685" type="curve"/>
      <point x="174" y="656"/>
      <point x="154" y="643"/>
      <point x="125" y="643" type="curve"/>
      <point x="97" y="643"/>
      <point x="80" y="657"/>
      <point x="80" y="685" type="curve"/>
      <point x="166" y="685"/>
      <point x="88" y="685"/>
    </contour>
    <contour>
      <point x="126" y="645" type="move" name="top"/>
    </contour>
    <contour>
      <point x="164" y="4" type="move" name="bottom"/>
    </contour>
  </outline>
</glyph>
<glyph name="j" format="1">
  <advance width="260"/>
  <unicode hex="006A"/>
  <outline>
    <contour>
      <point x="-47" y="-302" type="curve"/>
      <point x="-38" y="-303"/>
      <point x="-26" y="-304"/>
      <point x="-13" y="-304" type="curve"/>
      <point x="98" y="-304"/>
      <point x="180" y="-241"/>
      <point x="180" y="-132" type="curve"/>
      <point x="180" y="90"/>
      <point x="180" y="311"/>
      <point x="180" y="533" type="curve"/>
      <point x="102" y="533"/>
      <point x="180" y="533"/>
      <point x="102" y="533" type="curve"/>
      <point x="102" y="311"/>
      <point x="102" y="90"/>
      <point x="102" y="-132" type="curve"/>
      <point x="102" y="-199"/>
      <point x="57" y="-245"/>
      <point x="-10" y="-245" type="curve"/>
      <point x="-19" y="-245"/>
      <point x="-29" y="-244"/>
      <point x="-35" y="-243" type="curve"/>
      <point x="-46" y="-301"/>
      <point x="-36" y="-244"/>
    </contour>
    <contour>
      <point x="190" y="683" type="curve"/>
      <point x="190" y="711"/>
      <point x="170" y="726"/>
      <point x="142" y="726" type="curve"/>
      <point x="114" y="726"/>
      <point x="95" y="710"/>
      <point x="95" y="683" type="curve"/>
      <point x="182" y="683"/>
      <point x="103" y="683"/>
      <point x="190" y="683" type="curve"/>
      <point x="190" y="655"/>
      <point x="170" y="641"/>
      <point x="141" y="641" type="curve"/>
      <point x="113" y="641"/>
      <point x="95" y="656"/>
      <point x="95" y="683" type="curve"/>
      <point x="182" y="683"/>
      <point x="103" y="683"/>
    </contour>
  </outline>
</glyph>
<glyph name="k" format="1">
  <advance width="557"/>
  <unicode hex="006B"/>
  <outline>
    <contour>
      <point x="163" y="0" type="curve"/>
      <point x="163" y="800" type="line"/>
      <point x="85" y="800"/>
      <point x="163" y="800"/>
      <point x="85" y="800" type="curve"/>
      <point x="85" y="533"/>
      <point x="85" y="267"/>
      <point x="85" y="0" type="curve"/>
      <point x="163" y="0"/>
      <point x="85" y="0"/>
    </contour>
    <contour>
      <point x="415" y="533" type="curve"/>
      <point x="142" y="275" type="line"/>
      <point x="235" y="275"/>
      <point x="144" y="275"/>
      <point x="238" y="275" type="curve"/>
      <point x="515" y="533" type="line"/>
      <point x="419" y="533"/>
      <point x="511" y="533"/>
    </contour>
    <contour>
      <point x="542" y="0" type="curve"/>
      <point x="238" y="275" type="line"/>
      <point x="144" y="275"/>
      <point x="235" y="275"/>
      <point x="142" y="275" type="curve"/>
      <point x="440" y="0" type="line"/>
      <point x="536" y="0"/>
      <point x="446" y="0"/>
    </contour>
    <contour>
      <point x="348" y="-22" type="move" name="bottom"/>
    </contour>
  </outline>
</glyph>
<glyph name="m" format="1">
  <advance width="937"/>
  <unicode hex="006D"/>
  <outline>
    <contour>
      <point x="492" y="316" type="curve"/>
      <point x="528" y="405"/>
      <point x="579" y="476"/>
      <point x="663" y="476" type="curve"/>
      <point x="753" y="476"/>
      <point x="778" y="422"/>
      <point x="778" y="326" type="curve"/>
      <point x="778" y="218"/>
      <point x="778" y="109"/>
      <point x="778" y="0" type="curve"/>
      <point x="856" y="0"/>
      <point x="778" y="0"/>
      <point x="856" y="0" type="curve"/>
      <point x="856" y="111"/>
      <point x="856" y="222"/>
      <point x="856" y="333" type="curve"/>
      <point x="856" y="467"/>
      <point x="813" y="538"/>
      <point x="683" y="538" type="curve"/>
      <point x="573" y="538"/>
      <point x="502" y="462"/>
      <point x="460" y="348" type="curve"/>
      <point x="493" y="316"/>
      <point x="459" y="348"/>
    </contour>
    <contour>
      <point x="146" y="317" type="curve"/>
      <point x="181" y="406"/>
      <point x="231" y="476"/>
      <point x="316" y="476" type="curve"/>
      <point x="406" y="476"/>
      <point x="432" y="422"/>
      <point x="432" y="326" type="curve"/>
      <point x="432" y="218"/>
      <point x="432" y="109"/>
      <point x="432" y="0" type="curve"/>
      <point x="510" y="0"/>
      <point x="432" y="0"/>
      <point x="510" y="0" type="curve"/>
      <point x="510" y="111"/>
      <point x="510" y="222"/>
      <point x="510" y="333" type="curve"/>
      <point x="510" y="467"/>
      <point x="467" y="538"/>
      <point x="337" y="538" type="curve"/>
      <point x="225" y="538"/>
      <point x="160" y="465"/>
      <point x="113" y="349" type="curve"/>
      <point x="147" y="318"/>
      <point x="112" y="349"/>
    </contour>
    <contour>
      <point x="163" y="0" type="curve"/>
      <point x="163" y="178"/>
      <point x="163" y="355"/>
      <point x="163" y="533" type="curve"/>
      <point x="85" y="533"/>
      <point x="163" y="533"/>
      <point x="85" y="533" type="curve"/>
      <point x="85" y="355"/>
      <point x="85" y="178"/>
      <point x="85" y="0" type="curve"/>
      <point x="163" y="0"/>
      <point x="85" y="0"/>
    </contour>
  </outline>
</glyph>
<glyph name="n" format="1">
  <advance width="631"/>
  <unicode hex="006E"/>
  <outline>
    <contour>
      <point x="147" y="308" type="curve"/>
      <point x="175" y="405"/>
      <point x="247" y="475"/>
      <point x="336" y="475" type="curve"/>
      <point x="427" y="475"/>
      <point x="473" y="419"/>
      <point x="473" y="326" type="curve"/>
      <point x="473" y="216"/>
      <point x="473" y="111"/>
      <point x="473" y="0" type="curve"/>
      <point x="529" y="0"/>
      <point x="496" y="0"/>
      <point x="552" y="0" type="curve"/>
      <point x="552" y="113"/>
      <point x="552" y="220"/>
      <point x="552" y="333" type="curve"/>
      <point x="552" y="463"/>
      <point x="487" y="538"/>
      <point x="357" y="538" type="curve"/>
      <point x="241" y="538"/>
      <point x="148" y="465"/>
      <point x="113" y="340" type="curve"/>
      <point x="135" y="316"/>
      <point x="124" y="332"/>
    </contour>
    <contour>
      <point x="163" y="0" type="curve"/>
      <point x="163" y="178"/>
      <point x="163" y="355"/>
      <point x="163" y="533" type="curve"/>
      <point x="85" y="533"/>
      <point x="163" y="533"/>
      <point x="85" y="533" type="curve"/>
      <point x="85" y="355"/>
      <point x="85" y="178"/>
      <point x="85" y="0" type="curve"/>
      <point x="163" y="0"/>
      <point x="85" y="0"/>
    </contour>
    <contour>
      <point x="326" y="645" type="move" name="top"/>
    </contour>
    <contour>
      <point x="349" y="-12" type="move" name="bottom"/>
    </contour>
  </outline>
</glyph>
<glyph name="p" format="1">
  <advance width="653"/>
  <unicode hex="0070"/>
  <outline>
    <contour>
      <point x="141" y="361" type="curve"/>
      <point x="182" y="424"/>
      <point x="255" y="478"/>
      <point x="345" y="478" type="curve"/>
      <point x="463" y="478"/>
      <point x="524" y="391"/>
      <point x="524" y="270" type="curve"/>
      <point x="527" y="145"/>
      <point x="463" y="55"/>
      <point x="344" y="56" type="curve"/>
      <point x="262" y="56"/>
      <point x="202" y="91"/>
      <point x="143" y="147" type="curve"/>
      <point x="117" y="123"/>
      <point x="134" y="133"/>
      <point x="108" y="110" type="curve"/>
      <point x="175" y="37"/>
      <point x="251" y="-5"/>
      <point x="354" y="-5" type="curve"/>
      <point x="516" y="-5"/>
      <point x="602" y="111"/>
      <point x="602" y="274" type="curve"/>
      <point x="602" y="429"/>
      <point x="515" y="539"/>
      <point x="358" y="539" type="curve"/>
      <point x="249" y="539"/>
      <point x="165" y="482"/>
      <point x="113" y="408" type="curve"/>
      <point x="134" y="373"/>
      <point x="119" y="396"/>
    </contour>
    <contour>
      <point x="163" y="-300" type="curve"/>
      <point x="163" y="-22"/>
      <point x="163" y="255"/>
      <point x="163" y="533" type="curve"/>
      <point x="85" y="533"/>
      <point x="163" y="533"/>
      <point x="85" y="533" type="curve"/>
      <point x="85" y="255"/>
      <point x="85" y="-22"/>
      <point x="85" y="-300" type="curve"/>
      <point x="163" y="-300"/>
      <point x="85" y="-300"/>
    </contour>
  </outline>
</glyph>
<glyph name="q" format="1">
  <advance width="659"/>
  <unicode hex="0071"/>
  <outline>
    <contour>
      <point x="546" y="416" type="curve"/>
      <point x="483" y="493"/>
      <point x="398" y="538"/>
      <point x="300" y="538" type="curve"/>
      <point x="138" y="538"/>
      <point x="52" y="426"/>
      <point x="52" y="264" type="curve"/>
      <point x="52" y="102"/>
      <point x="143" y="-5"/>
      <point x="304" y="-5" type="curve"/>
      <point x="406" y="-5"/>
      <point x="489" y="51"/>
      <point x="551" y="130" type="curve"/>
      <point x="526" y="156"/>
      <point x="540" y="143"/>
      <point x="515" y="168" type="curve"/>
      <point x="466" y="99"/>
      <point x="396" y="55"/>
      <point x="314" y="55" type="curve"/>
      <point x="195" y="55"/>
      <point x="130" y="142"/>
      <point x="130" y="267" type="curve"/>
      <point x="130" y="390"/>
      <point x="193" y="477"/>
      <point x="311" y="477" type="curve"/>
      <point x="391" y="477"/>
      <point x="463" y="439"/>
      <point x="518" y="375" type="curve"/>
      <point x="538" y="403"/>
      <point x="526" y="389"/>
    </contour>
    <contour>
      <point x="573" y="-300" type="curve"/>
      <point x="573" y="-15"/>
      <point x="573" y="248"/>
      <point x="573" y="533" type="curve"/>
      <point x="515" y="533"/>
      <point x="550" y="533"/>
      <point x="492" y="533" type="curve"/>
      <point x="492" y="248"/>
      <point x="492" y="-15"/>
      <point x="492" y="-300" type="curve"/>
      <point x="550" y="-300"/>
      <point x="515" y="-300"/>
    </contour>
  </outline>
</glyph>
<glyph name="r" format="1">
  <advance width="400"/>
  <unicode hex="0072"/>
  <outline>
    <contour>
      <point x="163" y="0" type="curve"/>
      <point x="163" y="184"/>
      <point x="163" y="349"/>
      <point x="163" y="533" type="curve"/>
      <point x="108" y="533"/>
      <point x="141" y="533"/>
      <point x="85" y="533" type="curve"/>
      <point x="85" y="349"/>
      <point x="85" y="184"/>
      <point x="85" y="0" type="curve"/>
      <point x="141" y="0"/>
      <point x="108" y="0"/>
    </contour>
    <contour>
      <point x="144" y="320" type="curve"/>
      <point x="193" y="432"/>
      <point x="282" y="471"/>
      <point x="389" y="471" type="curve"/>
      <point x="389" y="520"/>
      <point x="389" y="489"/>
      <point x="389" y="538" type="curve"/>
      <point x="267" y="538"/>
      <point x="168" y="476"/>
      <point x="118" y="363" type="curve"/>
      <point x="140" y="335"/>
      <point x="124" y="347"/>
    </contour>
    <contour>
      <point x="147" y="645" type="move" name="top"/>
    </contour>
    <contour>
      <point x="150" y="-13" type="move" name="bottom"/>
    </contour>
  </outline>
</glyph>
<glyph name="s" format="1">
  <advance width="494"/>
  <unicode hex="0073"/>
  <outline>
    <contour>
      <point x="40" y="49" type="curve"/>
      <point x="111" y="17"/>
      <point x="174" y="-5"/>
      <point x="248" y="-5" type="curve"/>
      <point x="369" y="-5"/>
      <point x="453" y="39"/>
      <point x="453" y="147" type="curve"/>
      <point x="452" y="253"/>
      <point x="362" y="274"/>
      <point x="254" y="305" type="curve" smooth="yes"/>
      <point x="185" y="325"/>
      <point x="129" y="346"/>
      <point x="129" y="405" type="curve"/>
      <point x="129" y="453"/>
      <point x="172" y="476"/>
      <point x="234" y="476" type="curve"/>
      <point x="285" y="476"/>
      <point x="341" y="459"/>
      <point x="379" y="437" type="curve"/>
      <point x="410" y="489"/>
      <point x="381" y="441"/>
      <point x="412" y="492" type="curve"/>
      <point x="369" y="517"/>
      <point x="299" y="538"/>
      <point x="237" y="538" type="curve"/>
      <point x="132" y="538"/>
      <point x="58" y="499"/>
      <point x="58" y="405" type="curve"/>
      <point x="58" y="309"/>
      <point x="129" y="275"/>
      <point x="229" y="247" type="curve" smooth="yes"/>
      <point x="306" y="224"/>
      <point x="378" y="211"/>
      <point x="378" y="145" type="curve"/>
      <point x="378" y="86"/>
      <point x="326" y="57"/>
      <point x="257" y="57" type="curve"/>
      <point x="192" y="57"/>
      <point x="141" y="76"/>
      <point x="76" y="104" type="curve"/>
      <point x="40" y="49"/>
      <point x="76" y="104"/>
    </contour>
    <contour>
      <point x="240" y="645" type="move" name="top"/>
    </contour>
    <contour>
      <point x="270" y="-19" type="move" name="bottom"/>
    </contour>
  </outline>
</glyph>
<glyph name="t" format="1">
  <advance width="432"/>
  <unicode hex="0074"/>
  <outline>
    <contour>
      <point x="20" y="472" type="curve"/>
      <point x="416" y="472" type="line"/>
      <point x="416" y="533"/>
      <point x="416" y="472"/>
      <point x="416" y="533" type="curve"/>
      <point x="20" y="533" type="line"/>
      <point x="20" y="472"/>
      <point x="20" y="533"/>
    </contour>
    <contour>
      <point x="391" y="81" type="curve"/>
      <point x="361" y="66"/>
      <point x="338" y="58"/>
      <point x="305" y="58" type="curve"/>
      <point x="245" y="58"/>
      <point x="219" y="93"/>
      <point x="219" y="158" type="curve"/>
      <point x="219" y="681" type="line"/>
      <point x="184" y="659"/>
      <point x="177" y="655"/>
      <point x="141" y="633" type="curve"/>
      <point x="141" y="155" type="line"/>
      <point x="141" y="50"/>
      <point x="195" y="-5"/>
      <point x="296" y="-5" type="curve"/>
      <point x="345" y="-5"/>
      <point x="378" y="8"/>
      <point x="418" y="27" type="curve"/>
      <point x="391" y="81"/>
      <point x="418" y="27"/>
    </contour>
    <contour>
      <point x="313" y="-18" type="move" name="bottom"/>
    </contour>
  </outline>
</glyph>
<glyph name="v" format="1">
  <advance width="575"/>
  <unicode hex="0076"/>
  <outline>
    <contour>
      <point x="24" y="533" type="curve"/>
      <point x="97" y="355"/>
      <point x="169" y="178"/>
      <point x="241" y="0" type="curve"/>
      <point x="317" y="0"/>
      <point x="241" y="0"/>
      <point x="317" y="0" type="curve"/>
      <point x="246" y="178"/>
      <point x="176" y="355"/>
      <point x="105" y="533" type="curve"/>
      <point x="24" y="533"/>
      <point x="105" y="533"/>
    </contour>
    <contour>
      <point x="477" y="533" type="curve"/>
      <point x="252" y="0" type="line"/>
      <point x="328" y="0"/>
      <point x="252" y="0"/>
      <point x="328" y="0" type="curve"/>
      <point x="404" y="178"/>
      <point x="480" y="355"/>
      <point x="556" y="533" type="curve"/>
      <point x="477" y="533"/>
      <point x="556" y="533"/>
    </contour>
  </outline>
</glyph>
<glyph name="w" format="1">
  <advance width="918"/>
  <unicode hex="0077"/>
  <outline>
    <contour>
      <point x="290" y="0" type="curve"/>
      <point x="361" y="178"/>
      <point x="432" y="355"/>
      <point x="502" y="533" type="curve"/>
      <point x="426" y="533"/>
      <point x="502" y="533"/>
      <point x="426" y="533" type="curve"/>
      <point x="356" y="355"/>
      <point x="286" y="178"/>
      <point x="217" y="0" type="curve"/>
      <point x="290" y="0"/>
      <point x="217" y="0"/>
    </contour>
    <contour>
      <point x="819" y="533" type="curve"/>
      <point x="754" y="355"/>
      <point x="689" y="178"/>
      <point x="624" y="0" type="curve"/>
      <point x="697" y="0"/>
      <point x="624" y="0"/>
      <point x="697" y="0" type="curve"/>
      <point x="764" y="178"/>
      <point x="829" y="355"/>
      <point x="896" y="533" type="curve"/>
      <point x="819" y="533"/>
      <point x="896" y="533"/>
    </contour>
    <contour>
      <point x="432" y="533" type="curve"/>
      <point x="496" y="355"/>
      <point x="559" y="178"/>
      <point x="623" y="0" type="curve"/>
      <point x="696" y="0"/>
      <point x="623" y="0"/>
      <point x="696" y="0" type="curve"/>
      <point x="633" y="178"/>
      <point x="570" y="355"/>
      <point x="507" y="533" type="curve"/>
      <point x="432" y="533"/>
      <point x="507" y="533"/>
    </contour>
    <contour>
      <point x="26" y="533" type="curve"/>
      <point x="89" y="355"/>
      <point x="153" y="178"/>
      <point x="216" y="0" type="curve"/>
      <point x="289" y="0"/>
      <point x="216" y="0"/>
      <point x="289" y="0" type="curve"/>
      <point x="227" y="178"/>
      <point x="164" y="355"/>
      <point x="102" y="533" type="curve"/>
      <point x="26" y="533"/>
      <point x="102" y="533"/>
    </contour>
  </outline>
</glyph>
<glyph name="x" format="1">
  <advance width="581"/>
  <unicode hex="0078"/>
  <outline>
    <contour>
      <point x="566" y="0" type="curve"/>
      <point x="481" y="103"/>
      <point x="196" y="430"/>
      <point x="111" y="533" type="curve"/>
      <point x="6" y="533"/>
      <point x="132" y="533"/>
      <point x="27" y="533" type="curve"/>
      <point x="111" y="430"/>
      <point x="392" y="103"/>
      <point x="476" y="0" type="curve"/>
      <point x="566" y="0"/>
      <point x="476" y="0"/>
    </contour>
    <contour>
      <point x="473" y="533" type="curve"/>
      <point x="388" y="430"/>
      <point x="98" y="103"/>
      <point x="13" y="0" type="curve"/>
      <point x="104" y="0"/>
      <point x="13" y="0"/>
      <point x="104" y="0" type="curve"/>
      <point x="189" y="103"/>
      <point x="474" y="430"/>
      <point x="559" y="533" type="curve"/>
      <point x="445" y="533"/>
      <point x="588" y="533"/>
    </contour>
  </outline>
</glyph>
<glyph name="y" format="1">
  <advance width="608"/>
  <unicode hex="0079"/>
  <outline>
    <contour>
      <point x="332" y="-2" type="curve"/>
      <point x="288" y="89"/>
      <point x="145" y="442"/>
      <point x="100" y="533" type="curve"/>
      <point x="19" y="533"/>
      <point x="100" y="533"/>
      <point x="19" y="533" type="curve"/>
      <point x="65" y="442"/>
      <point x="216" y="81"/>
      <point x="262" y="-9" type="curve"/>
      <point x="332" y="-9"/>
      <point x="262" y="-2"/>
    </contour>
    <contour>
      <point x="195" y="-300" type="curve"/>
      <point x="271" y="-160"/>
      <point x="522" y="393"/>
      <point x="598" y="533" type="curve"/>
      <point x="517" y="533"/>
      <point x="598" y="533"/>
      <point x="517" y="533" type="curve"/>
      <point x="441" y="393"/>
      <point x="190" y="-160"/>
      <point x="114" y="-300" type="curve"/>
      <point x="195" y="-300"/>
      <point x="114" y="-300"/>
    </contour>
    <contour>
      <point x="308" y="645" type="move" name="top"/>
    </contour>
  </outline>
</glyph>
<glyph name="braceleft" format="1">
  <advance width="296"/>
  <unicode hex="007B"/>
  <outline>
    <contour>
      <point x="263" y="-57" type="curve"/>
      <point x="204" y="-57"/>
      <point x="177" y="-16"/>
      <point x="177" y="43" type="curve"/>
      <point x="177" y="99"/>
      <point x="177" y="154"/>
      <point x="177" y="210" type="curve"/>
      <point x="177" y="308"/>
      <point x="119" y="371"/>
      <point x="22" y="371" type="curve"/>
      <point x="22" y="308"/>
      <point x="22" y="371"/>
      <point x="22" y="308" type="curve"/>
      <point x="77" y="308"/>
      <point x="106" y="272"/>
      <point x="106" y="216" type="curve"/>
      <point x="106" y="159"/>
      <point x="106" y="103"/>
      <point x="106" y="47" type="curve"/>
      <point x="106" y="-54"/>
      <point x="164" y="-117"/>
      <point x="263" y="-117" type="curve"/>
      <point x="263" y="-57"/>
      <point x="263" y="-117"/>
    </contour>
    <contour>
      <point x="263" y="796" type="curve"/>
      <point x="163" y="796"/>
      <point x="106" y="734"/>
      <point x="106" y="634" type="curve"/>
      <point x="106" y="577"/>
      <point x="106" y="519"/>
      <point x="106" y="461" type="curve"/>
      <point x="106" y="405"/>
      <point x="77" y="371"/>
      <point x="22" y="371" type="curve"/>
      <point x="22" y="308"/>
      <point x="22" y="371"/>
      <point x="22" y="308" type="curve"/>
      <point x="119" y="308"/>
      <point x="177" y="370"/>
      <point x="177" y="470" type="curve"/>
      <point x="177" y="525"/>
      <point x="177" y="579"/>
      <point x="177" y="634" type="curve"/>
      <point x="177" y="694"/>
      <point x="203" y="735"/>
      <point x="263" y="735" type="curve"/>
      <point x="263" y="796"/>
      <point x="263" y="735"/>
    </contour>
  </outline>
</glyph>
<glyph name="braceright" format="1">
  <advance width="296"/>
  <unicode hex="007D"/>
  <outline>
    <contour>
      <point x="32" y="-117" type="curve"/>
      <point x="131" y="-117"/>
      <point x="189" y="-54"/>
      <point x="189" y="47" type="curve"/>
      <point x="189" y="103"/>
      <point x="189" y="159"/>
      <point x="189" y="216" type="curve"/>
      <point x="189" y="272"/>
      <point x="218" y="308"/>
      <point x="273" y="308" type="curve"/>
      <point x="273" y="371"/>
      <point x="273" y="308"/>
      <point x="273" y="371" type="curve"/>
      <point x="176" y="371"/>
      <point x="118" y="308"/>
      <point x="118" y="210" type="curve"/>
      <point x="118" y="154"/>
      <point x="118" y="99"/>
      <point x="118" y="43" type="curve"/>
      <point x="118" y="-16"/>
      <point x="91" y="-57"/>
      <point x="32" y="-57" type="curve"/>
      <point x="32" y="-117"/>
      <point x="32" y="-57"/>
    </contour>
    <contour>
      <point x="32" y="735" type="curve"/>
      <point x="91" y="735"/>
      <point x="118" y="694"/>
      <point x="118" y="634" type="curve"/>
      <point x="118" y="579"/>
      <point x="118" y="525"/>
      <point x="118" y="470" type="curve"/>
      <point x="118" y="370"/>
      <point x="175" y="308"/>
      <point x="273" y="308" type="curve"/>
      <point x="273" y="371"/>
      <point x="273" y="308"/>
      <point x="273" y="371" type="curve"/>
      <point x="218" y="371"/>
      <point x="188" y="405"/>
      <point x="188" y="461" type="curve"/>
      <point x="188" y="519"/>
      <point x="188" y="577"/>
      <point x="188" y="634" type="curve"/>
      <point x="188" y="734"/>
      <point x="131" y="795"/>
      <point x="32" y="795" type="curve"/>
      <point x="32" y="735"/>
      <point x="32" y="795"/>
    </contour>
  </outline>
</glyph>
<glyph name="asciitilde" format="1">
  <advance width="704"/>
  <unicode hex="007E"/>
  <outline>
    <contour>
      <point x="571" y="359" type="curve"/>
      <point x="553" y="313"/>
      <point x="532" y="269"/>
      <point x="481" y="269" type="curve"/>
      <point x="437" y="269"/>
      <point x="409" y="282"/>
      <point x="374" y="309" type="curve"/>
      <point x="326" y="345"/>
      <point x="291" y="366"/>
      <point x="232" y="366" type="curve"/>
      <point x="141" y="366"/>
      <point x="98" y="319"/>
      <point x="72" y="234" type="curve"/>
      <point x="101" y="223"/>
      <point x="101" y="222"/>
      <point x="131" y="211" type="curve"/>
      <point x="147" y="264"/>
      <point x="172" y="304"/>
      <point x="228" y="304" type="curve"/>
      <point x="268" y="304"/>
      <point x="292" y="292"/>
      <point x="323" y="268" type="curve"/>
      <point x="374" y="229"/>
      <point x="412" y="209"/>
      <point x="477" y="208" type="curve"/>
      <point x="564" y="208"/>
      <point x="602" y="258"/>
      <point x="632" y="337" type="curve"/>
      <point x="601" y="348"/>
      <point x="602" y="349"/>
    </contour>
  </outline>
</glyph>
<glyph name="exclamdown" format="1">
  <advance width="250"/>
  <unicode hex="00A1"/>
  <outline>
    <contour>
      <point x="92" y="305" type="line"/>
      <point x="83" y="-188" type="line"/>
      <point x="169" y="-188" type="line"/>
      <point x="161" y="305" type="line"/>
    </contour>
    <contour>
      <point x="79" y="500" type="curve"/>
      <point x="79" y="473"/>
      <point x="99" y="459"/>
      <point x="126" y="459" type="curve"/>
      <point x="154" y="459"/>
      <point x="172" y="474"/>
      <point x="172" y="500" type="curve"/>
      <point x="87" y="500"/>
      <point x="165" y="500"/>
      <point x="79" y="500" type="curve"/>
      <point x="79" y="528"/>
      <point x="99" y="541"/>
      <point x="127" y="541" type="curve"/>
      <point x="154" y="541"/>
      <point x="172" y="527"/>
      <point x="172" y="500" type="curve"/>
      <point x="87" y="500"/>
      <point x="165" y="500"/>
    </contour>
  </outline>
</glyph>
<glyph name="cent" format="1">
  <advance width="662"/>
  <unicode hex="00A2"/>
  <outline>
    <contour>
      <point x="388" y="-53" type="curve"/>
      <point x="388" y="-13"/>
      <point x="388" y="27"/>
      <point x="388" y="67" type="curve"/>
      <point x="310" y="67"/>
      <point x="388" y="67"/>
      <point x="310" y="67" type="curve"/>
      <point x="310" y="27"/>
      <point x="310" y="-13"/>
      <point x="310" y="-53" type="curve"/>
      <point x="388" y="-53"/>
      <point x="310" y="-53"/>
    </contour>
    <contour>
      <point x="332" y="778" type="curve"/>
      <point x="332" y="742"/>
      <point x="332" y="706"/>
      <point x="332" y="670" type="curve"/>
      <point x="409" y="670"/>
      <point x="332" y="670"/>
      <point x="409" y="670" type="curve"/>
      <point x="409" y="706"/>
      <point x="409" y="742"/>
      <point x="409" y="778" type="curve"/>
      <point x="332" y="778"/>
      <point x="409" y="778"/>
    </contour>
    <contour>
      <point x="613" y="610" type="curve"/>
      <point x="535" y="662"/>
      <point x="470" y="682"/>
      <point x="377" y="682" type="curve"/>
      <point x="176" y="682"/>
      <point x="48" y="565"/>
      <point x="48" y="365" type="curve"/>
      <point x="48" y="174"/>
      <point x="156" y="50"/>
      <point x="344" y="50" type="curve"/>
      <point x="452" y="50"/>
      <point x="526" y="79"/>
      <point x="612" y="144" type="curve"/>
      <point x="567" y="193"/>
      <point x="612" y="144"/>
      <point x="567" y="193" type="curve"/>
      <point x="495" y="140"/>
      <point x="438" y="113"/>
      <point x="352" y="113" type="curve"/>
      <point x="205" y="113"/>
      <point x="126" y="216"/>
      <point x="126" y="368" type="curve"/>
      <point x="126" y="523"/>
      <point x="219" y="619"/>
      <point x="370" y="619" type="curve"/>
      <point x="450" y="619"/>
      <point x="505" y="601"/>
      <point x="574" y="558" type="curve"/>
      <point x="613" y="610"/>
      <point x="574" y="558"/>
    </contour>
  </outline>
</glyph>
<glyph name="sterling" format="1">
  <advance width="531"/>
  <unicode hex="00A3"/>
  <outline>
    <contour>
      <point x="463" y="61" type="curve"/>
      <point x="322" y="61"/>
      <point x="181" y="61"/>
      <point x="41" y="61" type="curve"/>
      <point x="41" y="0"/>
      <point x="41" y="61"/>
      <point x="41" y="0" type="curve"/>
      <point x="181" y="0"/>
      <point x="323" y="0"/>
      <point x="463" y="0" type="curve"/>
      <point x="463" y="61"/>
      <point x="463" y="0"/>
    </contour>
    <contour>
      <point x="412" y="406" type="curve"/>
      <point x="301" y="406"/>
      <point x="187" y="406"/>
      <point x="76" y="406" type="curve"/>
      <point x="76" y="346"/>
      <point x="76" y="406"/>
      <point x="76" y="346" type="curve"/>
      <point x="187" y="346"/>
      <point x="301" y="346"/>
      <point x="412" y="346" type="curve"/>
      <point x="412" y="406"/>
      <point x="412" y="346"/>
    </contour>
    <contour>
      <point x="485" y="669" type="curve"/>
      <point x="435" y="707"/>
      <point x="394" y="722"/>
      <point x="333" y="722" type="curve"/>
      <point x="167" y="722"/>
      <point x="109" y="562"/>
      <point x="153" y="370" type="curve"/>
      <point x="189" y="207"/>
      <point x="166" y="61"/>
      <point x="41" y="61" type="curve"/>
      <point x="41" y="0"/>
      <point x="41" y="61"/>
      <point x="41" y="0" type="curve"/>
      <point x="223" y="0"/>
      <point x="272" y="177"/>
      <point x="227" y="382" type="curve"/>
      <point x="194" y="531"/>
      <point x="221" y="664"/>
      <point x="329" y="664" type="curve"/>
      <point x="377" y="664"/>
      <point x="408" y="650"/>
      <point x="446" y="624" type="curve"/>
      <point x="485" y="669"/>
      <point x="446" y="624"/>
    </contour>
  </outline>
</glyph>
<glyph name="currency" format="1">
  <advance width="666"/>
  <unicode hex="00A4"/>
  <outline>
    <contour>
      <point x="218" y="313" type="curve"/>
      <point x="218" y="385"/>
      <point x="260" y="433"/>
      <point x="333" y="433" type="curve"/>
      <point x="408" y="433"/>
      <point x="448" y="387"/>
      <point x="448" y="313" type="curve"/>
      <point x="448" y="239"/>
      <point x="410" y="187"/>
      <point x="338" y="187" type="curve"/>
      <point x="260" y="187"/>
      <point x="218" y="236"/>
      <point x="218" y="313" type="curve"/>
      <point x="140" y="313"/>
      <point x="219" y="313"/>
      <point x="141" y="313" type="curve"/>
      <point x="141" y="196"/>
      <point x="217" y="127"/>
      <point x="336" y="127" type="curve"/>
      <point x="453" y="127"/>
      <point x="525" y="199"/>
      <point x="525" y="315" type="curve"/>
      <point x="525" y="426"/>
      <point x="453" y="493"/>
      <point x="340" y="493" type="curve"/>
      <point x="220" y="493"/>
      <point x="141" y="428"/>
      <point x="141" y="313" type="curve"/>
      <point x="219" y="313"/>
      <point x="140" y="313"/>
    </contour>
    <contour>
      <point x="459" y="373" type="line"/>
      <point x="607" y="513" type="line"/>
      <point x="547" y="574" type="line"/>
      <point x="406" y="425" type="line"/>
    </contour>
    <contour>
      <point x="408" y="201" type="line"/>
      <point x="548" y="52" type="line"/>
      <point x="609" y="113" type="line"/>
      <point x="460" y="253" type="line"/>
    </contour>
    <contour>
      <point x="206" y="254" type="line"/>
      <point x="57" y="113" type="line"/>
      <point x="117" y="53" type="line"/>
      <point x="258" y="201" type="line"/>
    </contour>
    <contour>
      <point x="261" y="426" type="line"/>
      <point x="120" y="575" type="line"/>
      <point x="60" y="514" type="line"/>
      <point x="208" y="374" type="line"/>
    </contour>
  </outline>
</glyph>
<glyph name="yen" format="1">
  <advance width="664"/>
  <unicode hex="00A5"/>
  <outline>
    <contour>
      <point x="567" y="399" type="curve"/>
      <point x="493" y="399"/>
      <point x="420" y="399"/>
      <point x="347" y="399" type="curve"/>
      <point x="347" y="333"/>
      <point x="347" y="399"/>
      <point x="347" y="333" type="curve"/>
      <point x="420" y="333"/>
      <point x="493" y="333"/>
      <point x="567" y="333" type="curve"/>
      <point x="567" y="399"/>
      <point x="567" y="333"/>
    </contour>
    <contour>
      <point x="316" y="399" type="curve"/>
      <point x="244" y="399"/>
      <point x="172" y="399"/>
      <point x="100" y="399" type="curve"/>
      <point x="100" y="333"/>
      <point x="100" y="399"/>
      <point x="100" y="333" type="curve"/>
      <point x="172" y="333"/>
      <point x="244" y="333"/>
      <point x="316" y="333" type="curve"/>
      <point x="316" y="399"/>
      <point x="316" y="333"/>
    </contour>
    <contour>
      <point x="567" y="264" type="curve"/>
      <point x="411" y="264"/>
      <point x="256" y="264"/>
      <point x="100" y="264" type="curve"/>
      <point x="100" y="197"/>
      <point x="100" y="264"/>
      <point x="100" y="197" type="curve"/>
      <point x="256" y="197"/>
      <point x="411" y="197"/>
      <point x="567" y="197" type="curve"/>
      <point x="567" y="264"/>
      <point x="567" y="197"/>
    </contour>
    <contour>
      <point x="40" y="722" type="curve"/>
      <point x="119" y="597"/>
      <point x="209" y="463"/>
      <point x="288" y="337" type="curve"/>
      <point x="368" y="337"/>
      <point x="284" y="338"/>
      <point x="364" y="338" type="curve"/>
      <point x="284" y="467"/>
      <point x="206" y="594"/>
      <point x="125" y="722" type="curve"/>
      <point x="52" y="722"/>
      <point x="114" y="722"/>
    </contour>
    <contour>
      <point x="547" y="722" type="curve"/>
      <point x="462" y="593"/>
      <point x="378" y="467"/>
      <point x="293" y="338" type="curve"/>
      <point x="373" y="338"/>
      <point x="290" y="337"/>
      <point x="370" y="337" type="curve"/>
      <point x="454" y="463"/>
      <point x="545" y="597"/>
      <point x="629" y="722" type="curve"/>
      <point x="555" y="722"/>
      <point x="621" y="722"/>
    </contour>
    <contour>
      <point x="372" y="0" type="curve"/>
      <point x="372" y="115"/>
      <point x="372" y="229"/>
      <point x="372" y="344" type="curve"/>
      <point x="287" y="344"/>
      <point x="372" y="344"/>
      <point x="287" y="344" type="curve"/>
      <point x="287" y="229"/>
      <point x="287" y="115"/>
      <point x="287" y="0" type="curve"/>
      <point x="372" y="0"/>
      <point x="287" y="0"/>
    </contour>
  </outline>
</glyph>
<glyph name="section" format="1">
  <advance width="520"/>
  <unicode hex="00A7"/>
  <outline>
    <contour>
      <point x="426" y="705" type="curve"/>
      <point x="369" y="735"/>
      <point x="326" y="750"/>
      <point x="263" y="750" type="curve"/>
      <point x="160" y="750"/>
      <point x="88" y="704"/>
      <point x="88" y="612" type="curve"/>
      <point x="88" y="528"/>
      <point x="147" y="487"/>
      <point x="230" y="459" type="curve"/>
      <point x="309" y="434"/>
      <point x="394" y="428"/>
      <point x="394" y="359" type="curve"/>
      <point x="394" y="295"/>
      <point x="346" y="264"/>
      <point x="276" y="251" type="curve"/>
      <point x="321" y="203"/>
      <point x="276" y="251"/>
      <point x="321" y="203" type="curve"/>
      <point x="413" y="224"/>
      <point x="471" y="272"/>
      <point x="471" y="361" type="curve"/>
      <point x="470" y="465"/>
      <point x="375" y="485"/>
      <point x="269" y="516" type="curve"/>
      <point x="212" y="534"/>
      <point x="164" y="557"/>
      <point x="164" y="612" type="curve"/>
      <point x="164" y="664"/>
      <point x="201" y="690"/>
      <point x="259" y="690" type="curve"/>
      <point x="311" y="690"/>
      <point x="344" y="679"/>
      <point x="393" y="656" type="curve"/>
      <point x="426" y="705"/>
      <point x="393" y="656"/>
    </contour>
    <contour>
      <point x="197" y="520" type="curve"/>
      <point x="112" y="495"/>
      <point x="52" y="452"/>
      <point x="52" y="367" type="curve"/>
      <point x="52" y="268"/>
      <point x="136" y="238"/>
      <point x="236" y="209" type="curve"/>
      <point x="301" y="187"/>
      <point x="365" y="172"/>
      <point x="365" y="113" type="curve"/>
      <point x="365" y="60"/>
      <point x="322" y="32"/>
      <point x="263" y="32" type="curve"/>
      <point x="204" y="32"/>
      <point x="166" y="48"/>
      <point x="113" y="78" type="curve"/>
      <point x="74" y="32"/>
      <point x="113" y="78"/>
      <point x="74" y="32" type="curve"/>
      <point x="136" y="-10"/>
      <point x="187" y="-28"/>
      <point x="260" y="-28" type="curve"/>
      <point x="364" y="-28"/>
      <point x="441" y="16"/>
      <point x="441" y="114" type="curve"/>
      <point x="440" y="202"/>
      <point x="374" y="240"/>
      <point x="285" y="265" type="curve"/>
      <point x="208" y="290"/>
      <point x="130" y="301"/>
      <point x="130" y="369" type="curve"/>
      <point x="130" y="429"/>
      <point x="173" y="456"/>
      <point x="235" y="475" type="curve"/>
      <point x="197" y="520"/>
      <point x="235" y="475"/>
    </contour>
  </outline>
</glyph>
<glyph name="dieresis" format="1">
  <advance width="422"/>
  <unicode hex="00A8"/>
  <outline>
    <contour>
      <point x="164" y="647" type="curve"/>
      <point x="164" y="674"/>
      <point x="144" y="688"/>
      <point x="117" y="688" type="curve"/>
      <point x="89" y="688"/>
      <point x="71" y="673"/>
      <point x="71" y="647" type="curve"/>
      <point x="156" y="647"/>
      <point x="79" y="647"/>
      <point x="164" y="647" type="curve"/>
      <point x="164" y="619"/>
      <point x="144" y="606"/>
      <point x="116" y="606" type="curve"/>
      <point x="89" y="606"/>
      <point x="71" y="620"/>
      <point x="71" y="647" type="curve"/>
      <point x="156" y="647"/>
      <point x="79" y="647"/>
    </contour>
    <contour>
      <point x="330" y="647" type="curve"/>
      <point x="330" y="674"/>
      <point x="310" y="688"/>
      <point x="282" y="688" type="curve"/>
      <point x="255" y="688"/>
      <point x="237" y="673"/>
      <point x="237" y="647" type="curve"/>
      <point x="322" y="647"/>
      <point x="244" y="647"/>
      <point x="330" y="647" type="curve"/>
      <point x="330" y="619"/>
      <point x="310" y="606"/>
      <point x="282" y="606" type="curve"/>
      <point x="255" y="606"/>
      <point x="237" y="620"/>
      <point x="237" y="647" type="curve"/>
      <point x="322" y="647"/>
      <point x="244" y="647"/>
    </contour>
    <contour>
      <point x="200" y="609" type="move" name="_top"/>
    </contour>
  </outline>
</glyph>
<glyph name="copyright" format="1">
  <advance width="811"/>
  <unicode hex="00A9"/>
  <outline>
    <contour>
      <point x="122" y="321" type="curve"/>
      <point x="122" y="489"/>
      <point x="238" y="595"/>
      <point x="409" y="595" type="curve"/>
      <point x="575" y="595"/>
      <point x="689" y="487"/>
      <point x="689" y="320" type="curve"/>
      <point x="689" y="157"/>
      <point x="579" y="51"/>
      <point x="416" y="51" type="curve"/>
      <point x="245" y="51"/>
      <point x="122" y="153"/>
      <point x="122" y="321" type="curve"/>
      <point x="56" y="321"/>
      <point x="122" y="321"/>
      <point x="57" y="321" type="curve"/>
      <point x="57" y="122"/>
      <point x="206" y="0"/>
      <point x="413" y="0" type="curve"/>
      <point x="613" y="0"/>
      <point x="753" y="125"/>
      <point x="753" y="322" type="curve"/>
      <point x="753" y="521"/>
      <point x="610" y="645"/>
      <point x="409" y="645" type="curve"/>
      <point x="204" y="645"/>
      <point x="57" y="522"/>
      <point x="57" y="321" type="curve"/>
      <point x="122" y="321"/>
      <point x="56" y="321"/>
    </contour>
    <contour>
      <point x="549" y="458" type="curve"/>
      <point x="510" y="489"/>
      <point x="468" y="504"/>
      <point x="415" y="504" type="curve"/>
      <point x="298" y="504"/>
      <point x="224" y="435"/>
      <point x="224" y="321" type="curve"/>
      <point x="224" y="210"/>
      <point x="290" y="143"/>
      <point x="400" y="143" type="curve"/>
      <point x="463" y="143"/>
      <point x="507" y="154"/>
      <point x="555" y="193" type="curve"/>
      <point x="521" y="230"/>
      <point x="555" y="193"/>
      <point x="521" y="230" type="curve"/>
      <point x="482" y="203"/>
      <point x="449" y="193"/>
      <point x="403" y="193" type="curve"/>
      <point x="327" y="193"/>
      <point x="288" y="245"/>
      <point x="288" y="323" type="curve"/>
      <point x="288" y="403"/>
      <point x="332" y="453"/>
      <point x="412" y="453" type="curve"/>
      <point x="447" y="453"/>
      <point x="477" y="446"/>
      <point x="515" y="425" type="curve"/>
      <point x="551" y="459"/>
      <point x="513" y="424"/>
    </contour>
  </outline>
</glyph>
<glyph name="ordfeminine" format="1">
  <advance width="421"/>
  <unicode hex="00AA"/>
  <outline>
    <contour>
      <point x="347" y="427" type="curve"/>
      <point x="347" y="515"/>
      <point x="347" y="586"/>
      <point x="347" y="675" type="curve"/>
      <point x="347" y="747"/>
      <point x="287" y="771"/>
      <point x="209" y="771" type="curve"/>
      <point x="151" y="771"/>
      <point x="105" y="751"/>
      <point x="71" y="721" type="curve"/>
      <point x="89" y="691"/>
      <point x="77" y="714"/>
      <point x="95" y="683" type="curve"/>
      <point x="119" y="705"/>
      <point x="155" y="726"/>
      <point x="201" y="726" type="curve"/>
      <point x="251" y="726"/>
      <point x="291" y="711"/>
      <point x="291" y="664" type="curve"/>
      <point x="291" y="580"/>
      <point x="291" y="511"/>
      <point x="291" y="427" type="curve"/>
      <point x="338" y="427"/>
      <point x="300" y="427"/>
    </contour>
    <contour>
      <point x="317" y="641" type="curve"/>
      <point x="265" y="635"/>
      <point x="232" y="633"/>
      <point x="180" y="627" type="curve"/>
      <point x="108" y="618"/>
      <point x="54" y="592"/>
      <point x="54" y="524" type="curve"/>
      <point x="54" y="455"/>
      <point x="103" y="422"/>
      <point x="177" y="422" type="curve"/>
      <point x="249" y="422"/>
      <point x="289" y="465"/>
      <point x="332" y="520" type="curve"/>
      <point x="309" y="539"/>
      <point x="327" y="524"/>
      <point x="304" y="543" type="curve"/>
      <point x="274" y="501"/>
      <point x="241" y="466"/>
      <point x="187" y="466" type="curve"/>
      <point x="141" y="466"/>
      <point x="110" y="485"/>
      <point x="110" y="526" type="curve"/>
      <point x="110" y="564"/>
      <point x="140" y="582"/>
      <point x="179" y="587" type="curve"/>
      <point x="232" y="594"/>
      <point x="266" y="597"/>
      <point x="319" y="603" type="curve"/>
      <point x="318" y="634"/>
      <point x="319" y="610"/>
    </contour>
  </outline>
</glyph>
<glyph name="guillemotleft" format="1">
  <advance width="591"/>
  <unicode hex="00AB"/>
  <outline>
    <contour>
      <point x="278" y="435" type="curve"/>
      <point x="253" y="420"/>
      <point x="69" y="331"/>
      <point x="44" y="316" type="curve"/>
      <point x="44" y="250"/>
      <point x="44" y="312"/>
      <point x="44" y="246" type="curve"/>
      <point x="69" y="260"/>
      <point x="253" y="352"/>
      <point x="278" y="367" type="curve"/>
      <point x="278" y="433"/>
      <point x="278" y="369"/>
    </contour>
    <contour>
      <point x="278" y="196" type="curve"/>
      <point x="253" y="211"/>
      <point x="69" y="301"/>
      <point x="44" y="316" type="curve"/>
      <point x="44" y="250"/>
      <point x="44" y="312"/>
      <point x="44" y="246" type="curve"/>
      <point x="69" y="231"/>
      <point x="253" y="143"/>
      <point x="278" y="128" type="curve"/>
      <point x="278" y="194"/>
      <point x="278" y="130"/>
    </contour>
    <contour>
      <point x="520" y="435" type="curve"/>
      <point x="495" y="420"/>
      <point x="311" y="331"/>
      <point x="286" y="316" type="curve"/>
      <point x="286" y="250"/>
      <point x="286" y="312"/>
      <point x="286" y="246" type="curve"/>
      <point x="311" y="260"/>
      <point x="495" y="352"/>
      <point x="520" y="367" type="curve"/>
      <point x="520" y="433"/>
      <point x="520" y="369"/>
    </contour>
    <contour>
      <point x="520" y="196" type="curve"/>
      <point x="495" y="211"/>
      <point x="311" y="301"/>
      <point x="286" y="316" type="curve"/>
      <point x="286" y="250"/>
      <point x="286" y="312"/>
      <point x="286" y="246" type="curve"/>
      <point x="311" y="231"/>
      <point x="495" y="143"/>
      <point x="520" y="128" type="curve"/>
      <point x="520" y="194"/>
      <point x="520" y="130"/>
    </contour>
  </outline>
</glyph>
<glyph name="logicalnot" format="1">
  <advance width="686"/>
  <unicode hex="00AC"/>
  <outline>
    <contour>
      <point x="77" y="278" type="curve"/>
      <point x="606" y="278" type="line"/>
      <point x="606" y="344"/>
      <point x="606" y="278"/>
      <point x="606" y="344" type="curve"/>
      <point x="77" y="344" type="line"/>
      <point x="77" y="278"/>
      <point x="77" y="344"/>
    </contour>
    <contour>
      <point x="606" y="147" type="curve"/>
      <point x="606" y="344" type="line"/>
      <point x="528" y="344"/>
      <point x="608" y="344"/>
      <point x="530" y="344" type="curve"/>
      <point x="530" y="147" type="line"/>
      <point x="608" y="147"/>
      <point x="528" y="147"/>
    </contour>
  </outline>
</glyph>
<glyph name="registered" format="1">
  <advance width="813"/>
  <unicode hex="00AE"/>
  <outline>
    <contour>
      <point x="118" y="321" type="curve"/>
      <point x="118" y="495"/>
      <point x="235" y="599"/>
      <point x="410" y="599" type="curve"/>
      <point x="582" y="599"/>
      <point x="695" y="492"/>
      <point x="695" y="319" type="curve"/>
      <point x="695" y="151"/>
      <point x="586" y="46"/>
      <point x="417" y="46" type="curve"/>
      <point x="241" y="46"/>
      <point x="118" y="147"/>
      <point x="118" y="321" type="curve"/>
      <point x="87" y="321"/>
      <point x="89" y="321"/>
      <point x="59" y="321" type="curve"/>
      <point x="59" y="117"/>
      <point x="205" y="0"/>
      <point x="415" y="0" type="curve"/>
      <point x="618" y="0"/>
      <point x="754" y="121"/>
      <point x="754" y="322" type="curve"/>
      <point x="754" y="524"/>
      <point x="615" y="645"/>
      <point x="410" y="645" type="curve"/>
      <point x="202" y="645"/>
      <point x="59" y="526"/>
      <point x="59" y="321" type="curve"/>
      <point x="89" y="321"/>
      <point x="87" y="321"/>
    </contour>
    <contour>
      <point x="393" y="313" type="curve"/>
      <point x="409" y="286"/>
      <point x="476" y="173"/>
      <point x="492" y="145" type="curve"/>
      <point x="527" y="145"/>
      <point x="515" y="145"/>
      <point x="556" y="145" type="curve"/>
      <point x="540" y="173"/>
      <point x="474" y="282"/>
      <point x="458" y="311" type="curve"/>
      <point x="386" y="310"/>
      <point x="465" y="313"/>
    </contour>
    <contour>
      <point x="359" y="145" type="curve"/>
      <point x="359" y="255"/>
      <point x="359" y="389"/>
      <point x="359" y="498" type="curve"/>
      <point x="321" y="498"/>
      <point x="336" y="499"/>
      <point x="296" y="499" type="curve"/>
      <point x="296" y="389"/>
      <point x="296" y="255"/>
      <point x="296" y="145" type="curve"/>
      <point x="337" y="145"/>
      <point x="318" y="145"/>
    </contour>
    <contour>
      <point x="331" y="284" type="curve"/>
      <point x="351" y="284"/>
      <point x="373" y="284"/>
      <point x="393" y="284" type="curve"/>
      <point x="477" y="284"/>
      <point x="536" y="311"/>
      <point x="536" y="392" type="curve"/>
      <point x="536" y="463"/>
      <point x="483" y="499"/>
      <point x="409" y="499" type="curve"/>
      <point x="393" y="499"/>
      <point x="355" y="499"/>
      <point x="339" y="499" type="curve"/>
      <point x="296" y="456"/>
      <point x="361" y="499"/>
      <point x="296" y="448" type="curve"/>
      <point x="330" y="448"/>
      <point x="363" y="448"/>
      <point x="397" y="448" type="curve"/>
      <point x="441" y="448"/>
      <point x="474" y="431"/>
      <point x="474" y="389" type="curve"/>
      <point x="474" y="348"/>
      <point x="445" y="334"/>
      <point x="402" y="334" type="curve"/>
      <point x="378" y="334"/>
      <point x="354" y="334"/>
      <point x="331" y="334" type="curve"/>
      <point x="331" y="284"/>
      <point x="331" y="334"/>
    </contour>
  </outline>
</glyph>
<glyph name="macron" format="1">
  <advance width="343"/>
  <unicode hex="00AF"/>
  <outline>
    <contour>
      <point x="269" y="676" type="curve"/>
      <point x="190" y="676"/>
      <point x="112" y="676"/>
      <point x="34" y="676" type="curve"/>
      <point x="34" y="616"/>
      <point x="34" y="676"/>
      <point x="34" y="616" type="curve"/>
      <point x="112" y="616"/>
      <point x="190" y="616"/>
      <point x="269" y="616" type="curve"/>
      <point x="269" y="676"/>
      <point x="269" y="616"/>
    </contour>
    <contour>
      <point x="154" y="616" type="move" name="_top"/>
    </contour>
  </outline>
</glyph>
<glyph name="degree" format="1">
  <advance width="490"/>
  <unicode hex="00B0"/>
  <outline>
    <contour>
      <point x="435" y="481" type="curve"/>
      <point x="435" y="603"/>
      <point x="365" y="682"/>
      <point x="245" y="682" type="curve"/>
      <point x="125" y="682"/>
      <point x="56" y="604"/>
      <point x="56" y="483" type="curve"/>
      <point x="109" y="483"/>
      <point x="71" y="483"/>
      <point x="124" y="483" type="curve"/>
      <point x="124" y="566"/>
      <point x="162" y="625"/>
      <point x="243" y="625" type="curve"/>
      <point x="324" y="625"/>
      <point x="366" y="566"/>
      <point x="366" y="481" type="curve"/>
      <point x="366" y="394"/>
      <point x="328" y="332"/>
      <point x="246" y="332" type="curve"/>
      <point x="162" y="332"/>
      <point x="124" y="395"/>
      <point x="124" y="483" type="curve"/>
      <point x="71" y="483"/>
      <point x="109" y="483"/>
      <point x="56" y="483" type="curve"/>
      <point x="56" y="358"/>
      <point x="122" y="274"/>
      <point x="244" y="274" type="curve"/>
      <point x="366" y="274"/>
      <point x="435" y="356"/>
    </contour>
  </outline>
</glyph>
<glyph name="plusminus" format="1">
  <advance width="682"/>
  <unicode hex="00B1"/>
  <outline>
    <contour>
      <point x="60" y="25" type="line"/>
      <point x="621" y="25" type="line"/>
      <point x="621" y="92" type="line"/>
      <point x="60" y="92" type="line"/>
    </contour>
    <contour>
      <point x="60" y="278" type="curve"/>
      <point x="621" y="278" type="line"/>
      <point x="621" y="344"/>
      <point x="621" y="278"/>
      <point x="621" y="344" type="curve"/>
      <point x="60" y="344" type="line"/>
      <point x="60" y="278"/>
      <point x="60" y="344"/>
    </contour>
    <contour>
      <point x="377" y="26" type="curve"/>
      <point x="377" y="586" type="line"/>
      <point x="299" y="586"/>
      <point x="381" y="586"/>
      <point x="304" y="586" type="curve"/>
      <point x="304" y="26" type="line"/>
      <point x="381" y="26"/>
      <point x="299" y="26"/>
    </contour>
  </outline>
</glyph>
<glyph name="twosuperior" format="1">
  <advance width="477"/>
  <unicode hex="00B2"/>
  <outline>
    <contour>
      <point x="54" y="302" type="curve"/>
      <point x="187" y="302"/>
      <point x="305" y="302"/>
      <point x="416" y="302" type="curve"/>
      <point x="416" y="332"/>
      <point x="416" y="329"/>
      <point x="416" y="357" type="curve"/>
      <point x="299" y="357"/>
      <point x="170" y="357"/>
      <point x="54" y="357" type="curve"/>
      <point x="54" y="302"/>
      <point x="54" y="357"/>
    </contour>
    <contour>
      <point x="126" y="608" type="curve"/>
      <point x="154" y="648"/>
      <point x="184" y="673"/>
      <point x="233" y="673" type="curve"/>
      <point x="287" y="673"/>
      <point x="323" y="647"/>
      <point x="323" y="597" type="curve"/>
      <point x="323" y="550"/>
      <point x="290" y="529"/>
      <point x="254" y="499" type="curve"/>
      <point x="187" y="451"/>
      <point x="120" y="404"/>
      <point x="54" y="357" type="curve"/>
      <point x="60" y="303"/>
      <point x="55" y="357"/>
      <point x="61" y="303" type="curve"/>
      <point x="145" y="357"/>
      <point x="225" y="405"/>
      <point x="295" y="455" type="curve"/>
      <point x="348" y="499"/>
      <point x="393" y="532"/>
      <point x="393" y="600" type="curve"/>
      <point x="393" y="685"/>
      <point x="329" y="728"/>
      <point x="239" y="728" type="curve"/>
      <point x="164" y="728"/>
      <point x="110" y="702"/>
      <point x="76" y="636" type="curve"/>
      <point x="126" y="608"/>
      <point x="76" y="636"/>
    </contour>
    <contour>
      <point x="243" y="728" type="move" name="_top"/>
    </contour>
    <contour>
      <point x="230" y="301" type="move" name="_bottom"/>
    </contour>
  </outline>
</glyph>
<glyph name="threesuperior" format="1">
  <advance width="423"/>
  <unicode hex="00B3"/>
  <outline>
    <contour>
      <point x="95" y="633" type="curve"/>
      <point x="123" y="657"/>
      <point x="155" y="673"/>
      <point x="189" y="673" type="curve"/>
      <point x="242" y="673"/>
      <point x="281" y="655"/>
      <point x="281" y="607" type="curve"/>
      <point x="281" y="552"/>
      <point x="212" y="543"/>
      <point x="145" y="539" type="curve"/>
      <point x="145" y="492"/>
      <point x="145" y="539"/>
      <point x="145" y="492" type="curve"/>
      <point x="256" y="494"/>
      <point x="353" y="515"/>
      <point x="353" y="612" type="curve"/>
      <point x="353" y="695"/>
      <point x="286" y="727"/>
      <point x="197" y="727" type="curve"/>
      <point x="143" y="727"/>
      <point x="94" y="705"/>
      <point x="58" y="671" type="curve"/>
      <point x="95" y="633"/>
      <point x="58" y="671"/>
    </contour>
    <contour>
      <point x="54" y="331" type="curve"/>
      <point x="94" y="308"/>
      <point x="135" y="296"/>
      <point x="181" y="296" type="curve"/>
      <point x="288" y="293"/>
      <point x="371" y="325"/>
      <point x="369" y="420" type="curve"/>
      <point x="369" y="523"/>
      <point x="262" y="528"/>
      <point x="145" y="531" type="curve"/>
      <point x="145" y="490"/>
      <point x="145" y="531"/>
      <point x="145" y="490" type="curve"/>
      <point x="225" y="486"/>
      <point x="297" y="478"/>
      <point x="297" y="419" type="curve"/>
      <point x="296" y="365"/>
      <point x="249" y="347"/>
      <point x="188" y="349" type="curve"/>
      <point x="153" y="349"/>
      <point x="121" y="357"/>
      <point x="86" y="374" type="curve"/>
      <point x="54" y="331"/>
      <point x="86" y="374"/>
    </contour>
    <contour>
      <point x="211" y="727" type="move" name="_top"/>
    </contour>
    <contour>
      <point x="200" y="295" type="move" name="_bottom"/>
    </contour>
  </outline>
</glyph>
<glyph name="acute" format="1">
  <advance width="251"/>
  <unicode hex="00B4"/>
  <outline>
    <contour>
      <point x="68" y="590" type="line"/>
      <point x="216" y="756" type="line"/>
      <point x="114" y="756" type="line"/>
      <point x="-10" y="590" type="line"/>
    </contour>
    <contour>
      <point x="33" y="590" type="move" name="_top"/>
    </contour>
  </outline>
</glyph>
<glyph name="paragraph" format="1">
  <advance width="772"/>
  <unicode hex="00B6"/>
  <outline>
    <contour>
      <point x="455" y="661" type="curve"/>
      <point x="622" y="661"/>
      <point x="455" y="661"/>
      <point x="622" y="661" type="curve"/>
      <point x="622" y="722"/>
      <point x="622" y="661"/>
      <point x="622" y="722" type="curve"/>
      <point x="566" y="722"/>
      <point x="510" y="722"/>
      <point x="455" y="722" type="curve"/>
      <point x="455" y="661"/>
      <point x="455" y="722"/>
    </contour>
    <contour>
      <point x="441" y="365" type="curve"/>
      <point x="388" y="340"/>
      <point x="348" y="326"/>
      <point x="289" y="326" type="curve"/>
      <point x="186" y="326"/>
      <point x="116" y="383"/>
      <point x="116" y="485" type="curve"/>
      <point x="116" y="601"/>
      <point x="203" y="661"/>
      <point x="325" y="661" type="curve"/>
      <point x="367" y="661"/>
      <point x="410" y="661"/>
      <point x="452" y="661" type="curve"/>
      <point x="452" y="722"/>
      <point x="452" y="661"/>
      <point x="452" y="722" type="curve"/>
      <point x="406" y="722"/>
      <point x="360" y="722"/>
      <point x="315" y="722" type="curve"/>
      <point x="154" y="722"/>
      <point x="38" y="640"/>
      <point x="38" y="487" type="curve"/>
      <point x="38" y="342"/>
      <point x="145" y="269"/>
      <point x="296" y="266" type="curve"/>
      <point x="358" y="266"/>
      <point x="410" y="286"/>
      <point x="466" y="312" type="curve"/>
      <point x="441" y="364"/>
      <point x="465" y="312"/>
    </contour>
    <contour>
      <point x="495" y="0" type="curve"/>
      <point x="495" y="241"/>
      <point x="495" y="481"/>
      <point x="495" y="722" type="curve"/>
      <point x="417" y="722"/>
      <point x="495" y="722"/>
      <point x="417" y="722" type="curve"/>
      <point x="417" y="481"/>
      <point x="417" y="241"/>
      <point x="417" y="0" type="curve"/>
      <point x="495" y="0"/>
      <point x="417" y="0"/>
    </contour>
    <contour>
      <point x="689" y="0" type="curve"/>
      <point x="689" y="241"/>
      <point x="689" y="481"/>
      <point x="689" y="722" type="curve"/>
      <point x="611" y="722"/>
      <point x="689" y="722"/>
      <point x="611" y="722" type="curve"/>
      <point x="611" y="481"/>
      <point x="611" y="241"/>
      <point x="611" y="0" type="curve"/>
      <point x="689" y="0"/>
      <point x="611" y="0"/>
    </contour>
  </outline>
</glyph>
<glyph name="periodcentered" format="1">
  <advance width="222"/>
  <unicode hex="00B7"/>
  <outline>
    <contour>
      <point x="157" y="440" type="curve"/>
      <point x="157" y="467"/>
      <point x="138" y="481"/>
      <point x="110" y="481" type="curve"/>
      <point x="83" y="481"/>
      <point x="65" y="466"/>
      <point x="65" y="440" type="curve"/>
      <point x="150" y="440"/>
      <point x="72" y="440"/>
      <point x="157" y="440" type="curve"/>
      <point x="157" y="412"/>
      <point x="138" y="399"/>
      <point x="110" y="399" type="curve"/>
      <point x="82" y="399"/>
      <point x="65" y="413"/>
      <point x="65" y="440" type="curve"/>
      <point x="150" y="440"/>
      <point x="72" y="440"/>
    </contour>
  </outline>
</glyph>
<glyph name="cedilla" format="1">
  <advance width="325"/>
  <unicode hex="00B8"/>
  <outline>
    <contour>
      <point x="162" y="83" type="curve"/>
      <point x="147" y="59"/>
      <point x="112" y="1"/>
      <point x="97" y="-24" type="curve"/>
      <point x="150" y="-72"/>
      <point x="97" y="-24"/>
      <point x="150" y="-72" type="curve"/>
      <point x="167" y="-45"/>
      <point x="206" y="15"/>
      <point x="222" y="42" type="curve"/>
      <point x="162" y="83"/>
      <point x="222" y="42"/>
    </contour>
    <contour>
      <point x="150" y="-72" type="curve"/>
      <point x="161" y="-65"/>
      <point x="171" y="-62"/>
      <point x="184" y="-62" type="curve"/>
      <point x="208" y="-62"/>
      <point x="222" y="-75"/>
      <point x="222" y="-100" type="curve"/>
      <point x="222" y="-127"/>
      <point x="200" y="-138"/>
      <point x="170" y="-138" type="curve"/>
      <point x="144" y="-138"/>
      <point x="124" y="-134"/>
      <point x="98" y="-120" type="curve"/>
      <point x="73" y="-166"/>
      <point x="98" y="-120"/>
      <point x="73" y="-166" type="curve"/>
      <point x="104" y="-183"/>
      <point x="131" y="-190"/>
      <point x="167" y="-190" type="curve"/>
      <point x="236" y="-190"/>
      <point x="286" y="-163"/>
      <point x="286" y="-98" type="curve"/>
      <point x="286" y="-38"/>
      <point x="245" y="-4"/>
      <point x="185" y="-4" type="curve"/>
      <point x="151" y="-4"/>
      <point x="128" y="-10"/>
      <point x="98" y="-24" type="curve"/>
      <point x="150" y="-72"/>
      <point x="98" y="-24"/>
    </contour>
    <contour>
      <point x="213" y="42" type="move" name="_bottom"/>
    </contour>
  </outline>
</glyph>
<glyph name="onesuperior" format="1">
  <advance width="303"/>
  <unicode hex="00B9"/>
  <outline>
    <contour>
      <point x="58" y="573" type="line"/>
      <point x="223" y="714" type="line"/>
      <point x="152" y="720" type="line"/>
      <point x="22" y="614" type="line"/>
    </contour>
    <contour>
      <point x="224" y="302" type="curve"/>
      <point x="224" y="720" type="line"/>
      <point x="152" y="720" type="line"/>
      <point x="152" y="302" type="line"/>
      <point x="204" y="302"/>
      <point x="177" y="302"/>
    </contour>
    <contour>
      <point x="183" y="718" type="move" name="_top"/>
    </contour>
    <contour>
      <point x="189" y="303" type="move" name="_bottom"/>
    </contour>
  </outline>
</glyph>
<glyph name="ordmasculine" format="1">
  <advance width="440"/>
  <unicode hex="00BA"/>
  <outline>
    <contour>
      <point x="104" y="602" type="curve"/>
      <point x="104" y="678"/>
      <point x="144" y="728"/>
      <point x="219" y="728" type="curve"/>
      <point x="295" y="728"/>
      <point x="335" y="677"/>
      <point x="335" y="600" type="curve"/>
      <point x="335" y="519"/>
      <point x="296" y="466"/>
      <point x="224" y="466" type="curve"/>
      <point x="145" y="466"/>
      <point x="104" y="519"/>
      <point x="104" y="602" type="curve"/>
      <point x="71" y="602"/>
      <point x="83" y="602"/>
      <point x="49" y="602" type="curve"/>
      <point x="49" y="489"/>
      <point x="112" y="420"/>
      <point x="222" y="420" type="curve"/>
      <point x="329" y="420"/>
      <point x="391" y="489"/>
      <point x="391" y="600" type="curve"/>
      <point x="391" y="707"/>
      <point x="329" y="773"/>
      <point x="222" y="773" type="curve"/>
      <point x="112" y="773"/>
      <point x="49" y="707"/>
      <point x="49" y="602" type="curve"/>
      <point x="83" y="602"/>
      <point x="71" y="602"/>
    </contour>
  </outline>
</glyph>
<glyph name="guillemotright" format="1">
  <advance width="600"/>
  <unicode hex="00BB"/>
  <outline>
    <contour>
      <point x="319" y="435" type="curve"/>
      <point x="344" y="420"/>
      <point x="527" y="331"/>
      <point x="552" y="316" type="curve"/>
      <point x="552" y="250"/>
      <point x="552" y="312"/>
      <point x="552" y="246" type="curve"/>
      <point x="527" y="260"/>
      <point x="344" y="352"/>
      <point x="319" y="367" type="curve"/>
      <point x="319" y="433"/>
      <point x="319" y="369"/>
    </contour>
    <contour>
      <point x="319" y="196" type="curve"/>
      <point x="343" y="211"/>
      <point x="527" y="301"/>
      <point x="552" y="316" type="curve"/>
      <point x="552" y="250"/>
      <point x="552" y="312"/>
      <point x="552" y="246" type="curve"/>
      <point x="527" y="231"/>
      <point x="343" y="143"/>
      <point x="319" y="128" type="curve"/>
      <point x="319" y="194"/>
      <point x="319" y="130"/>
    </contour>
    <contour>
      <point x="77" y="435" type="curve"/>
      <point x="102" y="420"/>
      <point x="286" y="331"/>
      <point x="311" y="316" type="curve"/>
      <point x="311" y="250"/>
      <point x="311" y="312"/>
      <point x="311" y="246" type="curve"/>
      <point x="286" y="260"/>
      <point x="102" y="352"/>
      <point x="77" y="367" type="curve"/>
      <point x="77" y="433"/>
      <point x="77" y="369"/>
    </contour>
    <contour>
      <point x="77" y="196" type="curve"/>
      <point x="102" y="211"/>
      <point x="286" y="301"/>
      <point x="311" y="316" type="curve"/>
      <point x="311" y="250"/>
      <point x="311" y="312"/>
      <point x="311" y="246" type="curve"/>
      <point x="286" y="231"/>
      <point x="102" y="143"/>
      <point x="77" y="128" type="curve"/>
      <point x="77" y="194"/>
      <point x="77" y="130"/>
    </contour>
  </outline>
</glyph>
<glyph name="onequarter" format="1">
  <advance width="1009"/>
  <unicode hex="00BC"/>
  <outline>
    <contour>
      <point x="325" y="-68" type="line"/>
      <point x="769" y="735" type="line"/>
      <point x="695" y="735" type="line"/>
      <point x="251" y="-68" type="line"/>
    </contour>
    <contour>
      <point x="65" y="591" type="line"/>
      <point x="230" y="732" type="line"/>
      <point x="159" y="738" type="line"/>
      <point x="29" y="632" type="line"/>
    </contour>
    <contour>
      <point x="231" y="319" type="curve"/>
      <point x="231" y="738" type="line"/>
      <point x="159" y="738" type="line"/>
      <point x="159" y="319" type="line"/>
      <point x="210" y="319"/>
      <point x="184" y="319"/>
    </contour>
    <contour>
      <point x="974" y="103" type="line"/>
      <point x="583" y="103" type="line"/>
      <point x="583" y="49" type="line"/>
      <point x="974" y="49" type="line"/>
    </contour>
    <contour>
      <point x="607" y="55" type="line"/>
      <point x="864" y="356" type="line"/>
      <point x="807" y="368" type="line"/>
      <point x="583" y="103" type="line"/>
    </contour>
    <contour>
      <point x="878" y="-72" type="line"/>
      <point x="878" y="368" type="line"/>
      <point x="807" y="368" type="line"/>
      <point x="807" y="-72" type="line"/>
    </contour>
  </outline>
</glyph>
<glyph name="onehalf" format="1">
  <advance width="1067"/>
  <unicode hex="00BD"/>
  <outline>
    <contour>
      <point x="336" y="-68" type="line"/>
      <point x="781" y="735" type="line"/>
      <point x="707" y="735" type="line"/>
      <point x="262" y="-68" type="line"/>
    </contour>
    <contour>
      <point x="65" y="591" type="line"/>
      <point x="230" y="732" type="line"/>
      <point x="159" y="738" type="line"/>
      <point x="29" y="632" type="line"/>
    </contour>
    <contour>
      <point x="231" y="319" type="curve"/>
      <point x="231" y="738" type="line"/>
      <point x="159" y="738" type="line"/>
      <point x="159" y="319" type="line"/>
      <point x="210" y="319"/>
      <point x="184" y="319"/>
    </contour>
    <contour>
      <point x="664" y="-70" type="curve"/>
      <point x="797" y="-70"/>
      <point x="915" y="-70"/>
      <point x="1026" y="-70" type="curve"/>
      <point x="1026" y="-39"/>
      <point x="1026" y="-42"/>
      <point x="1026" y="-14" type="curve"/>
      <point x="910" y="-14"/>
      <point x="781" y="-14"/>
      <point x="664" y="-14" type="curve"/>
      <point x="664" y="-69"/>
      <point x="664" y="-14"/>
    </contour>
    <contour>
      <point x="737" y="237" type="curve"/>
      <point x="764" y="277"/>
      <point x="794" y="302"/>
      <point x="844" y="302" type="curve"/>
      <point x="897" y="302"/>
      <point x="933" y="275"/>
      <point x="933" y="226" type="curve"/>
      <point x="933" y="179"/>
      <point x="900" y="158"/>
      <point x="864" y="128" type="curve"/>
      <point x="797" y="80"/>
      <point x="731" y="33"/>
      <point x="664" y="-14" type="curve"/>
      <point x="670" y="-68"/>
      <point x="665" y="-14"/>
      <point x="671" y="-68" type="curve"/>
      <point x="755" y="-14"/>
      <point x="835" y="34"/>
      <point x="905" y="84" type="curve"/>
      <point x="959" y="128"/>
      <point x="1004" y="161"/>
      <point x="1004" y="229" type="curve"/>
      <point x="1004" y="314"/>
      <point x="940" y="357"/>
      <point x="850" y="357" type="curve"/>
      <point x="775" y="357"/>
      <point x="721" y="330"/>
      <point x="686" y="265" type="curve"/>
      <point x="737" y="237"/>
      <point x="686" y="265"/>
    </contour>
  </outline>
</glyph>
<glyph name="threequarters" format="1">
  <advance width="1023"/>
  <unicode hex="00BE"/>
  <outline>
    <contour>
      <point x="346" y="-68" type="line"/>
      <point x="791" y="735" type="line"/>
      <point x="717" y="735" type="line"/>
      <point x="273" y="-68" type="line"/>
    </contour>
    <contour>
      <point x="85" y="642" type="curve"/>
      <point x="113" y="666"/>
      <point x="145" y="681"/>
      <point x="179" y="681" type="curve"/>
      <point x="232" y="681"/>
      <point x="271" y="663"/>
      <point x="271" y="616" type="curve"/>
      <point x="271" y="561"/>
      <point x="202" y="551"/>
      <point x="135" y="548" type="curve"/>
      <point x="135" y="501"/>
      <point x="135" y="548"/>
      <point x="135" y="501" type="curve"/>
      <point x="246" y="503"/>
      <point x="342" y="523"/>
      <point x="342" y="620" type="curve"/>
      <point x="342" y="703"/>
      <point x="276" y="736"/>
      <point x="187" y="736" type="curve"/>
      <point x="133" y="736"/>
      <point x="84" y="714"/>
      <point x="48" y="679" type="curve"/>
      <point x="85" y="642"/>
      <point x="48" y="679"/>
    </contour>
    <contour>
      <point x="44" y="340" type="curve"/>
      <point x="84" y="317"/>
      <point x="125" y="304"/>
      <point x="171" y="304" type="curve"/>
      <point x="278" y="301"/>
      <point x="361" y="333"/>
      <point x="359" y="429" type="curve"/>
      <point x="359" y="532"/>
      <point x="252" y="537"/>
      <point x="135" y="540" type="curve"/>
      <point x="135" y="498"/>
      <point x="135" y="540"/>
      <point x="135" y="498" type="curve"/>
      <point x="215" y="495"/>
      <point x="287" y="487"/>
      <point x="287" y="428" type="curve"/>
      <point x="286" y="374"/>
      <point x="239" y="356"/>
      <point x="178" y="358" type="curve"/>
      <point x="143" y="358"/>
      <point x="111" y="365"/>
      <point x="76" y="382" type="curve"/>
      <point x="44" y="340"/>
      <point x="76" y="382"/>
    </contour>
    <contour>
      <point x="991" y="103" type="line"/>
      <point x="601" y="103" type="line"/>
      <point x="601" y="49" type="line"/>
      <point x="991" y="49" type="line"/>
    </contour>
    <contour>
      <point x="624" y="55" type="line"/>
      <point x="882" y="356" type="line"/>
      <point x="824" y="368" type="line"/>
      <point x="601" y="103" type="line"/>
    </contour>
    <contour>
      <point x="896" y="-72" type="line"/>
      <point x="896" y="368" type="line"/>
      <point x="824" y="368" type="line"/>
      <point x="824" y="-72" type="line"/>
    </contour>
  </outline>
</glyph>
<glyph name="questiondown" format="1">
  <advance width="520"/>
  <unicode hex="00BF"/>
  <outline>
    <contour>
      <point x="325" y="359" type="curve"/>
      <point x="325" y="396"/>
      <point x="325" y="455"/>
      <point x="325" y="492" type="curve"/>
      <point x="250" y="492"/>
      <point x="325" y="492"/>
      <point x="250" y="492" type="curve"/>
      <point x="250" y="455"/>
      <point x="250" y="396"/>
      <point x="250" y="359" type="curve"/>
      <point x="325" y="359"/>
      <point x="250" y="359"/>
    </contour>
    <contour>
      <point x="429" y="111" type="line"/>
      <point x="395" y="76"/>
      <point x="345" y="48"/>
      <point x="283" y="48" type="curve"/>
      <point x="188" y="48"/>
      <point x="123" y="101"/>
      <point x="123" y="194" type="curve"/>
      <point x="123" y="299"/>
      <point x="202" y="359"/>
      <point x="317" y="359" type="curve"/>
      <point x="317" y="385"/>
      <point x="317" y="393"/>
      <point x="317" y="419" type="curve"/>
      <point x="159" y="419"/>
      <point x="48" y="338"/>
      <point x="48" y="194" type="curve"/>
      <point x="48" y="61"/>
      <point x="144" y="-15"/>
      <point x="279" y="-15" type="curve"/>
      <point x="361" y="-15"/>
      <point x="423" y="15"/>
      <point x="471" y="65" type="curve"/>
    </contour>
    <contour>
      <point x="242" y="690" type="curve"/>
      <point x="242" y="664"/>
      <point x="261" y="650"/>
      <point x="287" y="650" type="curve"/>
      <point x="314" y="650"/>
      <point x="331" y="665"/>
      <point x="331" y="690" type="curve"/>
      <point x="242" y="690"/>
      <point x="331" y="690"/>
      <point x="242" y="690" type="curve"/>
      <point x="242" y="718"/>
      <point x="261" y="730"/>
      <point x="287" y="730" type="curve"/>
      <point x="314" y="730"/>
      <point x="331" y="716"/>
      <point x="331" y="690" type="curve"/>
      <point x="242" y="690"/>
      <point x="331" y="690"/>
    </contour>
  </outline>
</glyph>
<glyph name="Acircumflex" format="1">
  <advance width="698"/>
  <unicode hex="00C2"/>
  <outline>
    <contour>
      <point x="524" y="289" type="curve"/>
      <point x="408" y="289"/>
      <point x="293" y="289"/>
      <point x="178" y="289" type="curve"/>
      <point x="146" y="225"/>
      <point x="178" y="289"/>
      <point x="146" y="225" type="curve"/>
      <point x="280" y="225"/>
      <point x="414" y="225"/>
      <point x="549" y="225" type="curve"/>
      <point x="524" y="289"/>
      <point x="549" y="225"/>
    </contour>
    <contour>
      <point x="679" y="0" type="curve"/>
      <point x="585" y="241"/>
      <point x="488" y="481"/>
      <point x="394" y="722" type="curve"/>
      <point x="323" y="722"/>
      <point x="394" y="722"/>
      <point x="323" y="722" type="curve"/>
      <point x="416" y="482"/>
      <point x="505" y="240"/>
      <point x="598" y="0" type="curve"/>
      <point x="679" y="0"/>
      <point x="598" y="0"/>
    </contour>
    <contour>
      <point x="86" y="0" type="curve"/>
      <point x="189" y="240"/>
      <point x="288" y="482"/>
      <point x="392" y="722" type="curve"/>
      <point x="321" y="722"/>
      <point x="392" y="722"/>
      <point x="321" y="722" type="curve"/>
      <point x="216" y="481"/>
      <point x="106" y="241"/>
      <point x="1" y="0" type="curve"/>
      <point x="86" y="0"/>
      <point x="1" y="0"/>
    </contour>
    <contour>
      <point x="244" y="806" type="line"/>
      <point x="393" y="972" type="line"/>
      <point x="291" y="972" type="line"/>
      <point x="167" y="806" type="line"/>
    </contour>
    <contour>
      <point x="546" y="806" type="line"/>
      <point x="420" y="972" type="line"/>
      <point x="319" y="972" type="line"/>
      <point x="467" y="806" type="line"/>
    </contour>
  </outline>
</glyph>
<glyph name="Atilde" format="1">
  <advance width="698"/>
  <unicode hex="00C3"/>
  <outline>
    <contour>
      <point x="524" y="289" type="curve"/>
      <point x="408" y="289"/>
      <point x="293" y="289"/>
      <point x="178" y="289" type="curve"/>
      <point x="146" y="225"/>
      <point x="178" y="289"/>
      <point x="146" y="225" type="curve"/>
      <point x="280" y="225"/>
      <point x="414" y="225"/>
      <point x="549" y="225" type="curve"/>
      <point x="524" y="289"/>
      <point x="549" y="225"/>
    </contour>
    <contour>
      <point x="679" y="0" type="curve"/>
      <point x="585" y="241"/>
      <point x="488" y="481"/>
      <point x="394" y="722" type="curve"/>
      <point x="323" y="722"/>
      <point x="394" y="722"/>
      <point x="323" y="722" type="curve"/>
      <point x="416" y="482"/>
      <point x="505" y="240"/>
      <point x="598" y="0" type="curve"/>
      <point x="679" y="0"/>
      <point x="598" y="0"/>
    </contour>
    <contour>
      <point x="86" y="0" type="curve"/>
      <point x="189" y="240"/>
      <point x="288" y="482"/>
      <point x="392" y="722" type="curve"/>
      <point x="321" y="722"/>
      <point x="392" y="722"/>
      <point x="321" y="722" type="curve"/>
      <point x="216" y="481"/>
      <point x="106" y="241"/>
      <point x="1" y="0" type="curve"/>
      <point x="86" y="0"/>
      <point x="1" y="0"/>
    </contour>
    <contour>
      <point x="516" y="955" type="curve"/>
      <point x="502" y="909"/>
      <point x="485" y="872"/>
      <point x="449" y="872" type="curve"/>
      <point x="412" y="872"/>
      <point x="391" y="886"/>
      <point x="365" y="911" type="curve"/>
      <point x="332" y="941"/>
      <point x="307" y="959"/>
      <point x="264" y="959" type="curve"/>
      <point x="192" y="959"/>
      <point x="157" y="906"/>
      <point x="136" y="833" type="curve"/>
      <point x="194" y="805"/>
      <point x="136" y="833"/>
      <point x="195" y="805" type="curve"/>
      <point x="210" y="857"/>
      <point x="230" y="890"/>
      <point x="271" y="890" type="curve"/>
      <point x="304" y="890"/>
      <point x="321" y="874"/>
      <point x="344" y="852" type="curve"/>
      <point x="380" y="819"/>
      <point x="407" y="802"/>
      <point x="455" y="802" type="curve"/>
      <point x="527" y="802"/>
      <point x="555" y="858"/>
      <point x="578" y="929" type="curve"/>
      <point x="516" y="955"/>
      <point x="578" y="929"/>
    </contour>
  </outline>
</glyph>
<glyph name="Adieresis" format="1">
  <advance width="698"/>
  <unicode hex="00C4"/>
  <outline>
    <contour>
      <point x="524" y="289" type="curve"/>
      <point x="408" y="289"/>
      <point x="293" y="289"/>
      <point x="178" y="289" type="curve"/>
      <point x="146" y="225"/>
      <point x="178" y="289"/>
      <point x="146" y="225" type="curve"/>
      <point x="280" y="225"/>
      <point x="414" y="225"/>
      <point x="549" y="225" type="curve"/>
      <point x="524" y="289"/>
      <point x="549" y="225"/>
    </contour>
    <contour>
      <point x="679" y="0" type="curve"/>
      <point x="585" y="241"/>
      <point x="488" y="481"/>
      <point x="394" y="722" type="curve"/>
      <point x="323" y="722"/>
      <point x="394" y="722"/>
      <point x="323" y="722" type="curve"/>
      <point x="416" y="482"/>
      <point x="505" y="240"/>
      <point x="598" y="0" type="curve"/>
      <point x="679" y="0"/>
      <point x="598" y="0"/>
    </contour>
    <contour>
      <point x="86" y="0" type="curve"/>
      <point x="189" y="240"/>
      <point x="288" y="482"/>
      <point x="392" y="722" type="curve"/>
      <point x="321" y="722"/>
      <point x="392" y="722"/>
      <point x="321" y="722" type="curve"/>
      <point x="216" y="481"/>
      <point x="106" y="241"/>
      <point x="1" y="0" type="curve"/>
      <point x="86" y="0"/>
      <point x="1" y="0"/>
    </contour>
    <contour>
      <point x="320" y="844" type="curve"/>
      <point x="320" y="872"/>
      <point x="300" y="886"/>
      <point x="273" y="886" type="curve"/>
      <point x="245" y="886"/>
      <point x="227" y="870"/>
      <point x="227" y="844" type="curve"/>
      <point x="312" y="844"/>
      <point x="235" y="844"/>
      <point x="320" y="844" type="curve"/>
      <point x="320" y="816"/>
      <point x="300" y="803"/>
      <point x="272" y="803" type="curve"/>
      <point x="245" y="803"/>
      <point x="227" y="818"/>
      <point x="227" y="844" type="curve"/>
      <point x="312" y="844"/>
      <point x="235" y="844"/>
    </contour>
    <contour>
      <point x="486" y="844" type="curve"/>
      <point x="486" y="872"/>
      <point x="466" y="886"/>
      <point x="438" y="886" type="curve"/>
      <point x="411" y="886"/>
      <point x="393" y="870"/>
      <point x="393" y="844" type="curve"/>
      <point x="478" y="844"/>
      <point x="401" y="844"/>
      <point x="486" y="844" type="curve"/>
      <point x="486" y="816"/>
      <point x="466" y="803"/>
      <point x="438" y="803" type="curve"/>
      <point x="411" y="803"/>
      <point x="393" y="818"/>
      <point x="393" y="844" type="curve"/>
      <point x="478" y="844"/>
      <point x="401" y="844"/>
    </contour>
  </outline>
</glyph>
<glyph name="Aring" format="1">
  <advance width="698"/>
  <unicode hex="00C5"/>
  <outline>
    <contour>
      <point x="524" y="289" type="curve"/>
      <point x="408" y="289"/>
      <point x="293" y="289"/>
      <point x="178" y="289" type="curve"/>
      <point x="146" y="225"/>
      <point x="178" y="289"/>
      <point x="146" y="225" type="curve"/>
      <point x="280" y="225"/>
      <point x="414" y="225"/>
      <point x="549" y="225" type="curve"/>
      <point x="524" y="289"/>
      <point x="549" y="225"/>
    </contour>
    <contour>
      <point x="679" y="0" type="curve"/>
      <point x="585" y="241"/>
      <point x="488" y="481"/>
      <point x="394" y="722" type="curve"/>
      <point x="323" y="722"/>
      <point x="394" y="722"/>
      <point x="323" y="722" type="curve"/>
      <point x="416" y="482"/>
      <point x="505" y="240"/>
      <point x="598" y="0" type="curve"/>
      <point x="679" y="0"/>
      <point x="598" y="0"/>
    </contour>
    <contour>
      <point x="86" y="0" type="curve"/>
      <point x="189" y="240"/>
      <point x="288" y="482"/>
      <point x="392" y="722" type="curve"/>
      <point x="321" y="722"/>
      <point x="392" y="722"/>
      <point x="321" y="722" type="curve"/>
      <point x="216" y="481"/>
      <point x="106" y="241"/>
      <point x="1" y="0" type="curve"/>
      <point x="86" y="0"/>
      <point x="1" y="0"/>
    </contour>
    <contour>
      <point x="213" y="934" type="curve"/>
      <point x="213" y="851"/>
      <point x="271" y="804"/>
      <point x="356" y="804" type="curve"/>
      <point x="444" y="804"/>
      <point x="503" y="850"/>
      <point x="503" y="934" type="curve"/>
      <point x="503" y="1019"/>
      <point x="443" y="1064"/>
      <point x="354" y="1064" type="curve"/>
      <point x="269" y="1064"/>
      <point x="213" y="1018"/>
      <point x="213" y="934" type="curve"/>
      <point x="281" y="934"/>
      <point x="211" y="934"/>
      <point x="278" y="934" type="curve"/>
      <point x="278" y="982"/>
      <point x="306" y="1011"/>
      <point x="354" y="1011" type="curve"/>
      <point x="405" y="1011"/>
      <point x="436" y="984"/>
      <point x="436" y="934" type="curve"/>
      <point x="436" y="886"/>
      <point x="406" y="858"/>
      <point x="356" y="858" type="curve"/>
      <point x="307" y="858"/>
      <point x="278" y="886"/>
      <point x="278" y="934" type="curve"/>
      <point x="211" y="934"/>
      <point x="281" y="934"/>
    </contour>
  </outline>
</glyph>
<glyph name="AE" format="1">
  <advance width="949"/>
  <unicode hex="00C6"/>
  <outline>
    <contour>
      <point x="451" y="269" type="curve"/>
      <point x="336" y="269"/>
      <point x="295" y="269"/>
      <point x="180" y="269" type="curve"/>
      <point x="147" y="205"/>
      <point x="180" y="269"/>
      <point x="147" y="205" type="curve"/>
      <point x="282" y="205"/>
      <point x="342" y="205"/>
      <point x="476" y="205" type="curve"/>
      <point x="451" y="269"/>
      <point x="476" y="205"/>
    </contour>
    <contour>
      <point x="79" y="0" type="curve"/>
      <point x="510" y="722" type="line"/>
      <point x="439" y="722"/>
      <point x="508" y="722"/>
      <point x="437" y="722" type="curve"/>
      <point x="-7" y="0" type="line"/>
      <point x="78" y="0"/>
      <point x="-7" y="0"/>
    </contour>
    <contour>
      <point x="482" y="343" type="curve"/>
      <point x="596" y="343"/>
      <point x="710" y="343"/>
      <point x="824" y="343" type="curve"/>
      <point x="824" y="404"/>
      <point x="824" y="343"/>
      <point x="824" y="404" type="curve"/>
      <point x="710" y="404"/>
      <point x="596" y="404"/>
      <point x="482" y="404" type="curve"/>
      <point x="482" y="343"/>
      <point x="482" y="404"/>
    </contour>
    <contour>
      <point x="466" y="661" type="curve"/>
      <point x="608" y="661"/>
      <point x="749" y="661"/>
      <point x="890" y="661" type="curve"/>
      <point x="890" y="722"/>
      <point x="890" y="661"/>
      <point x="890" y="722" type="curve"/>
      <point x="749" y="722"/>
      <point x="608" y="722"/>
      <point x="466" y="722" type="curve"/>
      <point x="466" y="661"/>
      <point x="466" y="722"/>
    </contour>
    <contour>
      <point x="515" y="0" type="curve"/>
      <point x="515" y="722" type="line"/>
      <point x="437" y="722"/>
      <point x="515" y="722"/>
      <point x="437" y="722" type="curve"/>
      <point x="437" y="481"/>
      <point x="437" y="241"/>
      <point x="437" y="0" type="curve"/>
      <point x="515" y="0"/>
      <point x="437" y="0"/>
    </contour>
    <contour>
      <point x="466" y="0" type="curve"/>
      <point x="619" y="0"/>
      <point x="772" y="0"/>
      <point x="925" y="0" type="curve"/>
      <point x="925" y="61"/>
      <point x="925" y="0"/>
      <point x="925" y="61" type="curve"/>
      <point x="772" y="61"/>
      <point x="619" y="61"/>
      <point x="466" y="61" type="curve"/>
      <point x="466" y="0"/>
      <point x="466" y="61"/>
    </contour>
  </outline>
</glyph>
<glyph name="Ccedilla" format="1">
  <advance width="706"/>
  <unicode hex="00C7"/>
  <outline>
    <contour>
      <point x="669" y="655" type="curve"/>
      <point x="595" y="696"/>
      <point x="513" y="727"/>
      <point x="419" y="727" type="curve"/>
      <point x="187" y="727"/>
      <point x="57" y="583"/>
      <point x="57" y="344" type="curve"/>
      <point x="57" y="125"/>
      <point x="179" y="-5"/>
      <point x="396" y="-5" type="curve"/>
      <point x="518" y="-5"/>
      <point x="595" y="28"/>
      <point x="683" y="95" type="curve"/>
      <point x="644" y="144"/>
      <point x="682" y="95"/>
      <point x="644" y="144" type="curve"/>
      <point x="564" y="86"/>
      <point x="498" y="60"/>
      <point x="399" y="60" type="curve"/>
      <point x="226" y="60"/>
      <point x="135" y="170"/>
      <point x="135" y="347" type="curve"/>
      <point x="135" y="540"/>
      <point x="231" y="664"/>
      <point x="416" y="664" type="curve"/>
      <point x="494" y="664"/>
      <point x="565" y="642"/>
      <point x="633" y="605" type="curve"/>
      <point x="669" y="655"/>
      <point x="633" y="605"/>
    </contour>
    <contour>
      <point x="362" y="43" type="curve"/>
      <point x="347" y="18"/>
      <point x="311" y="-40"/>
      <point x="297" y="-64" type="curve"/>
      <point x="350" y="-113"/>
      <point x="297" y="-64"/>
      <point x="350" y="-113" type="curve"/>
      <point x="366" y="-85"/>
      <point x="405" y="-26"/>
      <point x="421" y="1" type="curve"/>
      <point x="362" y="43"/>
      <point x="421" y="1"/>
    </contour>
    <contour>
      <point x="350" y="-113" type="curve"/>
      <point x="361" y="-106"/>
      <point x="370" y="-103"/>
      <point x="384" y="-103" type="curve"/>
      <point x="407" y="-103"/>
      <point x="421" y="-116"/>
      <point x="421" y="-140" type="curve"/>
      <point x="421" y="-168"/>
      <point x="399" y="-179"/>
      <point x="370" y="-179" type="curve"/>
      <point x="344" y="-179"/>
      <point x="324" y="-174"/>
      <point x="298" y="-161" type="curve"/>
      <point x="272" y="-207"/>
      <point x="298" y="-161"/>
      <point x="272" y="-207" type="curve"/>
      <point x="304" y="-223"/>
      <point x="330" y="-231"/>
      <point x="366" y="-231" type="curve"/>
      <point x="435" y="-231"/>
      <point x="486" y="-203"/>
      <point x="486" y="-139" type="curve"/>
      <point x="486" y="-79"/>
      <point x="445" y="-44"/>
      <point x="384" y="-44" type="curve"/>
      <point x="351" y="-44"/>
      <point x="327" y="-51"/>
      <point x="297" y="-64" type="curve"/>
      <point x="350" y="-113"/>
      <point x="297" y="-64"/>
    </contour>
  </outline>
</glyph>
<glyph name="Egrave" format="1">
  <advance width="617"/>
  <unicode hex="00C8"/>
  <outline>
    <contour>
      <point x="149" y="343" type="curve"/>
      <point x="263" y="343"/>
      <point x="377" y="343"/>
      <point x="492" y="343" type="curve"/>
      <point x="492" y="404"/>
      <point x="492" y="343"/>
      <point x="492" y="404" type="curve"/>
      <point x="377" y="404"/>
      <point x="263" y="404"/>
      <point x="149" y="404" type="curve"/>
      <point x="149" y="343"/>
      <point x="149" y="404"/>
    </contour>
    <contour>
      <point x="133" y="661" type="curve"/>
      <point x="275" y="661"/>
      <point x="416" y="661"/>
      <point x="557" y="661" type="curve"/>
      <point x="557" y="722"/>
      <point x="557" y="661"/>
      <point x="557" y="722" type="curve"/>
      <point x="416" y="722"/>
      <point x="275" y="722"/>
      <point x="133" y="722" type="curve"/>
      <point x="133" y="661"/>
      <point x="133" y="722"/>
    </contour>
    <contour>
      <point x="183" y="0" type="curve"/>
      <point x="183" y="722" type="line"/>
      <point x="105" y="722"/>
      <point x="183" y="722"/>
      <point x="105" y="722" type="curve"/>
      <point x="105" y="481"/>
      <point x="105" y="241"/>
      <point x="105" y="0" type="curve"/>
      <point x="183" y="0"/>
      <point x="105" y="0"/>
    </contour>
    <contour>
      <point x="133" y="0" type="curve"/>
      <point x="287" y="0"/>
      <point x="439" y="0"/>
      <point x="593" y="0" type="curve"/>
      <point x="593" y="61"/>
      <point x="593" y="0"/>
      <point x="593" y="61" type="curve"/>
      <point x="439" y="61"/>
      <point x="287" y="61"/>
      <point x="133" y="61" type="curve"/>
      <point x="133" y="0"/>
      <point x="133" y="61"/>
    </contour>
    <contour>
      <point x="348" y="806" type="line"/>
      <point x="223" y="972" type="line"/>
      <point x="121" y="972" type="line"/>
      <point x="270" y="806" type="line"/>
    </contour>
  </outline>
</glyph>
<glyph name="Eacute" format="1">
  <advance width="613"/>
  <unicode hex="00C9"/>
  <outline>
    <contour>
      <point x="146" y="343" type="curve"/>
      <point x="260" y="343"/>
      <point x="374" y="343"/>
      <point x="488" y="343" type="curve"/>
      <point x="488" y="404"/>
      <point x="488" y="343"/>
      <point x="488" y="404" type="curve"/>
      <point x="374" y="404"/>
      <point x="260" y="404"/>
      <point x="146" y="404" type="curve"/>
      <point x="146" y="343"/>
      <point x="146" y="404"/>
    </contour>
    <contour>
      <point x="130" y="661" type="curve"/>
      <point x="271" y="661"/>
      <point x="412" y="661"/>
      <point x="554" y="661" type="curve"/>
      <point x="554" y="722"/>
      <point x="554" y="661"/>
      <point x="554" y="722" type="curve"/>
      <point x="412" y="722"/>
      <point x="271" y="722"/>
      <point x="130" y="722" type="curve"/>
      <point x="130" y="661"/>
      <point x="130" y="722"/>
    </contour>
    <contour>
      <point x="179" y="0" type="curve"/>
      <point x="179" y="722" type="line"/>
      <point x="101" y="722"/>
      <point x="179" y="722"/>
      <point x="101" y="722" type="curve"/>
      <point x="101" y="481"/>
      <point x="101" y="241"/>
      <point x="101" y="0" type="curve"/>
      <point x="179" y="0"/>
      <point x="101" y="0"/>
    </contour>
    <contour>
      <point x="130" y="0" type="curve"/>
      <point x="283" y="0"/>
      <point x="436" y="0"/>
      <point x="589" y="0" type="curve"/>
      <point x="589" y="61"/>
      <point x="589" y="0"/>
      <point x="589" y="61" type="curve"/>
      <point x="436" y="61"/>
      <point x="283" y="61"/>
      <point x="130" y="61" type="curve"/>
      <point x="130" y="0"/>
      <point x="130" y="61"/>
    </contour>
    <contour>
      <point x="336" y="806" type="line"/>
      <point x="484" y="972" type="line"/>
      <point x="382" y="972" type="line"/>
      <point x="258" y="806" type="line"/>
    </contour>
  </outline>
</glyph>
<glyph name="Ecircumflex" format="1">
  <advance width="598"/>
  <unicode hex="00CA"/>
  <outline>
    <contour>
      <point x="137" y="343" type="curve"/>
      <point x="251" y="343"/>
      <point x="365" y="343"/>
      <point x="479" y="343" type="curve"/>
      <point x="479" y="404"/>
      <point x="479" y="343"/>
      <point x="479" y="404" type="curve"/>
      <point x="365" y="404"/>
      <point x="251" y="404"/>
      <point x="137" y="404" type="curve"/>
      <point x="137" y="343"/>
      <point x="137" y="404"/>
    </contour>
    <contour>
      <point x="121" y="661" type="curve"/>
      <point x="263" y="661"/>
      <point x="404" y="661"/>
      <point x="545" y="661" type="curve"/>
      <point x="545" y="722"/>
      <point x="545" y="661"/>
      <point x="545" y="722" type="curve"/>
      <point x="404" y="722"/>
      <point x="263" y="722"/>
      <point x="121" y="722" type="curve"/>
      <point x="121" y="661"/>
      <point x="121" y="722"/>
    </contour>
    <contour>
      <point x="170" y="0" type="curve"/>
      <point x="170" y="722" type="line"/>
      <point x="92" y="722"/>
      <point x="170" y="722"/>
      <point x="92" y="722" type="curve"/>
      <point x="92" y="481"/>
      <point x="92" y="241"/>
      <point x="92" y="0" type="curve"/>
      <point x="170" y="0"/>
      <point x="92" y="0"/>
    </contour>
    <contour>
      <point x="121" y="0" type="curve"/>
      <point x="274" y="0"/>
      <point x="427" y="0"/>
      <point x="580" y="0" type="curve"/>
      <point x="580" y="61"/>
      <point x="580" y="0"/>
      <point x="580" y="61" type="curve"/>
      <point x="427" y="61"/>
      <point x="274" y="61"/>
      <point x="121" y="61" type="curve"/>
      <point x="121" y="0"/>
      <point x="121" y="61"/>
    </contour>
    <contour>
      <point x="181" y="806" type="line"/>
      <point x="329" y="972" type="line"/>
      <point x="227" y="972" type="line"/>
      <point x="103" y="806" type="line"/>
    </contour>
    <contour>
      <point x="482" y="806" type="line"/>
      <point x="357" y="972" type="line"/>
      <point x="255" y="972" type="line"/>
      <point x="403" y="806" type="line"/>
    </contour>
  </outline>
</glyph>
<glyph name="Edieresis" format="1">
  <advance width="612"/>
  <unicode hex="00CB"/>
  <outline>
    <contour>
      <point x="145" y="343" type="curve"/>
      <point x="259" y="343"/>
      <point x="373" y="343"/>
      <point x="487" y="343" type="curve"/>
      <point x="487" y="404"/>
      <point x="487" y="343"/>
      <point x="487" y="404" type="curve"/>
      <point x="373" y="404"/>
      <point x="259" y="404"/>
      <point x="145" y="404" type="curve"/>
      <point x="145" y="343"/>
      <point x="145" y="404"/>
    </contour>
    <contour>
      <point x="129" y="661" type="curve"/>
      <point x="270" y="661"/>
      <point x="411" y="661"/>
      <point x="553" y="661" type="curve"/>
      <point x="553" y="722"/>
      <point x="553" y="661"/>
      <point x="553" y="722" type="curve"/>
      <point x="411" y="722"/>
      <point x="270" y="722"/>
      <point x="129" y="722" type="curve"/>
      <point x="129" y="661"/>
      <point x="129" y="722"/>
    </contour>
    <contour>
      <point x="178" y="0" type="curve"/>
      <point x="178" y="722" type="line"/>
      <point x="100" y="722"/>
      <point x="178" y="722"/>
      <point x="100" y="722" type="curve"/>
      <point x="100" y="481"/>
      <point x="100" y="241"/>
      <point x="100" y="0" type="curve"/>
      <point x="178" y="0"/>
      <point x="100" y="0"/>
    </contour>
    <contour>
      <point x="129" y="0" type="curve"/>
      <point x="282" y="0"/>
      <point x="435" y="0"/>
      <point x="588" y="0" type="curve"/>
      <point x="588" y="61"/>
      <point x="588" y="0"/>
      <point x="588" y="61" type="curve"/>
      <point x="435" y="61"/>
      <point x="282" y="61"/>
      <point x="129" y="61" type="curve"/>
      <point x="129" y="0"/>
      <point x="129" y="61"/>
    </contour>
    <contour>
      <point x="264" y="844" type="curve"/>
      <point x="264" y="872"/>
      <point x="244" y="886"/>
      <point x="217" y="886" type="curve"/>
      <point x="189" y="886"/>
      <point x="171" y="870"/>
      <point x="171" y="844" type="curve"/>
      <point x="257" y="844"/>
      <point x="179" y="844"/>
      <point x="264" y="844" type="curve"/>
      <point x="264" y="816"/>
      <point x="244" y="803"/>
      <point x="216" y="803" type="curve"/>
      <point x="189" y="803"/>
      <point x="171" y="818"/>
      <point x="171" y="844" type="curve"/>
      <point x="257" y="844"/>
      <point x="179" y="844"/>
    </contour>
    <contour>
      <point x="430" y="844" type="curve"/>
      <point x="430" y="872"/>
      <point x="410" y="886"/>
      <point x="382" y="886" type="curve"/>
      <point x="355" y="886"/>
      <point x="337" y="870"/>
      <point x="337" y="844" type="curve"/>
      <point x="422" y="844"/>
      <point x="345" y="844"/>
      <point x="430" y="844" type="curve"/>
      <point x="430" y="816"/>
      <point x="410" y="803"/>
      <point x="382" y="803" type="curve"/>
      <point x="355" y="803"/>
      <point x="337" y="818"/>
      <point x="337" y="844" type="curve"/>
      <point x="422" y="844"/>
      <point x="345" y="844"/>
    </contour>
  </outline>
</glyph>
<glyph name="Igrave" format="1">
  <advance width="296"/>
  <unicode hex="00CC"/>
  <outline>
    <contour>
      <point x="190" y="0" type="curve"/>
      <point x="190" y="241"/>
      <point x="190" y="481"/>
      <point x="190" y="722" type="curve"/>
      <point x="112" y="722"/>
      <point x="190" y="722"/>
      <point x="112" y="722" type="curve"/>
      <point x="112" y="481"/>
      <point x="112" y="241"/>
      <point x="112" y="0" type="curve"/>
      <point x="190" y="0"/>
      <point x="112" y="0"/>
    </contour>
    <contour>
      <point x="196" y="806" type="line"/>
      <point x="70" y="972" type="line"/>
      <point x="-31" y="972" type="line"/>
      <point x="117" y="806" type="line"/>
    </contour>
  </outline>
</glyph>
<glyph name="Iacute" format="1">
  <advance width="293"/>
  <unicode hex="00CD"/>
  <outline>
    <contour>
      <point x="183" y="0" type="curve"/>
      <point x="183" y="241"/>
      <point x="183" y="481"/>
      <point x="183" y="722" type="curve"/>
      <point x="105" y="722"/>
      <point x="183" y="722"/>
      <point x="105" y="722" type="curve"/>
      <point x="105" y="481"/>
      <point x="105" y="241"/>
      <point x="105" y="0" type="curve"/>
      <point x="183" y="0"/>
      <point x="105" y="0"/>
    </contour>
    <contour>
      <point x="179" y="806" type="line"/>
      <point x="327" y="972" type="line"/>
      <point x="226" y="972" type="line"/>
      <point x="101" y="806" type="line"/>
    </contour>
  </outline>
</glyph>
<glyph name="Icircumflex" format="1">
  <advance width="304"/>
  <unicode hex="00CE"/>
  <outline>
    <contour>
      <point x="195" y="0" type="curve"/>
      <point x="195" y="241"/>
      <point x="195" y="481"/>
      <point x="195" y="722" type="curve"/>
      <point x="117" y="722"/>
      <point x="195" y="722"/>
      <point x="117" y="722" type="curve"/>
      <point x="117" y="481"/>
      <point x="117" y="241"/>
      <point x="117" y="0" type="curve"/>
      <point x="195" y="0"/>
      <point x="117" y="0"/>
    </contour>
    <contour>
      <point x="46" y="806" type="line"/>
      <point x="194" y="972" type="line"/>
      <point x="92" y="972" type="line"/>
      <point x="-32" y="806" type="line"/>
    </contour>
    <contour>
      <point x="347" y="806" type="line"/>
      <point x="222" y="972" type="line"/>
      <point x="120" y="972" type="line"/>
      <point x="268" y="806" type="line"/>
    </contour>
  </outline>
</glyph>
<glyph name="Idieresis" format="1">
  <advance width="274"/>
  <unicode hex="00CF"/>
  <outline>
    <contour>
      <point x="178" y="0" type="curve"/>
      <point x="178" y="241"/>
      <point x="178" y="481"/>
      <point x="178" y="722" type="curve"/>
      <point x="100" y="722"/>
      <point x="178" y="722"/>
      <point x="100" y="722" type="curve"/>
      <point x="100" y="481"/>
      <point x="100" y="241"/>
      <point x="100" y="0" type="curve"/>
      <point x="178" y="0"/>
      <point x="100" y="0"/>
    </contour>
    <contour>
      <point x="104" y="844" type="curve"/>
      <point x="104" y="872"/>
      <point x="84" y="886"/>
      <point x="57" y="886" type="curve"/>
      <point x="29" y="886"/>
      <point x="11" y="870"/>
      <point x="11" y="844" type="curve"/>
      <point x="96" y="844"/>
      <point x="19" y="844"/>
      <point x="104" y="844" type="curve"/>
      <point x="104" y="816"/>
      <point x="84" y="803"/>
      <point x="56" y="803" type="curve"/>
      <point x="29" y="803"/>
      <point x="11" y="818"/>
      <point x="11" y="844" type="curve"/>
      <point x="96" y="844"/>
      <point x="19" y="844"/>
    </contour>
    <contour>
      <point x="270" y="844" type="curve"/>
      <point x="270" y="872"/>
      <point x="250" y="886"/>
      <point x="222" y="886" type="curve"/>
      <point x="195" y="886"/>
      <point x="177" y="870"/>
      <point x="177" y="844" type="curve"/>
      <point x="262" y="844"/>
      <point x="185" y="844"/>
      <point x="270" y="844" type="curve"/>
      <point x="270" y="816"/>
      <point x="250" y="803"/>
      <point x="222" y="803" type="curve"/>
      <point x="195" y="803"/>
      <point x="177" y="818"/>
      <point x="177" y="844" type="curve"/>
      <point x="262" y="844"/>
      <point x="185" y="844"/>
    </contour>
  </outline>
</glyph>
<glyph name="Eth" format="1">
  <advance width="771"/>
  <unicode hex="00D0"/>
  <outline>
    <contour>
      <point x="108" y="722" type="curve"/>
      <point x="108" y="481"/>
      <point x="108" y="241"/>
      <point x="108" y="0" type="curve"/>
      <point x="186" y="0"/>
      <point x="108" y="0"/>
      <point x="186" y="0" type="curve"/>
      <point x="186" y="241"/>
      <point x="186" y="481"/>
      <point x="186" y="722" type="curve"/>
      <point x="108" y="722"/>
      <point x="186" y="722"/>
    </contour>
    <contour>
      <point x="149" y="0" type="curve"/>
      <point x="217" y="0"/>
      <point x="281" y="0"/>
      <point x="349" y="0" type="curve"/>
      <point x="584" y="0"/>
      <point x="713" y="121"/>
      <point x="713" y="353" type="curve"/>
      <point x="713" y="595"/>
      <point x="582" y="722"/>
      <point x="339" y="722" type="curve"/>
      <point x="275" y="722"/>
      <point x="214" y="722"/>
      <point x="149" y="722" type="curve"/>
      <point x="149" y="665"/>
      <point x="149" y="718"/>
      <point x="149" y="661" type="curve"/>
      <point x="213" y="661"/>
      <point x="272" y="661"/>
      <point x="336" y="661" type="curve"/>
      <point x="534" y="661"/>
      <point x="635" y="551"/>
      <point x="635" y="352" type="curve"/>
      <point x="635" y="165"/>
      <point x="542" y="61"/>
      <point x="356" y="61" type="curve"/>
      <point x="286" y="61"/>
      <point x="220" y="61"/>
      <point x="149" y="61" type="curve"/>
      <point x="149" y="4"/>
      <point x="149" y="57"/>
    </contour>
    <contour>
      <point x="37" y="340" type="curve"/>
      <point x="149" y="340"/>
      <point x="260" y="340"/>
      <point x="372" y="340" type="curve"/>
      <point x="372" y="407"/>
      <point x="372" y="340"/>
      <point x="372" y="407" type="curve"/>
      <point x="260" y="407"/>
      <point x="149" y="407"/>
      <point x="37" y="407" type="curve"/>
      <point x="37" y="340"/>
      <point x="37" y="407"/>
    </contour>
  </outline>
</glyph>
<glyph name="Ntilde" format="1">
  <advance width="850"/>
  <unicode hex="00D1"/>
  <outline>
    <contour>
      <point x="748" y="0" type="curve"/>
      <point x="562" y="241"/>
      <point x="378" y="481"/>
      <point x="192" y="722" type="curve"/>
      <point x="102" y="722"/>
      <point x="191" y="722"/>
      <point x="101" y="722" type="curve"/>
      <point x="287" y="481"/>
      <point x="471" y="241"/>
      <point x="657" y="0" type="curve"/>
      <point x="747" y="0"/>
      <point x="658" y="0"/>
    </contour>
    <contour>
      <point x="671" y="722" type="curve"/>
      <point x="671" y="481"/>
      <point x="671" y="241"/>
      <point x="671" y="0" type="curve"/>
      <point x="749" y="0"/>
      <point x="671" y="0"/>
      <point x="749" y="0" type="curve"/>
      <point x="749" y="241"/>
      <point x="749" y="481"/>
      <point x="749" y="722" type="curve"/>
      <point x="671" y="722"/>
      <point x="749" y="722"/>
    </contour>
    <contour>
      <point x="179" y="0" type="curve"/>
      <point x="179" y="241"/>
      <point x="179" y="481"/>
      <point x="179" y="722" type="curve"/>
      <point x="101" y="722"/>
      <point x="179" y="722"/>
      <point x="101" y="722" type="curve"/>
      <point x="101" y="481"/>
      <point x="101" y="241"/>
      <point x="101" y="0" type="curve"/>
      <point x="179" y="0"/>
      <point x="101" y="0"/>
    </contour>
    <contour>
      <point x="591" y="955" type="curve"/>
      <point x="576" y="909"/>
      <point x="560" y="872"/>
      <point x="523" y="872" type="curve"/>
      <point x="487" y="872"/>
      <point x="466" y="886"/>
      <point x="440" y="911" type="curve"/>
      <point x="407" y="941"/>
      <point x="382" y="959"/>
      <point x="338" y="959" type="curve"/>
      <point x="266" y="959"/>
      <point x="232" y="906"/>
      <point x="211" y="833" type="curve"/>
      <point x="269" y="805"/>
      <point x="211" y="833"/>
      <point x="269" y="805" type="curve"/>
      <point x="285" y="857"/>
      <point x="304" y="890"/>
      <point x="346" y="890" type="curve"/>
      <point x="379" y="890"/>
      <point x="396" y="874"/>
      <point x="419" y="852" type="curve"/>
      <point x="455" y="819"/>
      <point x="482" y="802"/>
      <point x="530" y="802" type="curve"/>
      <point x="601" y="802"/>
      <point x="630" y="858"/>
      <point x="653" y="929" type="curve"/>
      <point x="591" y="955"/>
      <point x="652" y="929"/>
    </contour>
  </outline>
</glyph>
<glyph name="Otilde" format="1">
  <advance width="791"/>
  <unicode hex="00D5"/>
  <outline>
    <contour>
      <point x="135" y="360" type="curve" name="FullCurve"/>
      <point x="135" y="538"/>
      <point x="219" y="664"/>
      <point x="392" y="664" type="curve" name="FullCurve"/>
      <point x="565" y="664"/>
      <point x="655" y="541"/>
      <point x="655" y="363" type="curve" name="FullCurve"/>
      <point x="655" y="186"/>
      <point x="570" y="59"/>
      <point x="398" y="59" type="curve" name="FullCurve"/>
      <point x="223" y="59"/>
      <point x="135" y="181"/>
      <point x="135" y="360" type="curve" name="FullCurve"/>
      <point x="57" y="360"/>
      <point x="135" y="360"/>
      <point x="57" y="360" type="curve" name="FullCurve"/>
      <point x="57" y="140"/>
      <point x="178" y="-5"/>
      <point x="394" y="-5" type="curve" name="FullCurve"/>
      <point x="612" y="-5"/>
      <point x="734" y="141"/>
      <point x="734" y="363" type="curve" name="FullCurve"/>
      <point x="734" y="582"/>
      <point x="613" y="727"/>
      <point x="397" y="727" type="curve" name="FullCurve"/>
      <point x="179" y="727"/>
      <point x="57" y="581"/>
      <point x="57" y="360" type="curve" name="FullCurve"/>
      <point x="135" y="360"/>
      <point x="57" y="360"/>
    </contour>
    <contour>
      <point x="556" y="955" type="curve"/>
      <point x="542" y="909"/>
      <point x="525" y="872"/>
      <point x="489" y="872" type="curve"/>
      <point x="452" y="872"/>
      <point x="431" y="886"/>
      <point x="405" y="911" type="curve"/>
      <point x="372" y="941"/>
      <point x="347" y="959"/>
      <point x="303" y="959" type="curve"/>
      <point x="232" y="959"/>
      <point x="197" y="906"/>
      <point x="176" y="833" type="curve"/>
      <point x="234" y="805"/>
      <point x="176" y="833"/>
      <point x="235" y="805" type="curve"/>
      <point x="250" y="857"/>
      <point x="270" y="890"/>
      <point x="311" y="890" type="curve"/>
      <point x="344" y="890"/>
      <point x="361" y="874"/>
      <point x="384" y="852" type="curve"/>
      <point x="420" y="819"/>
      <point x="447" y="802"/>
      <point x="495" y="802" type="curve"/>
      <point x="567" y="802"/>
      <point x="595" y="858"/>
      <point x="618" y="929" type="curve"/>
      <point x="556" y="955"/>
      <point x="618" y="929"/>
    </contour>
  </outline>
</glyph>
<glyph name="Odieresis" format="1">
  <advance width="791"/>
  <unicode hex="00D6"/>
  <outline>
    <contour>
      <point x="135" y="360" type="curve" name="FullCurve"/>
      <point x="135" y="538"/>
      <point x="219" y="664"/>
      <point x="392" y="664" type="curve" name="FullCurve"/>
      <point x="565" y="664"/>
      <point x="655" y="541"/>
      <point x="655" y="363" type="curve" name="FullCurve"/>
      <point x="655" y="186"/>
      <point x="570" y="59"/>
      <point x="398" y="59" type="curve" name="FullCurve"/>
      <point x="223" y="59"/>
      <point x="135" y="181"/>
      <point x="135" y="360" type="curve" name="FullCurve"/>
      <point x="57" y="360"/>
      <point x="135" y="360"/>
      <point x="57" y="360" type="curve" name="FullCurve"/>
      <point x="57" y="140"/>
      <point x="178" y="-5"/>
      <point x="394" y="-5" type="curve" name="FullCurve"/>
      <point x="612" y="-5"/>
      <point x="734" y="141"/>
      <point x="734" y="363" type="curve" name="FullCurve"/>
      <point x="734" y="582"/>
      <point x="613" y="727"/>
      <point x="397" y="727" type="curve" name="FullCurve"/>
      <point x="179" y="727"/>
      <point x="57" y="581"/>
      <point x="57" y="360" type="curve" name="FullCurve"/>
      <point x="135" y="360"/>
      <point x="57" y="360"/>
    </contour>
    <contour>
      <point x="360" y="844" type="curve"/>
      <point x="360" y="872"/>
      <point x="340" y="886"/>
      <point x="313" y="886" type="curve"/>
      <point x="285" y="886"/>
      <point x="267" y="870"/>
      <point x="267" y="844" type="curve"/>
      <point x="352" y="844"/>
      <point x="275" y="844"/>
      <point x="360" y="844" type="curve"/>
      <point x="360" y="816"/>
      <point x="340" y="803"/>
      <point x="312" y="803" type="curve"/>
      <point x="285" y="803"/>
      <point x="267" y="818"/>
      <point x="267" y="844" type="curve"/>
      <point x="352" y="844"/>
      <point x="275" y="844"/>
    </contour>
    <contour>
      <point x="526" y="844" type="curve"/>
      <point x="526" y="872"/>
      <point x="506" y="886"/>
      <point x="478" y="886" type="curve"/>
      <point x="451" y="886"/>
      <point x="433" y="870"/>
      <point x="433" y="844" type="curve"/>
      <point x="518" y="844"/>
      <point x="441" y="844"/>
      <point x="526" y="844" type="curve"/>
      <point x="526" y="816"/>
      <point x="506" y="803"/>
      <point x="478" y="803" type="curve"/>
      <point x="451" y="803"/>
      <point x="433" y="818"/>
      <point x="433" y="844" type="curve"/>
      <point x="518" y="844"/>
      <point x="441" y="844"/>
    </contour>
  </outline>
</glyph>
